<?xml version="1.0" encoding="utf-8"?>
<svg xmlns="http://www.w3.org/2000/svg" xmlns:xlink="http://www.w3.org/1999/xlink" width="600" height="450" viewBox="0 0 2400 1800">
<defs>
  <clipPath id="clip350">
    <rect x="300" y="135" width="1921" height="1441"/>
  </clipPath>
</defs>
<defs>
  <clipPath id="clip351">
    <rect x="0" y="0" width="2400" height="1800"/>
  </clipPath>
</defs>
<path clip-path="url(#clip351)" d="M300 1575 L2220 1575 L2220 135 L300 135  Z" fill="#ffffff" fill-rule="evenodd" fill-opacity="1"/>
<path clip-path="url(#clip351)" d="M255.382 1571.84 Q255.382 1562.54 257.729 1557.48 Q261.002 1549.94 268.722 1549.94 Q270.359 1549.94 272.057 1550.41 Q273.786 1550.84 275.948 1552.54 Q278.14 1554.24 279.468 1557.02 Q282 1562.39 282 1571.84 Q282 1581.07 279.653 1586.1 Q276.226 1593.45 268.66 1593.45 Q265.819 1593.45 262.917 1592 Q260.045 1590.55 258.223 1587.06 Q255.382 1581.84 255.382 1571.84 M260.632 1571.07 Q260.632 1580.61 261.311 1584.41 Q262.083 1588.51 264.183 1590.3 Q266.313 1592.06 268.66 1592.06 Q271.192 1592.06 273.292 1590.18 Q275.423 1588.27 276.071 1584.16 Q276.781 1580.11 276.751 1571.07 Q276.751 1562.27 276.133 1558.75 Q275.299 1554.64 273.076 1553 Q270.883 1551.33 268.66 1551.33 Q267.826 1551.33 266.931 1551.58 Q266.066 1551.83 264.8 1552.54 Q263.534 1553.25 262.546 1555.01 Q261.589 1556.77 261.126 1559.42 Q260.632 1562.85 260.632 1571.07 Z" fill="#000000" fill-rule="evenodd" fill-opacity="1" /><path clip-path="url(#clip351)" d="M206.871 1283.84 Q206.871 1274.54 209.218 1269.48 Q212.491 1261.94 220.211 1261.94 Q221.847 1261.94 223.546 1262.41 Q225.275 1262.84 227.436 1264.54 Q229.629 1266.24 230.957 1269.02 Q233.489 1274.39 233.489 1283.84 Q233.489 1293.07 231.142 1298.1 Q227.714 1305.45 220.149 1305.45 Q217.308 1305.45 214.405 1304 Q211.534 1302.55 209.712 1299.06 Q206.871 1293.84 206.871 1283.84 M212.12 1283.07 Q212.12 1292.61 212.8 1296.41 Q213.572 1300.51 215.671 1302.3 Q217.802 1304.06 220.149 1304.06 Q222.681 1304.06 224.781 1302.18 Q226.912 1300.27 227.56 1296.16 Q228.27 1292.11 228.239 1283.07 Q228.239 1274.27 227.622 1270.75 Q226.788 1266.64 224.565 1265 Q222.372 1263.33 220.149 1263.33 Q219.315 1263.33 218.42 1263.58 Q217.555 1263.83 216.289 1264.54 Q215.023 1265.25 214.035 1267.01 Q213.078 1268.77 212.614 1271.42 Q212.12 1274.85 212.12 1283.07 Z" fill="#000000" fill-rule="evenodd" fill-opacity="1" /><path clip-path="url(#clip351)" d="M242.351 1303.04 Q241.394 1302.03 241.394 1300.7 Q241.394 1299.37 242.351 1298.41 Q243.308 1297.42 244.76 1297.42 Q246.149 1297.42 247.076 1298.35 Q248.033 1299.25 248.033 1300.73 Q248.033 1302.18 247.014 1303.14 Q246.026 1304.06 244.76 1304.06 Q243.308 1304.06 242.351 1303.04 Z" fill="#000000" fill-rule="evenodd" fill-opacity="1" /><path clip-path="url(#clip351)" d="M256.741 1304.06 Q256.741 1302.92 256.833 1302.58 Q256.957 1302.24 257.451 1301.72 L269.587 1288.19 Q276.226 1280.72 276.226 1274.2 Q276.226 1269.97 274.002 1266.95 Q271.81 1263.92 267.765 1263.92 Q264.986 1263.92 262.639 1265.62 Q260.292 1267.32 259.211 1270.34 Q259.396 1270.28 260.045 1270.28 Q261.62 1270.28 262.484 1271.27 Q263.38 1272.26 263.38 1273.59 Q263.38 1275.28 262.268 1276.12 Q261.187 1276.92 260.107 1276.92 Q259.674 1276.92 259.088 1276.83 Q258.532 1276.74 257.636 1275.87 Q256.741 1274.98 256.741 1273.4 Q256.741 1268.99 260.076 1265.47 Q263.442 1261.94 268.568 1261.94 Q274.373 1261.94 278.171 1265.4 Q282 1268.83 282 1274.2 Q282 1276.09 281.413 1277.82 Q280.857 1279.52 280.085 1280.84 Q279.344 1282.17 277.306 1284.3 Q275.268 1286.43 273.632 1287.95 Q271.995 1289.46 268.321 1292.67 L261.62 1299.19 L273.014 1299.19 Q278.572 1299.19 279.005 1298.69 Q279.622 1297.8 280.394 1293.07 L282 1293.07 L280.209 1304.06 L256.741 1304.06 Z" fill="#000000" fill-rule="evenodd" fill-opacity="1" /><path clip-path="url(#clip351)" d="M205.481 995.838 Q205.481 986.543 207.828 981.479 Q211.101 973.945 218.821 973.945 Q220.458 973.945 222.156 974.408 Q223.885 974.84 226.047 976.539 Q228.239 978.237 229.567 981.016 Q232.099 986.389 232.099 995.838 Q232.099 1005.07 229.752 1010.1 Q226.325 1017.45 218.759 1017.45 Q215.919 1017.45 213.016 1016 Q210.144 1014.55 208.322 1011.06 Q205.481 1005.84 205.481 995.838 M210.731 995.066 Q210.731 1004.61 211.41 1008.41 Q212.182 1012.51 214.282 1014.3 Q216.413 1016.06 218.759 1016.06 Q221.291 1016.06 223.391 1014.18 Q225.522 1012.27 226.17 1008.16 Q226.881 1004.11 226.85 995.066 Q226.85 986.266 226.232 982.745 Q225.398 978.638 223.175 977.002 Q220.983 975.334 218.759 975.334 Q217.926 975.334 217.03 975.581 Q216.166 975.828 214.899 976.539 Q213.633 977.249 212.645 979.009 Q211.688 980.769 211.225 983.425 Q210.731 986.852 210.731 995.066 Z" fill="#000000" fill-rule="evenodd" fill-opacity="1" /><path clip-path="url(#clip351)" d="M240.962 1015.04 Q240.004 1014.03 240.004 1012.7 Q240.004 1011.37 240.962 1010.41 Q241.919 1009.42 243.37 1009.42 Q244.76 1009.42 245.686 1010.35 Q246.643 1011.25 246.643 1012.73 Q246.643 1014.18 245.624 1015.14 Q244.636 1016.06 243.37 1016.06 Q241.919 1016.06 240.962 1015.04 Z" fill="#000000" fill-rule="evenodd" fill-opacity="1" /><path clip-path="url(#clip351)" d="M253.962 1005.63 L253.962 1003.68 L273.385 974.007 Q273.879 973.235 274.651 973.265 Q275.361 973.265 275.515 973.543 Q275.67 973.821 275.67 974.902 L275.67 1003.68 L282 1003.68 L282 1005.63 L275.67 1005.63 L275.67 1011.12 Q275.67 1012.95 276.411 1013.53 Q277.183 1014.12 280.456 1014.12 L281.784 1014.12 L281.784 1016.06 Q279.19 1015.88 273.199 1015.88 Q267.24 1015.88 264.646 1016.06 L264.646 1014.12 L265.974 1014.12 Q269.247 1014.12 270.019 1013.56 Q270.791 1012.98 270.791 1011.12 L270.791 1005.63 L253.962 1005.63 M255.753 1003.68 L271.161 1003.68 L271.161 980.09 L255.753 1003.68 Z" fill="#000000" fill-rule="evenodd" fill-opacity="1" /><path clip-path="url(#clip351)" d="M206.377 707.838 Q206.377 698.543 208.724 693.479 Q211.997 685.945 219.717 685.945 Q221.353 685.945 223.052 686.408 Q224.781 686.84 226.942 688.539 Q229.135 690.237 230.463 693.016 Q232.995 698.389 232.995 707.838 Q232.995 717.071 230.648 722.104 Q227.22 729.454 219.655 729.454 Q216.814 729.454 213.911 728.002 Q211.04 726.551 209.218 723.062 Q206.377 717.843 206.377 707.838 M211.626 707.066 Q211.626 716.608 212.306 720.406 Q213.078 724.513 215.177 726.304 Q217.308 728.064 219.655 728.064 Q222.187 728.064 224.287 726.18 Q226.417 724.266 227.066 720.159 Q227.776 716.114 227.745 707.066 Q227.745 698.266 227.128 694.745 Q226.294 690.638 224.071 689.002 Q221.878 687.334 219.655 687.334 Q218.821 687.334 217.926 687.581 Q217.061 687.828 215.795 688.539 Q214.529 689.249 213.541 691.009 Q212.584 692.769 212.12 695.425 Q211.626 698.852 211.626 707.066 Z" fill="#000000" fill-rule="evenodd" fill-opacity="1" /><path clip-path="url(#clip351)" d="M241.857 727.045 Q240.9 726.026 240.9 724.698 Q240.9 723.37 241.857 722.413 Q242.814 721.425 244.266 721.425 Q245.655 721.425 246.582 722.351 Q247.539 723.247 247.539 724.729 Q247.539 726.18 246.52 727.138 Q245.532 728.064 244.266 728.064 Q242.814 728.064 241.857 727.045 Z" fill="#000000" fill-rule="evenodd" fill-opacity="1" /><path clip-path="url(#clip351)" d="M255.753 708.085 Q255.753 698.142 260.817 692.059 Q265.881 685.945 272.397 685.945 Q276.195 685.945 278.294 687.89 Q280.425 689.805 280.425 692.769 Q280.425 694.406 279.468 695.116 Q278.511 695.826 277.523 695.826 Q276.38 695.826 275.484 695.054 Q274.589 694.282 274.589 692.893 Q274.589 690.052 278.078 690.052 Q276.442 687.52 272.52 687.52 Q271.316 687.52 270.081 687.89 Q268.845 688.23 267.24 689.403 Q265.634 690.577 264.399 692.429 Q263.164 694.282 262.299 697.772 Q261.434 701.261 261.434 705.8 L261.434 707.313 Q264.028 701.045 269.34 701.076 Q274.651 701.076 278.325 705.121 Q282 709.166 282 715.156 Q282 721.301 278.171 725.378 Q274.342 729.454 268.969 729.454 Q266.56 729.454 264.368 728.435 Q262.206 727.446 260.168 725.161 Q258.161 722.876 256.957 718.491 Q255.753 714.107 255.753 708.085 M261.558 713.767 Q261.558 719.974 262.701 722.938 Q262.886 723.432 263.287 724.111 Q263.72 724.791 264.43 725.686 Q265.171 726.551 266.375 727.138 Q267.579 727.693 268.969 727.693 Q273.199 727.693 275.237 723.587 Q276.318 721.301 276.318 715.095 Q276.318 708.765 275.176 706.449 Q273.23 702.527 269.278 702.527 Q266.622 702.527 264.769 704.349 Q262.948 706.171 262.237 708.61 Q261.558 711.05 261.558 713.767 Z" fill="#000000" fill-rule="evenodd" fill-opacity="1" /><path clip-path="url(#clip351)" d="M206.377 419.838 Q206.377 410.543 208.724 405.479 Q211.997 397.945 219.717 397.945 Q221.353 397.945 223.052 398.408 Q224.781 398.84 226.942 400.539 Q229.135 402.237 230.463 405.016 Q232.995 410.389 232.995 419.838 Q232.995 429.071 230.648 434.104 Q227.22 441.454 219.655 441.454 Q216.814 441.454 213.911 440.002 Q211.04 438.551 209.218 435.062 Q206.377 429.843 206.377 419.838 M211.626 419.066 Q211.626 428.608 212.306 432.406 Q213.078 436.513 215.177 438.304 Q217.308 440.064 219.655 440.064 Q222.187 440.064 224.287 438.18 Q226.417 436.266 227.066 432.159 Q227.776 428.114 227.745 419.066 Q227.745 410.266 227.128 406.745 Q226.294 402.638 224.071 401.002 Q221.878 399.334 219.655 399.334 Q218.821 399.334 217.926 399.581 Q217.061 399.828 215.795 400.539 Q214.529 401.249 213.541 403.009 Q212.584 404.769 212.12 407.425 Q211.626 410.852 211.626 419.066 Z" fill="#000000" fill-rule="evenodd" fill-opacity="1" /><path clip-path="url(#clip351)" d="M241.857 439.045 Q240.9 438.026 240.9 436.698 Q240.9 435.37 241.857 434.413 Q242.814 433.425 244.266 433.425 Q245.655 433.425 246.582 434.351 Q247.539 435.247 247.539 436.729 Q247.539 438.18 246.52 439.138 Q245.532 440.064 244.266 440.064 Q242.814 440.064 241.857 439.045 Z" fill="#000000" fill-rule="evenodd" fill-opacity="1" /><path clip-path="url(#clip351)" d="M255.753 430.522 Q255.753 423.451 264.862 418.881 Q260.94 416.225 260.23 415.453 Q257.451 412.365 257.451 408.505 Q257.451 404.09 260.786 401.033 Q264.152 397.945 268.907 397.945 Q273.446 397.945 276.874 400.57 Q280.302 403.194 280.302 407.363 Q280.302 413.23 272.644 417.183 Q277.708 420.332 278.912 421.66 Q282 425.088 282 429.442 Q282 434.506 278.109 437.995 Q274.218 441.454 268.845 441.454 Q263.596 441.454 259.674 438.397 Q255.753 435.339 255.753 430.522 M258.902 430.522 Q258.902 434.444 261.836 437.069 Q264.8 439.693 268.907 439.693 Q272.891 439.693 275.855 437.408 Q278.85 435.123 278.85 431.727 Q278.85 430.399 278.387 429.256 Q277.955 428.114 277.059 427.218 Q276.195 426.292 275.639 425.89 Q275.114 425.458 274.095 424.748 L266.313 419.838 Q258.902 423.945 258.902 430.522 M260.23 406.035 Q260.23 409.061 263.411 411.161 L271.254 416.225 Q277.523 412.551 277.523 407.363 Q277.523 403.997 274.96 401.774 Q272.397 399.52 268.845 399.52 Q265.356 399.52 262.793 401.372 Q260.23 403.194 260.23 406.035 Z" fill="#000000" fill-rule="evenodd" fill-opacity="1" /><path clip-path="url(#clip351)" d="M209.341 115.966 L209.341 113.99 Q216.938 113.99 220.859 109.945 Q221.94 109.945 222.125 110.192 Q222.311 110.439 222.311 111.581 L222.311 147.062 Q222.311 148.945 223.237 149.532 Q224.163 150.119 228.208 150.119 L230.216 150.119 L230.216 152.064 Q227.992 151.879 219.964 151.879 Q211.935 151.879 209.743 152.064 L209.743 150.119 L211.75 150.119 Q215.733 150.119 216.69 149.563 Q217.648 148.976 217.648 147.062 L217.648 114.299 Q214.344 115.966 209.341 115.966 Z" fill="#000000" fill-rule="evenodd" fill-opacity="1" /><path clip-path="url(#clip351)" d="M241.672 151.045 Q240.715 150.026 240.715 148.698 Q240.715 147.37 241.672 146.413 Q242.629 145.425 244.08 145.425 Q245.47 145.425 246.396 146.351 Q247.354 147.247 247.354 148.729 Q247.354 150.18 246.335 151.138 Q245.346 152.064 244.08 152.064 Q242.629 152.064 241.672 151.045 Z" fill="#000000" fill-rule="evenodd" fill-opacity="1" /><path clip-path="url(#clip351)" d="M255.382 131.838 Q255.382 122.543 257.729 117.479 Q261.002 109.945 268.722 109.945 Q270.359 109.945 272.057 110.408 Q273.786 110.84 275.948 112.539 Q278.14 114.237 279.468 117.016 Q282 122.389 282 131.838 Q282 141.071 279.653 146.104 Q276.226 153.454 268.66 153.454 Q265.819 153.454 262.917 152.002 Q260.045 150.551 258.223 147.062 Q255.382 141.843 255.382 131.838 M260.632 131.066 Q260.632 140.608 261.311 144.406 Q262.083 148.513 264.183 150.304 Q266.313 152.064 268.66 152.064 Q271.192 152.064 273.292 150.18 Q275.423 148.266 276.071 144.159 Q276.781 140.114 276.751 131.066 Q276.751 122.266 276.133 118.745 Q275.299 114.638 273.076 113.002 Q270.883 111.334 268.66 111.334 Q267.826 111.334 266.931 111.581 Q266.066 111.828 264.8 112.539 Q263.534 113.249 262.546 115.009 Q261.589 116.769 261.126 119.425 Q260.632 122.852 260.632 131.066 Z" fill="#000000" fill-rule="evenodd" fill-opacity="1" /><polyline clip-path="url(#clip351)" style="stroke:#000000; stroke-linecap:round; stroke-linejoin:round; stroke-width:3.6; stroke-opacity:1; fill:none" points="300,1575 300,1575 336,1575 300,1575 300,1517.4 318,1517.4 300,1517.4 300,1459.8 318,1459.8 300,1459.8 300,1402.2 318,1402.2 300,1402.2 300,1344.6 318,1344.6 300,1344.6 300,1287 336,1287 300,1287 300,1229.4 318,1229.4 300,1229.4 300,1171.8 318,1171.8 300,1171.8 300,1114.2 318,1114.2 300,1114.2 300,1056.6 318,1056.6 300,1056.6 300,999 336,999 300,999 300,941.4 318,941.4 300,941.4 300,883.8 318,883.8 300,883.8 300,826.2 318,826.2 300,826.2 300,768.6 318,768.6 300,768.6 300,711 336,711 300,711 300,653.4 318,653.4 300,653.4 300,595.8 318,595.8 300,595.8 300,538.2 318,538.2 300,538.2 300,480.6 318,480.6 300,480.6 300,423 336,423 300,423 300,365.4 318,365.4 300,365.4 300,307.8 318,307.8 300,307.8 300,250.2 318,250.2 300,250.2 300,192.6 318,192.6 300,192.6 300,135 336,135 300,135 "/>
<path clip-path="url(#clip351)" d="M286.691 1626.34 Q286.691 1617.05 289.038 1611.98 Q292.311 1604.45 300.031 1604.45 Q301.667 1604.45 303.366 1604.91 Q305.095 1605.34 307.257 1607.04 Q309.449 1608.74 310.777 1611.52 Q313.309 1616.89 313.309 1626.34 Q313.309 1635.58 310.962 1640.61 Q307.535 1647.96 299.969 1647.96 Q297.128 1647.96 294.226 1646.51 Q291.354 1645.05 289.532 1641.57 Q286.691 1636.35 286.691 1626.34 M291.941 1625.57 Q291.941 1635.11 292.62 1638.91 Q293.392 1643.02 295.492 1644.81 Q297.622 1646.57 299.969 1646.57 Q302.501 1646.57 304.601 1644.68 Q306.732 1642.77 307.38 1638.66 Q308.09 1634.62 308.059 1625.57 Q308.059 1616.77 307.442 1613.25 Q306.608 1609.14 304.385 1607.51 Q302.192 1605.84 299.969 1605.84 Q299.135 1605.84 298.24 1606.09 Q297.375 1606.33 296.109 1607.04 Q294.843 1607.75 293.855 1609.51 Q292.898 1611.27 292.435 1613.93 Q291.941 1617.36 291.941 1625.57 Z" fill="#000000" fill-rule="evenodd" fill-opacity="1" /><path clip-path="url(#clip351)" d="M736.646 1610.47 L736.646 1608.49 Q744.242 1608.49 748.164 1604.45 Q749.244 1604.45 749.43 1604.7 Q749.615 1604.94 749.615 1606.09 L749.615 1641.57 Q749.615 1643.45 750.541 1644.04 Q751.468 1644.62 755.513 1644.62 L757.52 1644.62 L757.52 1646.57 Q755.297 1646.38 747.268 1646.38 Q739.239 1646.38 737.047 1646.57 L737.047 1644.62 L739.054 1644.62 Q743.038 1644.62 743.995 1644.07 Q744.952 1643.48 744.952 1641.57 L744.952 1608.8 Q741.648 1610.47 736.646 1610.47 Z" fill="#000000" fill-rule="evenodd" fill-opacity="1" /><path clip-path="url(#clip351)" d="M765.116 1626.34 Q765.116 1617.05 767.463 1611.98 Q770.736 1604.45 778.456 1604.45 Q780.093 1604.45 781.791 1604.91 Q783.52 1605.34 785.682 1607.04 Q787.874 1608.74 789.202 1611.52 Q791.734 1616.89 791.734 1626.34 Q791.734 1635.58 789.387 1640.61 Q785.96 1647.96 778.394 1647.96 Q775.553 1647.96 772.651 1646.51 Q769.779 1645.05 767.957 1641.57 Q765.116 1636.35 765.116 1626.34 M770.366 1625.57 Q770.366 1635.11 771.045 1638.91 Q771.817 1643.02 773.917 1644.81 Q776.047 1646.57 778.394 1646.57 Q780.926 1646.57 783.026 1644.68 Q785.157 1642.77 785.805 1638.66 Q786.516 1634.62 786.485 1625.57 Q786.485 1616.77 785.867 1613.25 Q785.033 1609.14 782.81 1607.51 Q780.618 1605.84 778.394 1605.84 Q777.561 1605.84 776.665 1606.09 Q775.8 1606.33 774.534 1607.04 Q773.268 1607.75 772.28 1609.51 Q771.323 1611.27 770.86 1613.93 Q770.366 1617.36 770.366 1625.57 Z" fill="#000000" fill-rule="evenodd" fill-opacity="1" /><path clip-path="url(#clip351)" d="M796.737 1626.34 Q796.737 1617.05 799.083 1611.98 Q802.357 1604.45 810.076 1604.45 Q811.713 1604.45 813.411 1604.91 Q815.141 1605.34 817.302 1607.04 Q819.494 1608.74 820.822 1611.52 Q823.354 1616.89 823.354 1626.34 Q823.354 1635.58 821.008 1640.61 Q817.58 1647.96 810.015 1647.96 Q807.174 1647.96 804.271 1646.51 Q801.399 1645.05 799.577 1641.57 Q796.737 1636.35 796.737 1626.34 M801.986 1625.57 Q801.986 1635.11 802.665 1638.91 Q803.437 1643.02 805.537 1644.81 Q807.668 1646.57 810.015 1646.57 Q812.547 1646.57 814.646 1644.68 Q816.777 1642.77 817.426 1638.66 Q818.136 1634.62 818.105 1625.57 Q818.105 1616.77 817.487 1613.25 Q816.654 1609.14 814.43 1607.51 Q812.238 1605.84 810.015 1605.84 Q809.181 1605.84 808.285 1606.09 Q807.421 1606.33 806.155 1607.04 Q804.889 1607.75 803.901 1609.51 Q802.943 1611.27 802.48 1613.93 Q801.986 1617.36 801.986 1625.57 Z" fill="#000000" fill-rule="evenodd" fill-opacity="1" /><path clip-path="url(#clip351)" d="M1215.41 1646.57 Q1215.41 1645.43 1215.5 1645.09 Q1215.63 1644.75 1216.12 1644.22 L1228.26 1630.7 Q1234.9 1623.22 1234.9 1616.71 Q1234.9 1612.48 1232.67 1609.45 Q1230.48 1606.43 1226.43 1606.43 Q1223.66 1606.43 1221.31 1608.12 Q1218.96 1609.82 1217.88 1612.85 Q1218.07 1612.79 1218.71 1612.79 Q1220.29 1612.79 1221.15 1613.77 Q1222.05 1614.76 1222.05 1616.09 Q1222.05 1617.79 1220.94 1618.62 Q1219.86 1619.43 1218.78 1619.43 Q1218.34 1619.43 1217.76 1619.33 Q1217.2 1619.24 1216.31 1618.38 Q1215.41 1617.48 1215.41 1615.9 Q1215.41 1611.49 1218.75 1607.97 Q1222.11 1604.45 1227.24 1604.45 Q1233.04 1604.45 1236.84 1607.91 Q1240.67 1611.33 1240.67 1616.71 Q1240.67 1618.59 1240.08 1620.32 Q1239.53 1622.02 1238.76 1623.35 Q1238.01 1624.67 1235.98 1626.81 Q1233.94 1628.94 1232.3 1630.45 Q1230.66 1631.96 1226.99 1635.17 L1220.29 1641.69 L1231.68 1641.69 Q1237.24 1641.69 1237.67 1641.2 Q1238.29 1640.3 1239.06 1635.58 L1240.67 1635.58 L1238.88 1646.57 L1215.41 1646.57 Z" fill="#000000" fill-rule="evenodd" fill-opacity="1" /><path clip-path="url(#clip351)" d="M1246.35 1626.34 Q1246.35 1617.05 1248.7 1611.98 Q1251.97 1604.45 1259.69 1604.45 Q1261.33 1604.45 1263.03 1604.91 Q1264.76 1605.34 1266.92 1607.04 Q1269.11 1608.74 1270.44 1611.52 Q1272.97 1616.89 1272.97 1626.34 Q1272.97 1635.58 1270.62 1640.61 Q1267.19 1647.96 1259.63 1647.96 Q1256.79 1647.96 1253.89 1646.51 Q1251.01 1645.05 1249.19 1641.57 Q1246.35 1636.35 1246.35 1626.34 M1251.6 1625.57 Q1251.6 1635.11 1252.28 1638.91 Q1253.05 1643.02 1255.15 1644.81 Q1257.28 1646.57 1259.63 1646.57 Q1262.16 1646.57 1264.26 1644.68 Q1266.39 1642.77 1267.04 1638.66 Q1267.75 1634.62 1267.72 1625.57 Q1267.72 1616.77 1267.1 1613.25 Q1266.27 1609.14 1264.05 1607.51 Q1261.85 1605.84 1259.63 1605.84 Q1258.8 1605.84 1257.9 1606.09 Q1257.04 1606.33 1255.77 1607.04 Q1254.5 1607.75 1253.52 1609.51 Q1252.56 1611.27 1252.09 1613.93 Q1251.6 1617.36 1251.6 1625.57 Z" fill="#000000" fill-rule="evenodd" fill-opacity="1" /><path clip-path="url(#clip351)" d="M1277.97 1626.34 Q1277.97 1617.05 1280.32 1611.98 Q1283.59 1604.45 1291.31 1604.45 Q1292.95 1604.45 1294.65 1604.91 Q1296.38 1605.34 1298.54 1607.04 Q1300.73 1608.74 1302.06 1611.52 Q1304.59 1616.89 1304.59 1626.34 Q1304.59 1635.58 1302.24 1640.61 Q1298.82 1647.96 1291.25 1647.96 Q1288.41 1647.96 1285.51 1646.51 Q1282.63 1645.05 1280.81 1641.57 Q1277.97 1636.35 1277.97 1626.34 M1283.22 1625.57 Q1283.22 1635.11 1283.9 1638.91 Q1284.67 1643.02 1286.77 1644.81 Q1288.9 1646.57 1291.25 1646.57 Q1293.78 1646.57 1295.88 1644.68 Q1298.01 1642.77 1298.66 1638.66 Q1299.37 1634.62 1299.34 1625.57 Q1299.34 1616.77 1298.72 1613.25 Q1297.89 1609.14 1295.67 1607.51 Q1293.47 1605.84 1291.25 1605.84 Q1290.42 1605.84 1289.52 1606.09 Q1288.66 1606.33 1287.39 1607.04 Q1286.12 1607.75 1285.14 1609.51 Q1284.18 1611.27 1283.72 1613.93 Q1283.22 1617.36 1283.22 1625.57 Z" fill="#000000" fill-rule="evenodd" fill-opacity="1" /><path clip-path="url(#clip351)" d="M1695.16 1638.05 Q1695.16 1636.16 1696.24 1635.27 Q1697.32 1634.37 1698.71 1634.37 Q1700.17 1634.37 1701.18 1635.33 Q1702.23 1636.25 1702.23 1637.89 Q1702.23 1639.65 1701 1640.64 Q1699.8 1641.63 1698.07 1641.38 Q1699.58 1643.91 1702.36 1645.05 Q1705.17 1646.2 1707.76 1646.2 Q1710.48 1646.2 1712.67 1643.85 Q1714.9 1641.5 1714.9 1635.76 Q1714.9 1630.88 1712.98 1628.07 Q1711.1 1625.26 1707.36 1625.26 L1704.58 1625.26 Q1703.62 1625.26 1703.35 1625.17 Q1703.07 1625.08 1703.07 1624.55 Q1703.07 1623.93 1704.03 1623.81 Q1704.98 1623.81 1706.5 1623.62 Q1710.17 1623.5 1712.12 1620.32 Q1713.88 1617.36 1713.88 1613.13 Q1713.88 1609.27 1712.02 1607.66 Q1710.2 1606.02 1707.82 1606.02 Q1705.6 1606.02 1703.16 1606.95 Q1700.72 1607.88 1699.39 1609.95 Q1703.32 1609.95 1703.32 1613.13 Q1703.32 1614.52 1702.42 1615.44 Q1701.56 1616.34 1700.1 1616.34 Q1698.71 1616.34 1697.79 1615.47 Q1696.86 1614.58 1696.86 1613.06 Q1696.86 1609.45 1700.07 1606.95 Q1703.32 1604.45 1708.07 1604.45 Q1712.76 1604.45 1716.22 1606.92 Q1719.71 1609.39 1719.71 1613.19 Q1719.71 1616.92 1717.24 1619.98 Q1714.77 1623.04 1710.85 1624.3 Q1715.67 1625.26 1718.54 1628.53 Q1721.41 1631.78 1721.41 1635.76 Q1721.41 1640.7 1717.52 1644.34 Q1713.63 1647.96 1707.95 1647.96 Q1702.7 1647.96 1698.93 1645.12 Q1695.16 1642.28 1695.16 1638.05 Z" fill="#000000" fill-rule="evenodd" fill-opacity="1" /><path clip-path="url(#clip351)" d="M1726.6 1626.34 Q1726.6 1617.05 1728.95 1611.98 Q1732.22 1604.45 1739.94 1604.45 Q1741.57 1604.45 1743.27 1604.91 Q1745 1605.34 1747.16 1607.04 Q1749.36 1608.74 1750.68 1611.52 Q1753.22 1616.89 1753.22 1626.34 Q1753.22 1635.58 1750.87 1640.61 Q1747.44 1647.96 1739.88 1647.96 Q1737.04 1647.96 1734.13 1646.51 Q1731.26 1645.05 1729.44 1641.57 Q1726.6 1636.35 1726.6 1626.34 M1731.85 1625.57 Q1731.85 1635.11 1732.53 1638.91 Q1733.3 1643.02 1735.4 1644.81 Q1737.53 1646.57 1739.88 1646.57 Q1742.41 1646.57 1744.51 1644.68 Q1746.64 1642.77 1747.29 1638.66 Q1748 1634.62 1747.97 1625.57 Q1747.97 1616.77 1747.35 1613.25 Q1746.52 1609.14 1744.29 1607.51 Q1742.1 1605.84 1739.88 1605.84 Q1739.04 1605.84 1738.15 1606.09 Q1737.28 1606.33 1736.02 1607.04 Q1734.75 1607.75 1733.76 1609.51 Q1732.81 1611.27 1732.34 1613.93 Q1731.85 1617.36 1731.85 1625.57 Z" fill="#000000" fill-rule="evenodd" fill-opacity="1" /><path clip-path="url(#clip351)" d="M1758.22 1626.34 Q1758.22 1617.05 1760.57 1611.98 Q1763.84 1604.45 1771.56 1604.45 Q1773.2 1604.45 1774.89 1604.91 Q1776.62 1605.34 1778.78 1607.04 Q1780.98 1608.74 1782.3 1611.52 Q1784.84 1616.89 1784.84 1626.34 Q1784.84 1635.58 1782.49 1640.61 Q1779.06 1647.96 1771.5 1647.96 Q1768.66 1647.96 1765.75 1646.51 Q1762.88 1645.05 1761.06 1641.57 Q1758.22 1636.35 1758.22 1626.34 M1763.47 1625.57 Q1763.47 1635.11 1764.15 1638.91 Q1764.92 1643.02 1767.02 1644.81 Q1769.15 1646.57 1771.5 1646.57 Q1774.03 1646.57 1776.13 1644.68 Q1778.26 1642.77 1778.91 1638.66 Q1779.62 1634.62 1779.59 1625.57 Q1779.59 1616.77 1778.97 1613.25 Q1778.14 1609.14 1775.91 1607.51 Q1773.72 1605.84 1771.5 1605.84 Q1770.66 1605.84 1769.77 1606.09 Q1768.9 1606.33 1767.64 1607.04 Q1766.37 1607.75 1765.38 1609.51 Q1764.43 1611.27 1763.96 1613.93 Q1763.47 1617.36 1763.47 1625.57 Z" fill="#000000" fill-rule="evenodd" fill-opacity="1" /><path clip-path="url(#clip351)" d="M2174.72 1636.13 L2174.72 1634.19 L2194.14 1604.51 Q2194.63 1603.74 2195.4 1603.77 Q2196.11 1603.77 2196.27 1604.05 Q2196.42 1604.33 2196.42 1605.41 L2196.42 1634.19 L2202.75 1634.19 L2202.75 1636.13 L2196.42 1636.13 L2196.42 1641.63 Q2196.42 1643.45 2197.16 1644.04 Q2197.94 1644.62 2201.21 1644.62 L2202.54 1644.62 L2202.54 1646.57 Q2199.94 1646.38 2193.95 1646.38 Q2187.99 1646.38 2185.4 1646.57 L2185.4 1644.62 L2186.73 1644.62 Q2190 1644.62 2190.77 1644.07 Q2191.54 1643.48 2191.54 1641.63 L2191.54 1636.13 L2174.72 1636.13 M2176.51 1634.19 L2191.92 1634.19 L2191.92 1610.59 L2176.51 1634.19 Z" fill="#000000" fill-rule="evenodd" fill-opacity="1" /><path clip-path="url(#clip351)" d="M2207.05 1626.34 Q2207.05 1617.05 2209.39 1611.98 Q2212.67 1604.45 2220.39 1604.45 Q2222.02 1604.45 2223.72 1604.91 Q2225.45 1605.34 2227.61 1607.04 Q2229.8 1608.74 2231.13 1611.52 Q2233.66 1616.89 2233.66 1626.34 Q2233.66 1635.58 2231.32 1640.61 Q2227.89 1647.96 2220.32 1647.96 Q2217.48 1647.96 2214.58 1646.51 Q2211.71 1645.05 2209.89 1641.57 Q2207.05 1636.35 2207.05 1626.34 M2212.3 1625.57 Q2212.3 1635.11 2212.97 1638.91 Q2213.75 1643.02 2215.85 1644.81 Q2217.98 1646.57 2220.32 1646.57 Q2222.86 1646.57 2224.96 1644.68 Q2227.09 1642.77 2227.74 1638.66 Q2228.45 1634.62 2228.41 1625.57 Q2228.41 1616.77 2227.8 1613.25 Q2226.96 1609.14 2224.74 1607.51 Q2222.55 1605.84 2220.32 1605.84 Q2219.49 1605.84 2218.59 1606.09 Q2217.73 1606.33 2216.46 1607.04 Q2215.2 1607.75 2214.21 1609.51 Q2213.25 1611.27 2212.79 1613.93 Q2212.3 1617.36 2212.3 1625.57 Z" fill="#000000" fill-rule="evenodd" fill-opacity="1" /><path clip-path="url(#clip351)" d="M2238.67 1626.34 Q2238.67 1617.05 2241.01 1611.98 Q2244.29 1604.45 2252.01 1604.45 Q2253.64 1604.45 2255.34 1604.91 Q2257.07 1605.34 2259.23 1607.04 Q2261.42 1608.74 2262.75 1611.52 Q2265.28 1616.89 2265.28 1626.34 Q2265.28 1635.58 2262.94 1640.61 Q2259.51 1647.96 2251.94 1647.96 Q2249.1 1647.96 2246.2 1646.51 Q2243.33 1645.05 2241.51 1641.57 Q2238.67 1636.35 2238.67 1626.34 M2243.92 1625.57 Q2243.92 1635.11 2244.6 1638.91 Q2245.37 1643.02 2247.47 1644.81 Q2249.6 1646.57 2251.94 1646.57 Q2254.48 1646.57 2256.58 1644.68 Q2258.71 1642.77 2259.36 1638.66 Q2260.07 1634.62 2260.03 1625.57 Q2260.03 1616.77 2259.42 1613.25 Q2258.58 1609.14 2256.36 1607.51 Q2254.17 1605.84 2251.94 1605.84 Q2251.11 1605.84 2250.22 1606.09 Q2249.35 1606.33 2248.08 1607.04 Q2246.82 1607.75 2245.83 1609.51 Q2244.87 1611.27 2244.41 1613.93 Q2243.92 1617.36 2243.92 1625.57 Z" fill="#000000" fill-rule="evenodd" fill-opacity="1" /><polyline clip-path="url(#clip351)" style="stroke:#000000; stroke-linecap:round; stroke-linejoin:round; stroke-width:3.6; stroke-opacity:1; fill:none" points="300,1575 300,1575 300,1539 300,1575 396,1575 396,1557 396,1575 492,1575 492,1557 492,1575 588,1575 588,1557 588,1575 684,1575 684,1557 684,1575 780,1575 780,1539 780,1575 876,1575 876,1557 876,1575 972,1575 972,1557 972,1575 1068,1575 1068,1557 1068,1575 1164,1575 1164,1557 1164,1575 1260,1575 1260,1539 1260,1575 1356,1575 1356,1557 1356,1575 1452,1575 1452,1557 1452,1575 1548,1575 1548,1557 1548,1575 1644,1575 1644,1557 1644,1575 1740,1575 1740,1539 1740,1575 1836,1575 1836,1557 1836,1575 1932,1575 1932,1557 1932,1575 2028,1575 2028,1557 2028,1575 2124,1575 2124,1557 2124,1575 2220,1575 2220,1539 2220,1575 "/>
<polyline clip-path="url(#clip351)" style="stroke:#000000; stroke-linecap:round; stroke-linejoin:round; stroke-width:3.6; stroke-opacity:1; fill:none" points="2220,1575 2220,1575 2184,1575 2220,1575 2220,1517.4 2202,1517.4 2220,1517.4 2220,1459.8 2202,1459.8 2220,1459.8 2220,1402.2 2202,1402.2 2220,1402.2 2220,1344.6 2202,1344.6 2220,1344.6 2220,1287 2184,1287 2220,1287 2220,1229.4 2202,1229.4 2220,1229.4 2220,1171.8 2202,1171.8 2220,1171.8 2220,1114.2 2202,1114.2 2220,1114.2 2220,1056.6 2202,1056.6 2220,1056.6 2220,999 2184,999 2220,999 2220,941.4 2202,941.4 2220,941.4 2220,883.8 2202,883.8 2220,883.8 2220,826.2 2202,826.2 2220,826.2 2220,768.6 2202,768.6 2220,768.6 2220,711 2184,711 2220,711 2220,653.4 2202,653.4 2220,653.4 2220,595.8 2202,595.8 2220,595.8 2220,538.2 2202,538.2 2220,538.2 2220,480.6 2202,480.6 2220,480.6 2220,423 2184,423 2220,423 2220,365.4 2202,365.4 2220,365.4 2220,307.8 2202,307.8 2220,307.8 2220,250.2 2202,250.2 2220,250.2 2220,192.6 2202,192.6 2220,192.6 2220,135 2184,135 2220,135 "/>
<polyline clip-path="url(#clip351)" style="stroke:#000000; stroke-linecap:round; stroke-linejoin:round; stroke-width:3.6; stroke-opacity:1; fill:none" points="300,135 300,135 300,171 300,135 396,135 396,153 396,135 492,135 492,153 492,135 588,135 588,153 588,135 684,135 684,153 684,135 780,135 780,171 780,135 876,135 876,153 876,135 972,135 972,153 972,135 1068,135 1068,153 1068,135 1164,135 1164,153 1164,135 1260,135 1260,171 1260,135 1356,135 1356,153 1356,135 1452,135 1452,153 1452,135 1548,135 1548,153 1548,135 1644,135 1644,153 1644,135 1740,135 1740,171 1740,135 1836,135 1836,153 1836,135 1932,135 1932,153 1932,135 2028,135 2028,153 2028,135 2124,135 2124,153 2124,135 2220,135 2220,171 2220,135 "/>
<polyline clip-path="url(#clip350)" style="stroke:#00528a; stroke-linecap:round; stroke-linejoin:round; stroke-width:3.6; stroke-opacity:1; fill:none" points="304.8,240.67 309.6,1336.75 314.4,1378.14 319.2,1421.12 324,1449.71 328.8,1457.32 333.6,1469.54 338.4,1483.53 343.2,1495.03 348,1504.27 352.8,1508.08 357.6,1508.41 362.4,1510.56 367.2,1513.87 372,1516.14 376.8,1516.81 381.6,1519.01 386.4,1521.16 391.2,1522.55 396,1524.23 400.8,1528.04 405.6,1528.18 410.4,1529.38 415.2,1530.08 420,1531.8 424.8,1532.11 429.6,1532.99 434.4,1533.64 439.2,1535.15 444,1536.27 448.8,1536.87 453.6,1537.2 458.4,1538.43 463.2,1539.46 468,1540.03 472.8,1540.77 477.6,1541.05 482.4,1541.71 487.2,1542.17 492,1542.81 496.8,1543.04 501.6,1543.59 506.4,1544.01 511.2,1544.31 516,1544.75 520.8,1545.35 525.6,1545.81 530.4,1546.05 535.2,1546.55 540,1547.2 544.8,1547.29 549.6,1547.95 554.4,1548.26 559.2,1548.3 564,1548.44 568.8,1548.91 573.6,1549.6 578.4,1549.82 583.2,1550.07 588,1550.37 592.8,1550.62 597.6,1550.71 602.4,1551.2 607.2,1551.57 612,1551.73 616.8,1552.08 621.6,1552.29 626.4,1552.53 631.2,1552.66 636,1553.04 640.8,1553.32 645.6,1553.49 650.4,1553.79 655.2,1553.93 660,1554.02 664.8,1554.13 669.6,1554.3 674.4,1554.53 679.2,1554.93 684,1555 688.8,1555.09 693.6,1555.34 698.4,1555.51 703.2,1555.56 708,1556.03 712.8,1556.15 717.6,1556.27 722.4,1556.4 727.2,1556.46 732,1556.77 736.8,1556.98 741.6,1557.18 746.4,1557.33 751.2,1557.36 756,1557.53 760.8,1557.64 765.6,1557.85 770.4,1558.07 775.2,1558.24 780,1558.35 784.8,1558.44 789.6,1558.67 794.4,1558.78 799.2,1558.84 804,1559.05 808.8,1559.13 813.6,1559.29 818.4,1559.48 823.2,1559.58 828,1559.62 832.8,1559.79 837.6,1559.99 842.4,1560.04 847.2,1560.12 852,1560.36 856.8,1560.49 861.6,1560.56 866.4,1560.76 871.2,1560.82 876,1560.94 880.8,1561.02 885.6,1561.06 890.4,1561.21 895.2,1561.34 900,1561.44 904.8,1561.5 909.6,1561.67 914.4,1561.89 919.2,1561.96 924,1562.01 928.8,1562.12 933.6,1562.24 938.4,1562.34 943.2,1562.5 948,1562.63 952.8,1562.67 957.6,1562.78 962.4,1562.85 967.2,1562.98 972,1563.06 976.8,1563.25 981.6,1563.32 986.4,1563.34 991.2,1563.49 996,1563.55 1000.8,1563.65 1005.6,1563.74 1010.4,1563.78 1015.2,1563.89 1020,1564.04 1024.8,1564.15 1029.6,1564.22 1034.4,1564.28 1039.2,1564.39 1044,1564.42 1048.8,1564.46 1053.6,1564.58 1058.4,1564.65 1063.2,1564.76 1068,1564.8 1072.8,1564.95 1077.6,1564.99 1082.4,1565.11 1087.2,1565.15 1092,1565.19 1096.8,1565.3 1101.6,1565.36 1106.4,1565.44 1111.2,1565.56 1116,1565.6 1120.8,1565.67 1125.6,1565.71 1130.4,1565.77 1135.2,1565.86 1140,1565.95 1144.8,1566.07 1149.6,1566.19 1154.4,1566.23 1159.2,1566.34 1164,1566.39 1168.8,1566.5 1173.6,1566.58 1178.4,1566.64 1183.2,1566.7 1188,1566.82 1192.8,1566.92 1197.6,1567 1202.4,1567.08 1207.2,1567.15 1212,1567.22 1216.8,1567.27 1221.6,1567.41 1226.4,1567.42 1231.2,1567.49 1236,1567.52 1240.8,1567.57 1245.6,1567.66 1250.4,1567.72 1255.2,1567.76 1260,1567.83 1264.8,1567.9 1269.6,1568.02 1274.4,1568.08 1279.2,1568.1 1284,1568.19 1288.8,1568.22 1293.6,1568.24 1298.4,1568.34 1303.2,1568.47 1308,1568.5 1312.8,1568.55 1317.6,1568.67 1322.4,1568.74 1327.2,1568.75 1332,1568.81 1336.8,1568.89 1341.6,1568.92 1346.4,1569.03 1351.2,1569.05 1356,1569.1 1360.8,1569.12 1365.6,1569.18 1370.4,1569.24 1375.2,1569.3 1380,1569.39 1384.8,1569.44 1389.6,1569.54 1394.4,1569.58 1399.2,1569.62 1404,1569.69 1408.8,1569.77 1413.6,1569.8 1418.4,1569.87 1423.2,1569.92 1428,1569.97 1432.8,1570.01 1437.6,1570.13 1442.4,1570.18 1447.2,1570.27 1452,1570.31 1456.8,1570.35 1461.6,1570.37 1466.4,1570.42 1471.2,1570.52 1476,1570.56 1480.8,1570.64 1485.6,1570.72 1490.4,1570.78 1495.2,1570.82 1500,1570.88 1504.8,1570.97 1509.6,1571 1514.4,1571.07 1519.2,1571.09 1524,1571.19 1528.8,1571.24 1533.6,1571.26 1538.4,1571.32 1543.2,1571.38 1548,1571.43 1552.8,1571.5 1557.6,1571.59 1562.4,1571.65 1567.2,1571.69 1572,1571.73 1576.8,1571.79 1581.6,1571.81 1586.4,1571.88 1591.2,1571.94 1596,1571.96 1600.8,1572.01 1605.6,1572.19 1610.4,1572.25 1615.2,1572.32 1620,1572.35 1624.8,1572.45 1629.6,1572.51 1634.4,1572.52 1639.2,1572.65 1644,1572.86 1648.8,1572.89 1653.6,1573.02 1658.4,1573.07 1663.2,1573.21 1668,1573.34 1672.8,1573.54 1677.6,1573.81 1682.4,1574.01 1687.2,1574.22 1692,1574.37 1696.8,1574.44 1701.6,1574.49 1706.4,1574.49 1711.2,1574.54 1716,1574.6 1720.8,1574.61 1725.6,1574.68 1730.4,1574.68 1735.2,1574.72 1740,1574.75 1744.8,1574.75 1749.6,1574.78 1754.4,1574.78 1759.2,1574.8 1764,1574.81 1768.8,1574.82 1773.6,1574.83 1778.4,1574.84 1783.2,1574.84 1788,1574.85 1792.8,1574.85 1797.6,1574.86 1802.4,1574.86 1807.2,1574.87 1812,1574.88 1816.8,1574.88 1821.6,1574.89 1826.4,1574.89 1831.2,1574.89 1836,1574.9 1840.8,1574.9 1845.6,1574.91 1850.4,1574.91 1855.2,1574.91 1860,1574.92 1864.8,1574.92 1869.6,1574.93 1874.4,1574.93 1879.2,1574.93 1884,1574.94 1888.8,1574.94 1893.6,1574.94 1898.4,1574.95 1903.2,1574.96 "/>
<path clip-path="url(#clip351)" d="M1122.71 51.7165 L1122.71 39.056 Q1122.71 38.3458 1122.74 38.0988 Q1122.77 37.8517 1122.96 37.6664 Q1123.14 37.4812 1123.51 37.4812 Q1124.22 37.4812 1124.29 38.1296 Q1124.47 44.3981 1128.21 47.8566 Q1131.88 51.2842 1138.18 51.2842 Q1141.98 51.2842 1144.33 48.5668 Q1146.67 45.8186 1146.67 42.2366 Q1146.67 38.809 1144.7 36.4004 Q1143.86 35.3196 1142.81 34.6403 Q1141.79 33.9301 1141.15 33.7139 Q1140.53 33.4978 1139.32 33.189 Q1131.48 31.3053 1130.99 31.0892 Q1127.25 29.8231 1124.97 26.6426 Q1122.71 23.4311 1122.71 19.5095 Q1122.71 14.4453 1126.26 10.8633 Q1129.84 7.25044 1135.03 7.25044 Q1137.63 7.25044 1139.79 8.08417 Q1141.98 8.88703 1142.88 9.62813 Q1143.77 10.3692 1145.16 11.697 L1147.35 8.08417 Q1147.85 7.25044 1148.31 7.25044 Q1148.8 7.25044 1148.9 7.55923 Q1149.02 7.83714 1149.02 8.76352 L1149.02 21.4857 Q1149.02 22.196 1148.99 22.443 Q1148.96 22.69 1148.74 22.8444 Q1148.56 22.9988 1148.19 22.9988 Q1147.57 22.9988 1147.41 22.2577 Q1145.65 9.04143 1135.09 9.04143 Q1131.48 9.04143 1129.1 11.4809 Q1126.76 13.8895 1126.76 17.3171 Q1126.76 20.0962 1128.49 22.3812 Q1130.21 24.6354 1133.15 25.3456 L1141.24 27.291 Q1145.28 28.2483 1148 31.8303 Q1150.72 35.4123 1150.72 40.075 Q1150.72 45.448 1147.2 49.3388 Q1143.71 53.2296 1138.24 53.2296 Q1134.32 53.2296 1131.3 51.9326 Q1128.27 50.6357 1126.63 48.8138 Q1125.37 50.9136 1124.53 52.087 L1124.35 52.3958 Q1123.85 53.2296 1123.39 53.2296 Q1122.9 53.2296 1122.8 52.9208 Q1122.71 52.612 1122.71 51.7165 Z" fill="#000000" fill-rule="evenodd" fill-opacity="1" /><path clip-path="url(#clip351)" d="M1160.41 48.3815 Q1156.4 44.182 1156.4 38.1914 Q1156.4 32.1699 1160.35 27.8469 Q1164.31 23.4929 1170.11 23.4929 Q1173.97 23.4929 1176.87 25.3456 Q1179.78 27.1675 1179.78 30.2863 Q1179.78 31.6759 1178.94 32.4787 Q1178.14 33.2507 1176.87 33.2507 Q1175.55 33.2507 1174.74 32.4479 Q1173.97 31.6141 1173.97 30.3481 Q1173.97 29.7923 1174.16 29.2364 Q1174.34 28.6806 1175.02 28.0939 Q1175.73 27.5072 1176.93 27.4146 Q1174.68 25.0986 1170.3 25.0986 Q1170.23 25.0986 1170.17 25.0986 Q1166.96 25.0986 1164.31 28.1248 Q1161.65 31.1509 1161.65 38.0679 Q1161.65 41.6807 1162.51 44.3364 Q1163.41 46.9611 1164.86 48.3198 Q1166.31 49.6785 1167.73 50.3269 Q1169.15 50.9445 1170.54 50.9445 Q1176.75 50.9445 1178.85 44.3055 Q1179.03 43.6879 1179.65 43.6879 Q1180.49 43.6879 1180.49 44.3055 Q1180.49 44.6143 1180.24 45.4171 Q1179.99 46.22 1179.22 47.486 Q1178.45 48.7521 1177.34 49.8637 Q1176.26 50.9445 1174.31 51.7474 Q1172.4 52.5502 1169.99 52.5502 Q1164.43 52.5502 1160.41 48.3815 Z" fill="#000000" fill-rule="evenodd" fill-opacity="1" /><path clip-path="url(#clip351)" d="M1184.07 51.84 L1184.07 49.8946 Q1187.43 49.8946 1188.21 49.4932 Q1189.01 49.0609 1189.01 47.0228 L1189.01 30.0702 Q1189.01 27.7233 1188.17 27.1366 Q1187.37 26.5499 1184.07 26.5499 L1184.07 24.5737 L1192.87 23.8943 L1192.87 30.8421 Q1193.76 28.1248 1195.65 26.025 Q1197.56 23.8943 1200.65 23.8943 Q1202.69 23.8943 1203.99 25.0369 Q1205.31 26.1794 1205.31 27.7542 Q1205.31 29.1438 1204.45 29.854 Q1203.61 30.5334 1202.6 30.5334 Q1201.45 30.5334 1200.65 29.8231 Q1199.88 29.082 1199.88 27.816 Q1199.88 27.044 1200.22 26.4573 Q1200.59 25.8397 1200.87 25.6236 Q1201.14 25.4074 1201.33 25.3456 Q1201.21 25.2839 1200.65 25.2839 Q1197.16 25.2839 1195.15 28.7732 Q1193.18 32.2317 1193.18 37.1724 L1193.18 46.8993 Q1193.18 48.7212 1193.92 49.3079 Q1194.69 49.8946 1197.99 49.8946 L1199.32 49.8946 L1199.32 51.84 Q1196.79 51.6547 1191.29 51.6547 Q1190.52 51.6547 1189.32 51.6856 Q1188.11 51.7165 1186.54 51.7782 Q1184.96 51.84 1184.07 51.84 Z" fill="#000000" fill-rule="evenodd" fill-opacity="1" /><path clip-path="url(#clip351)" d="M1208.77 37.9135 Q1208.77 31.9538 1212.6 27.7233 Q1216.43 23.4929 1221.93 23.4929 Q1227.48 23.4929 1230.36 27.1058 Q1233.26 30.7186 1233.26 35.9063 Q1233.26 36.8636 1233.01 37.0489 Q1232.76 37.2341 1231.68 37.2341 L1214.02 37.2341 Q1214.02 43.6879 1215.94 46.7141 Q1218.59 50.9445 1223.07 50.9445 Q1223.69 50.9445 1224.43 50.821 Q1225.17 50.6975 1226.68 50.1725 Q1228.19 49.6167 1229.52 48.1654 Q1230.85 46.7141 1231.62 44.429 Q1231.81 43.5335 1232.42 43.5644 Q1233.26 43.5644 1233.26 44.3055 Q1233.26 44.8613 1232.64 46.1273 Q1232.05 47.3625 1230.91 48.8447 Q1229.77 50.3269 1227.55 51.4386 Q1225.35 52.5502 1222.7 52.5502 Q1217.14 52.5502 1212.94 48.3507 Q1208.77 44.1202 1208.77 37.9135 M1214.08 35.9063 L1229.09 35.9063 Q1229.09 34.5785 1228.84 33.0963 Q1228.63 31.6141 1227.95 29.5761 Q1227.3 27.5072 1225.75 26.2103 Q1224.21 24.9133 1221.93 24.9133 Q1220.91 24.9133 1219.8 25.3456 Q1218.71 25.778 1217.39 26.8278 Q1216.06 27.8777 1215.13 30.2554 Q1214.21 32.6331 1214.08 35.9063 Z" fill="#000000" fill-rule="evenodd" fill-opacity="1" /><path clip-path="url(#clip351)" d="M1236.84 37.9135 Q1236.84 31.9538 1240.67 27.7233 Q1244.5 23.4929 1250 23.4929 Q1255.55 23.4929 1258.43 27.1058 Q1261.33 30.7186 1261.33 35.9063 Q1261.33 36.8636 1261.08 37.0489 Q1260.83 37.2341 1259.75 37.2341 L1242.09 37.2341 Q1242.09 43.6879 1244 46.7141 Q1246.66 50.9445 1251.14 50.9445 Q1251.76 50.9445 1252.5 50.821 Q1253.24 50.6975 1254.75 50.1725 Q1256.26 49.6167 1257.59 48.1654 Q1258.92 46.7141 1259.69 44.429 Q1259.88 43.5335 1260.49 43.5644 Q1261.33 43.5644 1261.33 44.3055 Q1261.33 44.8613 1260.71 46.1273 Q1260.12 47.3625 1258.98 48.8447 Q1257.84 50.3269 1255.62 51.4386 Q1253.42 52.5502 1250.77 52.5502 Q1245.21 52.5502 1241.01 48.3507 Q1236.84 44.1202 1236.84 37.9135 M1242.15 35.9063 L1257.16 35.9063 Q1257.16 34.5785 1256.91 33.0963 Q1256.7 31.6141 1256.02 29.5761 Q1255.37 27.5072 1253.82 26.2103 Q1252.28 24.9133 1250 24.9133 Q1248.98 24.9133 1247.86 25.3456 Q1246.78 25.778 1245.46 26.8278 Q1244.13 27.8777 1243.2 30.2554 Q1242.28 32.6331 1242.15 35.9063 Z" fill="#000000" fill-rule="evenodd" fill-opacity="1" /><path clip-path="url(#clip351)" d="M1286.4 51.84 L1286.4 49.8946 L1287.91 49.8946 Q1291.34 49.8946 1292.11 49.3388 Q1292.92 48.7521 1292.92 46.8993 L1292.92 13.5807 Q1292.92 11.7588 1292.11 11.203 Q1291.31 10.6163 1287.91 10.6163 L1286.4 10.6163 L1286.4 8.64 L1308.73 8.64 Q1315.12 8.64 1319.38 12.1602 Q1323.64 15.6805 1323.64 20.405 Q1323.64 25.0986 1319.29 28.4953 Q1314.96 31.8612 1309.22 31.8612 L1298.54 31.8612 L1298.54 46.8993 Q1298.54 48.7212 1299.31 49.3079 Q1300.11 49.8946 1303.54 49.8946 L1305.05 49.8946 L1305.05 51.84 Q1302.83 51.6547 1295.7 51.6547 Q1288.63 51.6547 1286.4 51.84 M1298.35 30.2246 L1307.06 30.2246 Q1309.9 30.2246 1311.97 29.4217 Q1314.04 28.6188 1314.96 27.6616 Q1315.92 26.6735 1316.45 25.0986 Q1317 23.4929 1317.06 22.6283 Q1317.13 21.7328 1317.13 20.405 Q1317.13 19.0154 1317.06 18.1508 Q1317 17.2553 1316.45 15.6805 Q1315.92 14.0747 1314.96 13.1175 Q1314.04 12.1293 1311.97 11.3882 Q1309.93 10.6163 1307.06 10.6163 L1301.44 10.6163 Q1299.28 10.6163 1298.82 11.0486 Q1298.35 11.4809 1298.35 13.1484 L1298.35 30.2246 Z" fill="#000000" fill-rule="evenodd" fill-opacity="1" /><path clip-path="url(#clip351)" d="M1329.26 51.84 L1329.26 49.8946 Q1332.63 49.8946 1333.4 49.4932 Q1334.17 49.0609 1334.17 47.0228 L1334.17 14.1365 Q1334.17 11.7897 1333.34 11.203 Q1332.54 10.6163 1329.26 10.6163 L1329.26 8.64 L1338.34 7.96066 L1338.34 47.0228 Q1338.34 49.0609 1339.14 49.4932 Q1339.95 49.8946 1343.28 49.8946 L1343.28 51.84 Q1342.51 51.84 1340.9 51.7782 Q1339.3 51.7165 1338.12 51.6856 Q1336.95 51.6547 1336.27 51.6547 Q1335.53 51.6547 1329.26 51.84 Z" fill="#000000" fill-rule="evenodd" fill-opacity="1" /><path clip-path="url(#clip351)" d="M1350.6 48.4433 Q1346.43 44.3055 1346.43 38.3149 Q1346.43 32.2935 1350.51 27.9086 Q1354.61 23.4929 1360.48 23.4929 Q1366.22 23.4929 1370.33 27.8777 Q1374.47 32.2317 1374.47 38.3149 Q1374.47 44.2746 1370.3 48.4124 Q1366.16 52.5502 1360.42 52.5502 Q1354.8 52.5502 1350.6 48.4433 M1351.68 37.79 Q1351.68 43.9349 1353.29 46.7141 Q1355.76 50.9445 1360.48 50.9445 Q1362.83 50.9445 1364.77 49.6785 Q1366.75 48.4124 1367.83 46.2817 Q1369.22 43.5026 1369.22 37.79 Q1369.22 31.7068 1367.55 29.0203 Q1365.08 24.9133 1360.42 24.9133 Q1358.38 24.9133 1356.37 25.9941 Q1354.4 27.044 1353.19 29.1438 Q1351.68 31.9229 1351.68 37.79 Z" fill="#000000" fill-rule="evenodd" fill-opacity="1" /><path clip-path="url(#clip351)" d="M1377.5 26.5499 L1377.5 25.1604 Q1380.4 25.0369 1382.31 22.9988 Q1384.26 20.9299 1384.91 18.3978 Q1385.59 15.8657 1385.65 12.9322 L1387.22 12.9322 L1387.22 24.5737 L1396.27 24.5737 L1396.27 26.5499 L1387.22 26.5499 L1387.22 44.1202 Q1387.22 50.9445 1391.48 50.9445 Q1393.31 50.9445 1394.51 49.0918 Q1395.71 47.2081 1395.71 43.8732 L1395.71 40.3838 L1397.29 40.3838 L1397.29 43.9967 Q1397.29 47.4243 1395.71 49.9872 Q1394.14 52.5502 1391.02 52.5502 Q1389.88 52.5502 1388.74 52.2414 Q1387.62 51.9635 1386.14 51.2224 Q1384.69 50.4504 1383.76 48.5977 Q1382.87 46.7141 1382.87 43.9967 L1382.87 26.5499 L1377.5 26.5499 Z" fill="#000000" fill-rule="evenodd" fill-opacity="1" /><path clip-path="url(#clip351)" d="M1002.51 1765.32 L1002.51 1752.66 Q1002.51 1751.95 1002.54 1751.7 Q1002.58 1751.45 1002.76 1751.27 Q1002.95 1751.08 1003.32 1751.08 Q1004.03 1751.08 1004.09 1751.73 Q1004.27 1758 1008.01 1761.46 Q1011.68 1764.88 1017.98 1764.88 Q1021.78 1764.88 1024.13 1762.17 Q1026.48 1759.42 1026.48 1755.84 Q1026.48 1752.41 1024.5 1750 Q1023.67 1748.92 1022.62 1748.24 Q1021.6 1747.53 1020.95 1747.31 Q1020.33 1747.1 1019.13 1746.79 Q1011.28 1744.91 1010.79 1744.69 Q1007.05 1743.42 1004.77 1740.24 Q1002.51 1737.03 1002.51 1733.11 Q1002.51 1728.05 1006.06 1724.46 Q1009.65 1720.85 1014.83 1720.85 Q1017.43 1720.85 1019.59 1721.68 Q1021.78 1722.49 1022.68 1723.23 Q1023.57 1723.97 1024.96 1725.3 L1027.16 1721.68 Q1027.65 1720.85 1028.11 1720.85 Q1028.61 1720.85 1028.7 1721.16 Q1028.82 1721.44 1028.82 1722.36 L1028.82 1735.09 Q1028.82 1735.8 1028.79 1736.04 Q1028.76 1736.29 1028.54 1736.44 Q1028.36 1736.6 1027.99 1736.6 Q1027.37 1736.6 1027.22 1735.86 Q1025.46 1722.64 1014.9 1722.64 Q1011.28 1722.64 1008.91 1725.08 Q1006.56 1727.49 1006.56 1730.92 Q1006.56 1733.7 1008.29 1735.98 Q1010.02 1738.24 1012.95 1738.95 L1021.04 1740.89 Q1025.09 1741.85 1027.8 1745.43 Q1030.52 1749.01 1030.52 1753.68 Q1030.52 1759.05 1027 1762.94 Q1023.51 1766.83 1018.05 1766.83 Q1014.12 1766.83 1011.1 1765.53 Q1008.07 1764.24 1006.44 1762.41 Q1005.17 1764.51 1004.34 1765.69 L1004.15 1766 Q1003.66 1766.83 1003.19 1766.83 Q1002.7 1766.83 1002.61 1766.52 Q1002.51 1766.21 1002.51 1765.32 Z" fill="#000000" fill-rule="evenodd" fill-opacity="1" /><path clip-path="url(#clip351)" d="M1036.14 1765.44 L1036.14 1763.49 Q1039.51 1763.49 1040.28 1763.09 Q1041.05 1762.66 1041.05 1760.62 L1041.05 1743.61 Q1041.05 1741.26 1040.25 1740.71 Q1039.48 1740.15 1036.39 1740.15 L1036.39 1738.17 L1045.22 1737.49 L1045.22 1760.68 Q1045.22 1762.57 1045.9 1763.03 Q1046.58 1763.49 1049.67 1763.49 L1049.67 1765.44 Q1043.21 1765.25 1043.09 1765.25 Q1042.22 1765.25 1036.14 1765.44 M1038.8 1726.47 Q1038.8 1725.2 1039.75 1724.19 Q1040.74 1723.14 1042.13 1723.14 Q1043.52 1723.14 1044.51 1724.09 Q1045.5 1725.02 1045.5 1726.5 Q1045.5 1727.95 1044.51 1728.91 Q1043.52 1729.84 1042.13 1729.84 Q1040.68 1729.84 1039.72 1728.82 Q1038.8 1727.8 1038.8 1726.47 Z" fill="#000000" fill-rule="evenodd" fill-opacity="1" /><path clip-path="url(#clip351)" d="M1053.59 1765.44 L1053.59 1763.49 Q1056.95 1763.49 1057.73 1763.09 Q1058.5 1762.66 1058.5 1760.62 L1058.5 1743.67 Q1058.5 1741.32 1057.66 1740.74 Q1056.86 1740.15 1053.59 1740.15 L1053.59 1738.17 L1062.48 1737.49 L1062.48 1744.13 Q1065.45 1737.49 1071.84 1737.49 Q1076.59 1737.49 1078.48 1739.84 Q1079.87 1741.42 1080.14 1743.18 Q1080.45 1744.94 1080.45 1749.51 L1080.45 1761.58 Q1080.51 1762.91 1081.53 1763.22 Q1082.55 1763.49 1085.39 1763.49 L1085.39 1765.44 Q1078.94 1765.25 1078.29 1765.25 Q1077.8 1765.25 1071.16 1765.44 L1071.16 1763.49 Q1074.52 1763.49 1075.3 1763.09 Q1076.1 1762.66 1076.1 1760.62 L1076.1 1745.89 Q1076.1 1742.68 1075.11 1740.8 Q1074.12 1738.88 1071.41 1738.88 Q1068.13 1738.88 1065.51 1741.63 Q1062.88 1744.38 1062.88 1749.01 L1062.88 1760.62 Q1062.88 1762.66 1063.65 1763.09 Q1064.46 1763.49 1067.79 1763.49 L1067.79 1765.44 Q1061.34 1765.25 1060.72 1765.25 Q1060.23 1765.25 1053.59 1765.44 Z" fill="#000000" fill-rule="evenodd" fill-opacity="1" /><path clip-path="url(#clip351)" d="M1088.39 1770.44 Q1088.39 1768.4 1089.93 1766.64 Q1091.51 1764.88 1094.23 1764.11 Q1091.45 1762.35 1091.45 1758.49 Q1091.45 1755.53 1093.39 1753.24 Q1090.43 1750.77 1090.43 1746.73 Q1090.43 1742.99 1093.39 1740.24 Q1096.36 1737.49 1100.68 1737.49 Q1104.48 1737.49 1107.38 1739.78 Q1110.41 1736.81 1114.08 1736.78 Q1115.72 1736.78 1116.49 1737.8 Q1117.29 1738.82 1117.29 1739.9 Q1117.29 1740.86 1116.67 1741.32 Q1116.09 1741.79 1115.47 1741.79 Q1114.7 1741.79 1114.14 1741.29 Q1113.62 1740.77 1113.62 1739.96 Q1113.62 1738.64 1114.64 1738.24 Q1114.45 1738.17 1114.02 1738.17 Q1110.93 1738.17 1108.31 1740.64 Q1110.9 1743.05 1110.9 1746.79 Q1110.9 1750.53 1107.94 1753.27 Q1104.97 1756.02 1100.68 1756.02 Q1097.13 1756.02 1094.41 1754.05 Q1093.33 1755.31 1093.33 1757.04 Q1093.33 1758.62 1094.29 1759.85 Q1095.24 1761.09 1096.7 1761.27 Q1097.13 1761.33 1101.42 1761.33 Q1103.95 1761.33 1105.34 1761.39 Q1106.73 1761.46 1108.71 1761.89 Q1110.71 1762.29 1112.29 1763.09 Q1116.4 1765.38 1116.43 1770.32 Q1116.43 1773.93 1112.26 1776.19 Q1108.12 1778.47 1102.38 1778.47 Q1096.57 1778.47 1092.46 1776.16 Q1088.39 1773.87 1088.39 1770.44 M1091.69 1770.44 Q1091.69 1773.04 1094.75 1775.01 Q1097.81 1777.02 1102.44 1777.02 Q1106.98 1777.02 1110.04 1775.04 Q1113.12 1773.1 1113.12 1770.44 Q1113.12 1768.56 1112.04 1767.35 Q1110.96 1766.15 1108.74 1765.66 Q1106.55 1765.19 1105 1765.1 Q1103.46 1765.01 1100.62 1765.01 L1096.88 1765.01 Q1094.72 1765.13 1093.21 1766.71 Q1091.69 1768.28 1091.69 1770.44 M1095.15 1746.79 Q1095.15 1754.57 1100.68 1754.57 Q1103.46 1754.57 1105.16 1752.04 Q1106.18 1750.34 1106.18 1746.73 Q1106.18 1738.95 1100.68 1738.95 Q1097.9 1738.95 1096.17 1741.48 Q1095.15 1743.18 1095.15 1746.79 Z" fill="#000000" fill-rule="evenodd" fill-opacity="1" /><path clip-path="url(#clip351)" d="M1120.29 1740.15 L1120.29 1738.17 L1129.58 1737.49 L1129.58 1758.49 Q1129.58 1760.01 1129.71 1760.9 Q1129.83 1761.77 1130.32 1762.78 Q1130.85 1763.8 1132.02 1764.27 Q1133.23 1764.73 1135.14 1764.73 Q1138.57 1764.73 1140.67 1761.92 Q1142.8 1759.11 1142.8 1754.94 L1142.8 1743.67 Q1142.8 1741.32 1141.96 1740.74 Q1141.13 1740.15 1137.86 1740.15 L1137.86 1738.17 L1147.15 1737.49 L1147.15 1759.94 Q1147.15 1762.29 1147.95 1762.91 Q1148.79 1763.49 1152.09 1763.49 L1152.09 1765.44 L1142.98 1766.15 L1142.98 1760.44 Q1140.33 1766.12 1134.83 1766.15 Q1132.05 1766.15 1130.14 1765.44 Q1128.25 1764.73 1127.3 1763.87 Q1126.34 1762.97 1125.81 1761.27 Q1125.32 1759.57 1125.26 1758.52 Q1125.2 1757.47 1125.2 1755.44 L1125.2 1745.96 Q1125.2 1741.66 1124.58 1740.92 Q1123.96 1740.15 1120.29 1740.15 Z" fill="#000000" fill-rule="evenodd" fill-opacity="1" /><path clip-path="url(#clip351)" d="M1155.43 1765.44 L1155.43 1763.49 Q1158.79 1763.49 1159.57 1763.09 Q1160.34 1762.66 1160.34 1760.62 L1160.34 1727.74 Q1160.34 1725.39 1159.5 1724.8 Q1158.7 1724.22 1155.43 1724.22 L1155.43 1722.24 L1164.51 1721.56 L1164.51 1760.62 Q1164.51 1762.66 1165.31 1763.09 Q1166.11 1763.49 1169.45 1763.49 L1169.45 1765.44 Q1168.67 1765.44 1167.07 1765.38 Q1165.46 1765.32 1164.29 1765.29 Q1163.12 1765.25 1162.44 1765.25 Q1161.7 1765.25 1155.43 1765.44 Z" fill="#000000" fill-rule="evenodd" fill-opacity="1" /><path clip-path="url(#clip351)" d="M1173.49 1759.42 Q1173.49 1754.05 1179.82 1751.2 Q1183.62 1749.38 1191.46 1748.92 L1191.46 1746.6 Q1191.46 1742.68 1189.39 1740.61 Q1187.36 1738.51 1184.76 1738.51 Q1180.13 1738.51 1177.91 1741.42 Q1179.79 1741.48 1180.47 1742.43 Q1181.15 1743.36 1181.15 1744.32 Q1181.15 1745.58 1180.35 1746.42 Q1179.58 1747.22 1178.25 1747.22 Q1176.98 1747.22 1176.15 1746.45 Q1175.31 1745.65 1175.31 1744.26 Q1175.31 1741.17 1178.09 1739.13 Q1180.9 1737.09 1184.89 1737.09 Q1190.07 1737.09 1193.53 1740.58 Q1194.61 1741.66 1195.14 1743.05 Q1195.69 1744.44 1195.76 1745.37 Q1195.82 1746.26 1195.82 1748.06 L1195.82 1760.68 Q1195.82 1761.06 1195.94 1761.67 Q1196.06 1762.29 1196.62 1763.09 Q1197.21 1763.87 1198.16 1763.87 Q1200.45 1763.87 1200.42 1759.82 L1200.42 1756.27 L1202.02 1756.27 L1202.02 1759.82 Q1202.02 1763.19 1200.23 1764.51 Q1198.47 1765.81 1196.84 1765.81 Q1194.74 1765.81 1193.41 1764.27 Q1192.08 1762.72 1191.9 1760.62 Q1190.94 1763.03 1188.75 1764.61 Q1186.58 1766.15 1183.62 1766.15 Q1181.34 1766.15 1179.17 1765.56 Q1177.04 1765.01 1175.25 1763.43 Q1173.49 1761.83 1173.49 1759.42 M1178.37 1759.36 Q1178.37 1761.7 1180.04 1763.22 Q1181.71 1764.73 1184.05 1764.73 Q1186.71 1764.73 1189.09 1762.69 Q1191.46 1760.62 1191.46 1756.58 L1191.46 1750.25 Q1184.45 1750.49 1181.4 1753.3 Q1178.37 1756.08 1178.37 1759.36 Z" fill="#000000" fill-rule="evenodd" fill-opacity="1" /><path clip-path="url(#clip351)" d="M1204.22 1765.44 L1204.22 1763.49 Q1207.58 1763.49 1208.35 1763.09 Q1209.16 1762.66 1209.16 1760.62 L1209.16 1743.67 Q1209.16 1741.32 1208.32 1740.74 Q1207.52 1740.15 1204.22 1740.15 L1204.22 1738.17 L1213.02 1737.49 L1213.02 1744.44 Q1213.91 1741.72 1215.8 1739.62 Q1217.71 1737.49 1220.8 1737.49 Q1222.84 1737.49 1224.13 1738.64 Q1225.46 1739.78 1225.46 1741.35 Q1225.46 1742.74 1224.6 1743.45 Q1223.76 1744.13 1222.74 1744.13 Q1221.6 1744.13 1220.8 1743.42 Q1220.03 1742.68 1220.03 1741.42 Q1220.03 1740.64 1220.37 1740.06 Q1220.74 1739.44 1221.02 1739.22 Q1221.29 1739.01 1221.48 1738.95 Q1221.35 1738.88 1220.8 1738.88 Q1217.31 1738.88 1215.3 1742.37 Q1213.33 1745.83 1213.33 1750.77 L1213.33 1760.5 Q1213.33 1762.32 1214.07 1762.91 Q1214.84 1763.49 1218.14 1763.49 L1219.47 1763.49 L1219.47 1765.44 Q1216.94 1765.25 1211.44 1765.25 Q1210.67 1765.25 1209.47 1765.29 Q1208.26 1765.32 1206.69 1765.38 Q1205.11 1765.44 1204.22 1765.44 Z" fill="#000000" fill-rule="evenodd" fill-opacity="1" /><path clip-path="url(#clip351)" d="M1249.39 1724.22 L1249.39 1722.24 Q1256.22 1722.43 1257.42 1722.43 Q1264.18 1722.43 1266.47 1722.24 L1266.47 1724.22 Q1261.28 1724.22 1261.28 1726.04 Q1261.28 1726.29 1261.65 1727.18 L1273.73 1759.11 L1285.31 1728.63 Q1285.61 1727.67 1285.61 1727.37 Q1285.61 1726.1 1284.44 1725.2 Q1283.3 1724.28 1281.01 1724.22 L1281.01 1722.24 Q1285.95 1722.43 1288.21 1722.43 Q1291.42 1722.43 1294.35 1722.24 L1294.35 1724.22 Q1289.04 1724.28 1287.47 1728.45 L1273.36 1765.63 Q1273.11 1766.4 1272.86 1766.61 Q1272.61 1766.83 1271.84 1766.83 Q1271.22 1766.83 1270.88 1766.58 Q1270.58 1766.34 1270.27 1765.44 L1255.6 1726.62 Q1254.98 1724.93 1253.87 1724.59 Q1252.76 1724.22 1249.39 1724.22 Z" fill="#000000" fill-rule="evenodd" fill-opacity="1" /><path clip-path="url(#clip351)" d="M1293.03 1759.42 Q1293.03 1754.05 1299.36 1751.2 Q1303.15 1749.38 1311 1748.92 L1311 1746.6 Q1311 1742.68 1308.93 1740.61 Q1306.89 1738.51 1304.3 1738.51 Q1299.66 1738.51 1297.44 1741.42 Q1299.32 1741.48 1300 1742.43 Q1300.68 1743.36 1300.68 1744.32 Q1300.68 1745.58 1299.88 1746.42 Q1299.11 1747.22 1297.78 1747.22 Q1296.51 1747.22 1295.68 1746.45 Q1294.85 1745.65 1294.85 1744.26 Q1294.85 1741.17 1297.63 1739.13 Q1300.44 1737.09 1304.42 1737.09 Q1309.61 1737.09 1313.07 1740.58 Q1314.15 1741.66 1314.67 1743.05 Q1315.23 1744.44 1315.29 1745.37 Q1315.35 1746.26 1315.35 1748.06 L1315.35 1760.68 Q1315.35 1761.06 1315.47 1761.67 Q1315.6 1762.29 1316.15 1763.09 Q1316.74 1763.87 1317.7 1763.87 Q1319.98 1763.87 1319.95 1759.82 L1319.95 1756.27 L1321.56 1756.27 L1321.56 1759.82 Q1321.56 1763.19 1319.77 1764.51 Q1318.01 1765.81 1316.37 1765.81 Q1314.27 1765.81 1312.94 1764.27 Q1311.61 1762.72 1311.43 1760.62 Q1310.47 1763.03 1308.28 1764.61 Q1306.12 1766.15 1303.15 1766.15 Q1300.87 1766.15 1298.71 1765.56 Q1296.58 1765.01 1294.79 1763.43 Q1293.03 1761.83 1293.03 1759.42 M1297.9 1759.36 Q1297.9 1761.7 1299.57 1763.22 Q1301.24 1764.73 1303.59 1764.73 Q1306.24 1764.73 1308.62 1762.69 Q1311 1760.62 1311 1756.58 L1311 1750.25 Q1303.99 1750.49 1300.93 1753.3 Q1297.9 1756.08 1297.9 1759.36 Z" fill="#000000" fill-rule="evenodd" fill-opacity="1" /><path clip-path="url(#clip351)" d="M1324.09 1765.44 L1324.09 1763.49 Q1327.46 1763.49 1328.23 1763.09 Q1329 1762.66 1329 1760.62 L1329 1727.74 Q1329 1725.39 1328.17 1724.8 Q1327.36 1724.22 1324.09 1724.22 L1324.09 1722.24 L1333.17 1721.56 L1333.17 1760.62 Q1333.17 1762.66 1333.97 1763.09 Q1334.77 1763.49 1338.11 1763.49 L1338.11 1765.44 Q1337.34 1765.44 1335.73 1765.38 Q1334.13 1765.32 1332.95 1765.29 Q1331.78 1765.25 1331.1 1765.25 Q1330.36 1765.25 1324.09 1765.44 Z" fill="#000000" fill-rule="evenodd" fill-opacity="1" /><path clip-path="url(#clip351)" d="M1341.54 1740.15 L1341.54 1738.17 L1350.83 1737.49 L1350.83 1758.49 Q1350.83 1760.01 1350.95 1760.9 Q1351.08 1761.77 1351.57 1762.78 Q1352.1 1763.8 1353.27 1764.27 Q1354.47 1764.73 1356.39 1764.73 Q1359.82 1764.73 1361.92 1761.92 Q1364.05 1759.11 1364.05 1754.94 L1364.05 1743.67 Q1364.05 1741.32 1363.21 1740.74 Q1362.38 1740.15 1359.11 1740.15 L1359.11 1738.17 L1368.4 1737.49 L1368.4 1759.94 Q1368.4 1762.29 1369.2 1762.91 Q1370.04 1763.49 1373.34 1763.49 L1373.34 1765.44 L1364.23 1766.15 L1364.23 1760.44 Q1361.58 1766.12 1356.08 1766.15 Q1353.3 1766.15 1351.39 1765.44 Q1349.5 1764.73 1348.55 1763.87 Q1347.59 1762.97 1347.06 1761.27 Q1346.57 1759.57 1346.51 1758.52 Q1346.45 1757.47 1346.45 1755.44 L1346.45 1745.96 Q1346.45 1741.66 1345.83 1740.92 Q1345.21 1740.15 1341.54 1740.15 Z" fill="#000000" fill-rule="evenodd" fill-opacity="1" /><path clip-path="url(#clip351)" d="M1376.34 1751.51 Q1376.34 1745.55 1380.17 1741.32 Q1384 1737.09 1389.49 1737.09 Q1395.05 1737.09 1397.92 1740.71 Q1400.82 1744.32 1400.82 1749.51 Q1400.82 1750.46 1400.58 1750.65 Q1400.33 1750.83 1399.25 1750.83 L1381.59 1750.83 Q1381.59 1757.29 1383.5 1760.31 Q1386.16 1764.54 1390.63 1764.54 Q1391.25 1764.54 1391.99 1764.42 Q1392.73 1764.3 1394.25 1763.77 Q1395.76 1763.22 1397.09 1761.77 Q1398.42 1760.31 1399.19 1758.03 Q1399.37 1757.13 1399.99 1757.16 Q1400.82 1757.16 1400.82 1757.91 Q1400.82 1758.46 1400.21 1759.73 Q1399.62 1760.96 1398.48 1762.44 Q1397.34 1763.93 1395.11 1765.04 Q1392.92 1766.15 1390.26 1766.15 Q1384.71 1766.15 1380.51 1761.95 Q1376.34 1757.72 1376.34 1751.51 M1381.65 1749.51 L1396.66 1749.51 Q1396.66 1748.18 1396.41 1746.7 Q1396.19 1745.21 1395.51 1743.18 Q1394.86 1741.11 1393.32 1739.81 Q1391.78 1738.51 1389.49 1738.51 Q1388.47 1738.51 1387.36 1738.95 Q1386.28 1739.38 1384.95 1740.43 Q1383.62 1741.48 1382.7 1743.86 Q1381.77 1746.23 1381.65 1749.51 Z" fill="#000000" fill-rule="evenodd" fill-opacity="1" /><path clip-path="url(#clip351)" d="M1425.44 1765.44 L1425.44 1763.49 L1427.1 1763.49 Q1430.65 1763.49 1431.46 1762.94 Q1432.29 1762.35 1432.29 1760.5 L1432.29 1727.18 Q1432.29 1725.36 1431.46 1724.8 Q1430.62 1724.22 1427.1 1724.22 L1425.44 1724.22 L1425.44 1722.24 Q1427.66 1722.43 1435.13 1722.43 Q1442.54 1722.43 1444.73 1722.24 L1444.73 1724.22 L1443.1 1724.22 Q1439.55 1724.22 1438.71 1724.8 Q1437.91 1725.36 1437.91 1727.18 L1437.91 1760.5 Q1437.91 1762.32 1438.71 1762.91 Q1439.55 1763.49 1443.1 1763.49 L1444.73 1763.49 L1444.73 1765.44 Q1442.51 1765.25 1435.07 1765.25 Q1427.66 1765.25 1425.44 1765.44 Z" fill="#000000" fill-rule="evenodd" fill-opacity="1" /><path clip-path="url(#clip351)" d="M1448.72 1765.44 L1448.72 1763.49 L1450.23 1763.49 Q1453.66 1763.49 1454.43 1762.94 Q1455.23 1762.35 1455.23 1760.5 L1455.23 1727.18 Q1455.23 1725.36 1454.43 1724.8 Q1453.63 1724.22 1450.23 1724.22 L1448.72 1724.22 L1448.72 1722.24 L1471.85 1722.24 Q1479.94 1722.24 1485.56 1728.69 Q1491.21 1735.15 1491.21 1744.2 Q1491.21 1753.06 1485.53 1759.26 Q1479.88 1765.44 1471.85 1765.44 L1448.72 1765.44 M1460.67 1760.96 Q1460.67 1762.6 1461.13 1763.06 Q1461.59 1763.49 1463.76 1763.49 L1470.15 1763.49 Q1474.32 1763.49 1477.13 1761.8 Q1479.94 1760.07 1481.39 1758.09 Q1484.88 1753.34 1484.88 1744.2 Q1484.88 1734.59 1481.6 1730.08 Q1477.37 1724.22 1470.09 1724.22 L1463.76 1724.22 Q1461.59 1724.22 1461.13 1724.65 Q1460.67 1725.08 1460.67 1726.75 L1460.67 1760.96 Z" fill="#000000" fill-rule="evenodd" fill-opacity="1" /><path clip-path="url(#clip351)" d="M1496.83 1764.61 L1496.83 1756.27 Q1496.83 1755.56 1496.86 1755.31 Q1496.89 1755.06 1497.08 1754.88 Q1497.26 1754.69 1497.63 1754.69 Q1498.06 1754.69 1498.22 1754.88 Q1498.4 1755.06 1498.53 1755.77 Q1499.48 1760.13 1501.52 1762.44 Q1503.59 1764.73 1507.33 1764.73 Q1510.88 1764.73 1512.67 1763.15 Q1514.46 1761.58 1514.46 1758.99 Q1514.46 1754.35 1507.88 1753.18 Q1504.08 1752.41 1502.51 1751.91 Q1500.93 1751.39 1499.55 1750.25 Q1496.83 1748.02 1496.83 1744.87 Q1496.83 1741.72 1499.21 1739.41 Q1501.61 1737.09 1506.93 1737.09 Q1510.48 1737.09 1512.89 1738.88 Q1513.6 1738.33 1513.97 1737.86 Q1514.8 1737.09 1515.23 1737.09 Q1515.73 1737.09 1515.82 1737.43 Q1515.91 1737.74 1515.91 1738.64 L1515.91 1745 Q1515.91 1745.71 1515.88 1745.96 Q1515.85 1746.2 1515.66 1746.39 Q1515.48 1746.54 1515.08 1746.54 Q1514.37 1746.54 1514.34 1745.96 Q1513.84 1738.3 1506.93 1738.3 Q1503.19 1738.3 1501.52 1739.75 Q1499.85 1741.17 1499.85 1743.11 Q1499.85 1744.2 1500.35 1745.03 Q1500.87 1745.83 1501.52 1746.33 Q1502.2 1746.79 1503.44 1747.25 Q1504.67 1747.68 1505.41 1747.84 Q1506.18 1747.99 1507.64 1748.3 Q1512.7 1749.26 1514.83 1751.33 Q1517.49 1753.98 1517.49 1757.35 Q1517.49 1761.09 1514.95 1763.62 Q1512.42 1766.15 1507.33 1766.15 Q1503.22 1766.15 1500.35 1763.4 Q1499.98 1763.77 1499.7 1764.11 Q1499.42 1764.42 1499.3 1764.54 Q1499.21 1764.67 1499.17 1764.76 Q1499.14 1764.82 1499.08 1764.88 Q1497.82 1766.15 1497.51 1766.15 Q1497.01 1766.15 1496.92 1765.81 Q1496.83 1765.5 1496.83 1764.61 Z" fill="#000000" fill-rule="evenodd" fill-opacity="1" /><path clip-path="url(#clip351)" d="M73.3165 1066.45 L60.656 1066.45 Q59.9458 1066.45 59.6988 1066.41 Q59.4517 1066.38 59.2664 1066.2 Q59.0812 1066.01 59.0812 1065.64 Q59.0812 1064.93 59.7296 1064.87 Q65.9981 1064.69 69.4566 1060.95 Q72.8842 1057.27 72.8842 1050.97 Q72.8842 1047.18 70.1668 1044.83 Q67.4186 1042.48 63.8366 1042.48 Q60.409 1042.48 58.0004 1044.46 Q56.9196 1045.29 56.2403 1046.34 Q55.5301 1047.36 55.3139 1048.01 Q55.0978 1048.63 54.789 1049.83 Q52.9053 1057.68 52.6892 1058.17 Q51.4231 1061.91 48.2426 1064.19 Q45.0311 1066.45 41.1095 1066.45 Q36.0453 1066.45 32.4633 1062.89 Q28.8504 1059.31 28.8504 1054.12 Q28.8504 1051.53 29.6842 1049.37 Q30.487 1047.18 31.2281 1046.28 Q31.9692 1045.39 33.297 1044 L29.6842 1041.8 Q28.8504 1041.31 28.8504 1040.85 Q28.8504 1040.35 29.1592 1040.26 Q29.4371 1040.14 30.3635 1040.14 L43.0857 1040.14 Q43.796 1040.14 44.043 1040.17 Q44.29 1040.2 44.4444 1040.41 Q44.5988 1040.6 44.5988 1040.97 Q44.5988 1041.59 43.8577 1041.74 Q30.6414 1043.5 30.6414 1054.06 Q30.6414 1057.68 33.0809 1060.05 Q35.4895 1062.4 38.9171 1062.4 Q41.6962 1062.4 43.9812 1060.67 Q46.2354 1058.94 46.9456 1056.01 L48.891 1047.92 Q49.8483 1043.87 53.4303 1041.16 Q57.0123 1038.44 61.675 1038.44 Q67.048 1038.44 70.9388 1041.96 Q74.8296 1045.45 74.8296 1050.91 Q74.8296 1054.83 73.5326 1057.86 Q72.2357 1060.89 70.4138 1062.52 Q72.5136 1063.79 73.687 1064.62 L73.9958 1064.81 Q74.8296 1065.3 74.8296 1065.77 Q74.8296 1066.26 74.5208 1066.35 Q74.212 1066.45 73.3165 1066.45 Z" fill="#000000" fill-rule="evenodd" fill-opacity="1" /><path clip-path="url(#clip351)" d="M73.44 1032.82 L71.4946 1032.82 Q71.4946 1029.45 71.0932 1028.68 Q70.6609 1027.91 68.6228 1027.91 L51.6084 1027.91 Q49.2616 1027.91 48.7058 1028.71 Q48.1499 1029.48 48.1499 1032.57 L46.1737 1032.57 L45.4943 1023.74 L68.6846 1023.74 Q70.5682 1023.74 71.0314 1023.06 Q71.4946 1022.38 71.4946 1019.29 L73.44 1019.29 Q73.2547 1025.75 73.2547 1025.87 Q73.2547 1026.73 73.44 1032.82 M34.4705 1030.16 Q33.2044 1030.16 32.1854 1029.21 Q31.1355 1028.22 31.1355 1026.83 Q31.1355 1025.44 32.0928 1024.45 Q33.0191 1023.46 34.5013 1023.46 Q35.9527 1023.46 36.9099 1024.45 Q37.8363 1025.44 37.8363 1026.83 Q37.8363 1028.28 36.8173 1029.24 Q35.7983 1030.16 34.4705 1030.16 Z" fill="#000000" fill-rule="evenodd" fill-opacity="1" /><path clip-path="url(#clip351)" d="M73.44 1015.37 L71.4946 1015.37 Q71.4946 1012.01 71.0932 1011.23 Q70.6609 1010.46 68.6228 1010.46 L51.6702 1010.46 Q49.3233 1010.46 48.7366 1011.3 Q48.1499 1012.1 48.1499 1015.37 L46.1737 1015.37 L45.4943 1006.48 L52.1334 1006.48 Q45.4943 1003.51 45.4943 997.122 Q45.4943 992.366 47.8411 990.482 Q49.416 989.093 51.1761 988.815 Q52.9362 988.506 57.5063 988.506 L69.5801 988.506 Q70.9079 988.444 71.2167 987.425 Q71.4946 986.406 71.4946 983.566 L73.44 983.566 Q73.2547 990.019 73.2547 990.668 Q73.2547 991.162 73.44 997.801 L71.4946 997.801 Q71.4946 994.435 71.0932 993.663 Q70.6609 992.86 68.6228 992.86 L53.8935 992.86 Q50.682 992.86 48.7984 993.848 Q46.8839 994.836 46.8839 997.554 Q46.8839 1000.83 49.6321 1003.45 Q52.3804 1006.08 57.0123 1006.08 L68.6228 1006.08 Q70.6609 1006.08 71.0932 1005.3 Q71.4946 1004.5 71.4946 1001.17 L73.44 1001.17 Q73.2547 1007.62 73.2547 1008.24 Q73.2547 1008.73 73.44 1015.37 Z" fill="#000000" fill-rule="evenodd" fill-opacity="1" /><path clip-path="url(#clip351)" d="M78.4424 980.57 Q76.4044 980.57 74.6443 979.026 Q72.8842 977.451 72.1122 974.734 Q70.3521 977.513 66.4922 977.513 Q63.5278 977.513 61.2427 975.568 Q58.7724 978.532 54.7272 978.532 Q50.9908 978.532 48.2426 975.568 Q45.4943 972.603 45.4943 968.28 Q45.4943 964.482 47.7794 961.58 Q44.815 958.553 44.7841 954.879 Q44.7841 953.242 45.8031 952.47 Q46.8221 951.667 47.9029 951.667 Q48.8602 951.667 49.3233 952.285 Q49.7865 952.872 49.7865 953.489 Q49.7865 954.261 49.2925 954.817 Q48.7675 955.342 47.9647 955.342 Q46.6369 955.342 46.2354 954.323 Q46.1737 954.508 46.1737 954.941 Q46.1737 958.028 48.644 960.653 Q51.0526 958.059 54.789 958.059 Q58.5253 958.059 61.2736 961.024 Q64.0218 963.988 64.0218 968.28 Q64.0218 971.831 62.0456 974.549 Q63.3116 975.63 65.0409 975.63 Q66.6157 975.63 67.8509 974.672 Q69.086 973.715 69.2713 972.264 Q69.3331 971.831 69.3331 967.539 Q69.3331 965.007 69.3948 963.618 Q69.4566 962.228 69.8889 960.252 Q70.2903 958.245 71.0932 956.67 Q73.3782 952.563 78.3189 952.532 Q81.9318 952.532 84.186 956.701 Q86.471 960.838 86.471 966.582 Q86.471 972.387 84.1551 976.494 Q81.87 980.57 78.4424 980.57 M78.4424 977.266 Q81.0363 977.266 83.0126 974.209 Q85.0197 971.152 85.0197 966.52 Q85.0197 961.981 83.0434 958.924 Q81.098 955.836 78.4424 955.836 Q76.5588 955.836 75.3545 956.917 Q74.1502 957.998 73.6562 960.221 Q73.193 962.413 73.1003 963.957 Q73.0077 965.501 73.0077 968.342 L73.0077 972.078 Q73.1312 974.24 74.706 975.753 Q76.2809 977.266 78.4424 977.266 M54.789 973.808 Q62.5705 973.808 62.5705 968.28 Q62.5705 965.501 60.0384 963.803 Q58.3401 962.784 54.7272 962.784 Q46.9456 962.784 46.9456 968.28 Q46.9456 971.059 49.4777 972.789 Q51.1761 973.808 54.789 973.808 Z" fill="#000000" fill-rule="evenodd" fill-opacity="1" /><path clip-path="url(#clip351)" d="M48.1499 948.672 L46.1737 948.672 L45.4943 939.377 L66.4922 939.377 Q68.0053 939.377 68.9008 939.254 Q69.7654 939.13 70.7844 938.636 Q71.8034 938.111 72.2666 936.938 Q72.7298 935.734 72.7298 933.819 Q72.7298 930.392 69.9198 928.292 Q67.1098 926.161 62.9411 926.161 L51.6702 926.161 Q49.3233 926.161 48.7366 926.995 Q48.1499 927.829 48.1499 931.102 L46.1737 931.102 L45.4943 921.807 L67.9435 921.807 Q70.2903 921.807 70.9079 921.004 Q71.4946 920.171 71.4946 916.866 L73.44 916.866 L74.1502 925.976 L68.4376 925.976 Q74.1193 928.631 74.1502 934.128 Q74.1502 936.907 73.44 938.822 Q72.7298 940.705 71.8652 941.662 Q70.9697 942.62 69.2713 943.145 Q67.573 943.639 66.5231 943.701 Q65.4732 943.762 63.4351 943.762 L53.9552 943.762 Q49.663 943.762 48.9219 944.38 Q48.1499 944.997 48.1499 948.672 Z" fill="#000000" fill-rule="evenodd" fill-opacity="1" /><path clip-path="url(#clip351)" d="M73.44 913.532 L71.4946 913.532 Q71.4946 910.166 71.0932 909.394 Q70.6609 908.622 68.6228 908.622 L35.7365 908.622 Q33.3897 908.622 32.803 909.455 Q32.2163 910.258 32.2163 913.532 L30.24 913.532 L29.5607 904.453 L68.6228 904.453 Q70.6609 904.453 71.0932 903.65 Q71.4946 902.847 71.4946 899.512 L73.44 899.512 Q73.44 900.284 73.3782 901.89 Q73.3165 903.496 73.2856 904.669 Q73.2547 905.843 73.2547 906.522 Q73.2547 907.263 73.44 913.532 Z" fill="#000000" fill-rule="evenodd" fill-opacity="1" /><path clip-path="url(#clip351)" d="M67.4186 895.467 Q62.0456 895.467 59.2047 889.137 Q57.3828 885.339 56.9196 877.495 L54.6037 877.495 Q50.682 877.495 48.6131 879.564 Q46.5133 881.602 46.5133 884.196 Q46.5133 888.828 49.416 891.051 Q49.4777 889.168 50.435 888.488 Q51.3614 887.809 52.3186 887.809 Q53.5847 887.809 54.4184 888.612 Q55.2213 889.384 55.2213 890.712 Q55.2213 891.978 54.4493 892.812 Q53.6464 893.645 52.2569 893.645 Q49.1689 893.645 47.1309 890.866 Q45.0929 888.056 45.0929 884.073 Q45.0929 878.885 48.5822 875.427 Q49.663 874.346 51.0526 873.821 Q52.4421 873.265 53.3685 873.203 Q54.264 873.142 56.055 873.142 L68.6846 873.142 Q69.0552 873.142 69.6727 873.018 Q70.2903 872.894 71.0932 872.339 Q71.8652 871.752 71.8652 870.795 Q71.8652 868.51 67.82 868.541 L64.2689 868.541 L64.2689 866.935 L67.82 866.935 Q71.1858 866.935 72.5136 868.726 Q73.8106 870.486 73.8106 872.123 Q73.8106 874.222 72.2666 875.55 Q70.7226 876.878 68.6228 877.063 Q71.0314 878.02 72.6063 880.213 Q74.1502 882.374 74.1502 885.339 Q74.1502 887.624 73.5635 889.785 Q73.0077 891.916 71.4329 893.707 Q69.8271 895.467 67.4186 895.467 M67.3568 890.588 Q69.7036 890.588 71.2167 888.921 Q72.7298 887.253 72.7298 884.907 Q72.7298 882.251 70.6918 879.873 Q68.6228 877.495 64.5777 877.495 L58.2474 877.495 Q58.4945 884.505 61.3045 887.562 Q64.0836 890.588 67.3568 890.588 Z" fill="#000000" fill-rule="evenodd" fill-opacity="1" /><path clip-path="url(#clip351)" d="M73.44 864.742 L71.4946 864.742 Q71.4946 861.377 71.0932 860.605 Q70.6609 859.802 68.6228 859.802 L51.6702 859.802 Q49.3233 859.802 48.7366 860.635 Q48.1499 861.438 48.1499 864.742 L46.1737 864.742 L45.4943 855.942 L52.4421 855.942 Q49.7248 855.046 47.625 853.163 Q45.4943 851.248 45.4943 848.16 Q45.4943 846.122 46.6369 844.825 Q47.7794 843.497 49.3542 843.497 Q50.7438 843.497 51.454 844.362 Q52.1334 845.196 52.1334 846.215 Q52.1334 847.357 51.4231 848.16 Q50.682 848.932 49.416 848.932 Q48.644 848.932 48.0573 848.593 Q47.4397 848.222 47.2236 847.944 Q47.0074 847.666 46.9456 847.481 Q46.8839 847.604 46.8839 848.16 Q46.8839 851.65 50.3732 853.657 Q53.8317 855.633 58.7724 855.633 L68.4993 855.633 Q70.3212 855.633 70.9079 854.892 Q71.4946 854.12 71.4946 850.816 L71.4946 849.488 L73.44 849.488 Q73.2547 852.02 73.2547 857.517 Q73.2547 858.289 73.2856 859.493 Q73.3165 860.697 73.3782 862.272 Q73.44 863.847 73.44 864.742 Z" fill="#000000" fill-rule="evenodd" fill-opacity="1" /><path clip-path="url(#clip351)" d="M32.2163 819.566 L30.24 819.566 Q30.4253 812.742 30.4253 811.538 Q30.4253 804.775 30.24 802.49 L32.2163 802.49 Q32.2163 807.678 34.0381 807.678 Q34.2852 807.678 35.1807 807.307 L67.1098 795.233 L36.632 783.654 Q35.6747 783.345 35.3659 783.345 Q34.0999 783.345 33.2044 784.518 Q32.278 785.661 32.2163 787.946 L30.24 787.946 Q30.4253 783.005 30.4253 780.751 Q30.4253 777.54 30.24 774.606 L32.2163 774.606 Q32.278 779.917 36.4467 781.492 L73.6253 795.604 Q74.3973 795.851 74.6134 796.098 Q74.8296 796.345 74.8296 797.117 Q74.8296 797.735 74.5825 798.074 Q74.3355 798.383 73.44 798.692 L34.6248 813.359 Q32.9265 813.977 32.5868 815.089 Q32.2163 816.2 32.2163 819.566 Z" fill="#000000" fill-rule="evenodd" fill-opacity="1" /><path clip-path="url(#clip351)" d="M67.4186 775.934 Q62.0456 775.934 59.2047 769.604 Q57.3828 765.805 56.9196 757.962 L54.6037 757.962 Q50.682 757.962 48.6131 760.031 Q46.5133 762.069 46.5133 764.663 Q46.5133 769.295 49.416 771.518 Q49.4777 769.634 50.435 768.955 Q51.3614 768.276 52.3186 768.276 Q53.5847 768.276 54.4184 769.079 Q55.2213 769.851 55.2213 771.178 Q55.2213 772.444 54.4493 773.278 Q53.6464 774.112 52.2569 774.112 Q49.1689 774.112 47.1309 771.333 Q45.0929 768.523 45.0929 764.539 Q45.0929 759.352 48.5822 755.893 Q49.663 754.812 51.0526 754.287 Q52.4421 753.732 53.3685 753.67 Q54.264 753.608 56.055 753.608 L68.6846 753.608 Q69.0552 753.608 69.6727 753.485 Q70.2903 753.361 71.0932 752.805 Q71.8652 752.219 71.8652 751.261 Q71.8652 748.976 67.82 749.007 L64.2689 749.007 L64.2689 747.401 L67.82 747.401 Q71.1858 747.401 72.5136 749.192 Q73.8106 750.953 73.8106 752.589 Q73.8106 754.689 72.2666 756.017 Q70.7226 757.345 68.6228 757.53 Q71.0314 758.487 72.6063 760.679 Q74.1502 762.841 74.1502 765.805 Q74.1502 768.09 73.5635 770.252 Q73.0077 772.383 71.4329 774.174 Q69.8271 775.934 67.4186 775.934 M67.3568 771.055 Q69.7036 771.055 71.2167 769.387 Q72.7298 767.72 72.7298 765.373 Q72.7298 762.718 70.6918 760.34 Q68.6228 757.962 64.5777 757.962 L58.2474 757.962 Q58.4945 764.972 61.3045 768.029 Q64.0836 771.055 67.3568 771.055 Z" fill="#000000" fill-rule="evenodd" fill-opacity="1" /><path clip-path="url(#clip351)" d="M73.44 744.869 L71.4946 744.869 Q71.4946 741.504 71.0932 740.732 Q70.6609 739.96 68.6228 739.96 L35.7365 739.96 Q33.3897 739.96 32.803 740.793 Q32.2163 741.596 32.2163 744.869 L30.24 744.869 L29.5607 735.791 L68.6228 735.791 Q70.6609 735.791 71.0932 734.988 Q71.4946 734.185 71.4946 730.85 L73.44 730.85 Q73.44 731.622 73.3782 733.228 Q73.3165 734.834 73.2856 736.007 Q73.2547 737.18 73.2547 737.86 Q73.2547 738.601 73.44 744.869 Z" fill="#000000" fill-rule="evenodd" fill-opacity="1" /><path clip-path="url(#clip351)" d="M48.1499 727.423 L46.1737 727.423 L45.4943 718.128 L66.4922 718.128 Q68.0053 718.128 68.9008 718.004 Q69.7654 717.881 70.7844 717.387 Q71.8034 716.862 72.2666 715.688 Q72.7298 714.484 72.7298 712.57 Q72.7298 709.142 69.9198 707.042 Q67.1098 704.912 62.9411 704.912 L51.6702 704.912 Q49.3233 704.912 48.7366 705.745 Q48.1499 706.579 48.1499 709.852 L46.1737 709.852 L45.4943 700.558 L67.9435 700.558 Q70.2903 700.558 70.9079 699.755 Q71.4946 698.921 71.4946 695.617 L73.44 695.617 L74.1502 704.726 L68.4376 704.726 Q74.1193 707.382 74.1502 712.878 Q74.1502 715.658 73.44 717.572 Q72.7298 719.456 71.8652 720.413 Q70.9697 721.37 69.2713 721.895 Q67.573 722.389 66.5231 722.451 Q65.4732 722.513 63.4351 722.513 L53.9552 722.513 Q49.663 722.513 48.9219 723.13 Q48.1499 723.748 48.1499 727.423 Z" fill="#000000" fill-rule="evenodd" fill-opacity="1" /><path clip-path="url(#clip351)" d="M59.5135 692.622 Q53.5538 692.622 49.3233 688.793 Q45.0929 684.964 45.0929 679.467 Q45.0929 673.909 48.7058 671.037 Q52.3186 668.135 57.5063 668.135 Q58.4636 668.135 58.6489 668.382 Q58.8341 668.629 58.8341 669.709 L58.8341 687.372 Q65.2879 687.372 68.3141 685.458 Q72.5445 682.802 72.5445 678.325 Q72.5445 677.707 72.421 676.966 Q72.2975 676.225 71.7725 674.712 Q71.2167 673.199 69.7654 671.871 Q68.3141 670.543 66.029 669.771 Q65.1335 669.586 65.1644 668.968 Q65.1644 668.135 65.9055 668.135 Q66.4613 668.135 67.7273 668.752 Q68.9625 669.339 70.4447 670.481 Q71.9269 671.624 73.0386 673.847 Q74.1502 676.04 74.1502 678.695 Q74.1502 684.253 69.9507 688.453 Q65.7202 692.622 59.5135 692.622 M57.5063 687.311 L57.5063 672.303 Q56.1785 672.303 54.6963 672.55 Q53.2141 672.766 51.1761 673.446 Q49.1072 674.094 47.8103 675.638 Q46.5133 677.182 46.5133 679.467 Q46.5133 680.486 46.9456 681.598 Q47.378 682.679 48.4278 684.006 Q49.4777 685.334 51.8554 686.261 Q54.2331 687.187 57.5063 687.311 Z" fill="#000000" fill-rule="evenodd" fill-opacity="1" /><path clip-path="url(#clip351)" d="M72.6063 664.213 L64.2689 664.213 Q63.5587 664.213 63.3116 664.182 Q63.0646 664.151 62.8793 663.966 Q62.694 663.781 62.694 663.41 Q62.694 662.978 62.8793 662.823 Q63.0646 662.638 63.7748 662.515 Q68.1288 661.557 70.4447 659.519 Q72.7298 657.45 72.7298 653.714 Q72.7298 650.163 71.1549 648.372 Q69.5801 646.581 66.9862 646.581 Q62.3544 646.581 61.181 653.158 Q60.409 656.956 59.9149 658.531 Q59.39 660.106 58.2474 661.495 Q56.0241 664.213 52.8745 664.213 Q49.7248 664.213 47.4088 661.835 Q45.0929 659.427 45.0929 654.115 Q45.0929 650.564 46.8839 648.156 Q46.3281 647.445 45.8649 647.075 Q45.0929 646.241 45.0929 645.809 Q45.0929 645.315 45.4326 645.222 Q45.7414 645.13 46.6369 645.13 L52.998 645.13 Q53.7082 645.13 53.9552 645.16 Q54.2023 645.191 54.3875 645.377 Q54.5419 645.562 54.5419 645.963 Q54.5419 646.673 53.9552 646.704 Q46.2972 647.198 46.2972 654.115 Q46.2972 657.852 47.7485 659.519 Q49.1689 661.187 51.1143 661.187 Q52.1951 661.187 53.0288 660.693 Q53.8317 660.168 54.3258 659.519 Q54.789 658.84 55.2522 657.605 Q55.6845 656.37 55.8389 655.628 Q55.9933 654.856 56.302 653.405 Q57.2593 648.341 59.3282 646.21 Q61.9838 643.555 65.3496 643.555 Q69.086 643.555 71.6181 646.087 Q74.1502 648.619 74.1502 653.714 Q74.1502 657.821 71.402 660.693 Q71.7725 661.063 72.1122 661.341 Q72.421 661.619 72.5445 661.743 Q72.668 661.835 72.7607 661.866 Q72.8224 661.897 72.8842 661.959 Q74.1502 663.225 74.1502 663.534 Q74.1502 664.028 73.8106 664.12 Q73.5018 664.213 72.6063 664.213 Z" fill="#000000" fill-rule="evenodd" fill-opacity="1" /></svg>
