<?xml version="1.0" encoding="utf-8"?>
<svg xmlns="http://www.w3.org/2000/svg" xmlns:xlink="http://www.w3.org/1999/xlink" width="500" height="500" viewBox="0 0 2000 2000">
<defs>
  <clipPath id="clip100">
    <rect x="0" y="0" width="2000" height="2000"/>
  </clipPath>
</defs>
<path clip-path="url(#clip100)" d="M0 2000 L2000 2000 L2000 0 L0 0  Z" fill="#ffffff" fill-rule="evenodd" fill-opacity="1"/>
<defs>
  <clipPath id="clip101">
    <rect x="400" y="200" width="1401" height="1401"/>
  </clipPath>
</defs>
<path clip-path="url(#clip100)" d="M194.665 1781.8 L1952.76 1781.8 L1952.76 47.2441 L194.665 47.2441  Z" fill="#ffffff" fill-rule="evenodd" fill-opacity="1"/>
<defs>
  <clipPath id="clip102">
    <rect x="194" y="47" width="1759" height="1736"/>
  </clipPath>
</defs>
<polyline clip-path="url(#clip100)" style="stroke:#000000; stroke-linecap:round; stroke-linejoin:round; stroke-width:4; stroke-opacity:1; fill:none" points="194.665,1781.8 1952.76,1781.8 "/>
<polyline clip-path="url(#clip100)" style="stroke:#000000; stroke-linecap:round; stroke-linejoin:round; stroke-width:4; stroke-opacity:1; fill:none" points="194.665,47.2441 1952.76,47.2441 "/>
<polyline clip-path="url(#clip100)" style="stroke:#000000; stroke-linecap:round; stroke-linejoin:round; stroke-width:4; stroke-opacity:1; fill:none" points="194.665,1781.8 194.665,1762.9 "/>
<polyline clip-path="url(#clip100)" style="stroke:#000000; stroke-linecap:round; stroke-linejoin:round; stroke-width:4; stroke-opacity:1; fill:none" points="546.283,1781.8 546.283,1762.9 "/>
<polyline clip-path="url(#clip100)" style="stroke:#000000; stroke-linecap:round; stroke-linejoin:round; stroke-width:4; stroke-opacity:1; fill:none" points="897.901,1781.8 897.901,1762.9 "/>
<polyline clip-path="url(#clip100)" style="stroke:#000000; stroke-linecap:round; stroke-linejoin:round; stroke-width:4; stroke-opacity:1; fill:none" points="1249.52,1781.8 1249.52,1762.9 "/>
<polyline clip-path="url(#clip100)" style="stroke:#000000; stroke-linecap:round; stroke-linejoin:round; stroke-width:4; stroke-opacity:1; fill:none" points="1601.14,1781.8 1601.14,1762.9 "/>
<polyline clip-path="url(#clip100)" style="stroke:#000000; stroke-linecap:round; stroke-linejoin:round; stroke-width:4; stroke-opacity:1; fill:none" points="1952.76,1781.8 1952.76,1762.9 "/>
<g clip-path="url(#clip100)">
<text style="fill:#000000; fill-opacity:1; font-family:Arial,Helvetica Neue,Helvetica,sans-serif; font-size:48px; text-anchor:middle;" transform="rotate(0, 194.665, 1840.45)" x="194.665" y="1840.45">0</text>
</g>
<g clip-path="url(#clip100)">
<text style="fill:#000000; fill-opacity:1; font-family:Arial,Helvetica Neue,Helvetica,sans-serif; font-size:48px; text-anchor:middle;" transform="rotate(0, 546.283, 1840.45)" x="546.283" y="1840.45">1</text>
</g>
<g clip-path="url(#clip100)">
<text style="fill:#000000; fill-opacity:1; font-family:Arial,Helvetica Neue,Helvetica,sans-serif; font-size:48px; text-anchor:middle;" transform="rotate(0, 897.901, 1840.45)" x="897.901" y="1840.45">2</text>
</g>
<g clip-path="url(#clip100)">
<text style="fill:#000000; fill-opacity:1; font-family:Arial,Helvetica Neue,Helvetica,sans-serif; font-size:48px; text-anchor:middle;" transform="rotate(0, 1249.52, 1840.45)" x="1249.52" y="1840.45">3</text>
</g>
<g clip-path="url(#clip100)">
<text style="fill:#000000; fill-opacity:1; font-family:Arial,Helvetica Neue,Helvetica,sans-serif; font-size:48px; text-anchor:middle;" transform="rotate(0, 1601.14, 1840.45)" x="1601.14" y="1840.45">4</text>
</g>
<g clip-path="url(#clip100)">
<text style="fill:#000000; fill-opacity:1; font-family:Arial,Helvetica Neue,Helvetica,sans-serif; font-size:48px; text-anchor:middle;" transform="rotate(0, 1952.76, 1840.45)" x="1952.76" y="1840.45">5</text>
</g>
<g clip-path="url(#clip100)">
<text style="fill:#000000; fill-opacity:1; font-family:Arial,Helvetica Neue,Helvetica,sans-serif; font-size:66px; text-anchor:middle;" transform="rotate(0, 1073.71, 1921.66)" x="1073.71" y="1921.66">1st Dim</text>
</g>
<polyline clip-path="url(#clip100)" style="stroke:#000000; stroke-linecap:round; stroke-linejoin:round; stroke-width:4; stroke-opacity:1; fill:none" points="194.665,1781.8 194.665,47.2441 "/>
<polyline clip-path="url(#clip100)" style="stroke:#000000; stroke-linecap:round; stroke-linejoin:round; stroke-width:4; stroke-opacity:1; fill:none" points="1952.76,1781.8 1952.76,47.2441 "/>
<polyline clip-path="url(#clip100)" style="stroke:#000000; stroke-linecap:round; stroke-linejoin:round; stroke-width:4; stroke-opacity:1; fill:none" points="194.665,1781.8 213.562,1781.8 "/>
<polyline clip-path="url(#clip100)" style="stroke:#000000; stroke-linecap:round; stroke-linejoin:round; stroke-width:4; stroke-opacity:1; fill:none" points="194.665,1434.89 213.562,1434.89 "/>
<polyline clip-path="url(#clip100)" style="stroke:#000000; stroke-linecap:round; stroke-linejoin:round; stroke-width:4; stroke-opacity:1; fill:none" points="194.665,1087.98 213.562,1087.98 "/>
<polyline clip-path="url(#clip100)" style="stroke:#000000; stroke-linecap:round; stroke-linejoin:round; stroke-width:4; stroke-opacity:1; fill:none" points="194.665,741.066 213.562,741.066 "/>
<polyline clip-path="url(#clip100)" style="stroke:#000000; stroke-linecap:round; stroke-linejoin:round; stroke-width:4; stroke-opacity:1; fill:none" points="194.665,394.155 213.562,394.155 "/>
<polyline clip-path="url(#clip100)" style="stroke:#000000; stroke-linecap:round; stroke-linejoin:round; stroke-width:4; stroke-opacity:1; fill:none" points="194.665,47.2441 213.562,47.2441 "/>
<g clip-path="url(#clip100)">
<text style="fill:#000000; fill-opacity:1; font-family:Arial,Helvetica Neue,Helvetica,sans-serif; font-size:48px; text-anchor:middle;" transform="rotate(0, 151.283, 1799.3)" x="151.283" y="1799.3">0</text>
</g>
<g clip-path="url(#clip100)">
<text style="fill:#000000; fill-opacity:1; font-family:Arial,Helvetica Neue,Helvetica,sans-serif; font-size:48px; text-anchor:middle;" transform="rotate(0, 151.283, 1452.39)" x="151.283" y="1452.39">1</text>
</g>
<g clip-path="url(#clip100)">
<text style="fill:#000000; fill-opacity:1; font-family:Arial,Helvetica Neue,Helvetica,sans-serif; font-size:48px; text-anchor:middle;" transform="rotate(0, 151.283, 1105.48)" x="151.283" y="1105.48">2</text>
</g>
<g clip-path="url(#clip100)">
<text style="fill:#000000; fill-opacity:1; font-family:Arial,Helvetica Neue,Helvetica,sans-serif; font-size:48px; text-anchor:middle;" transform="rotate(0, 151.283, 758.566)" x="151.283" y="758.566">3</text>
</g>
<g clip-path="url(#clip100)">
<text style="fill:#000000; fill-opacity:1; font-family:Arial,Helvetica Neue,Helvetica,sans-serif; font-size:48px; text-anchor:middle;" transform="rotate(0, 151.283, 411.655)" x="151.283" y="411.655">4</text>
</g>
<g clip-path="url(#clip100)">
<text style="fill:#000000; fill-opacity:1; font-family:Arial,Helvetica Neue,Helvetica,sans-serif; font-size:48px; text-anchor:middle;" transform="rotate(0, 151.283, 64.7441)" x="151.283" y="64.7441">5</text>
</g>
<g clip-path="url(#clip100)">
<text style="fill:#000000; fill-opacity:1; font-family:Arial,Helvetica Neue,Helvetica,sans-serif; font-size:66px; text-anchor:middle;" transform="rotate(-90, 96.3402, 914.521)" x="96.3402" y="914.521">2nd Dim</text>
</g>
<circle clip-path="url(#clip102)" cx="563.864" cy="1070.63" r="14.4" fill="#0000ff" fill-rule="evenodd" fill-opacity="1" stroke="#000000" stroke-opacity="1" stroke-width="4"/>
<path clip-path="url(#clip100)" d="M459.472 989.455 L476.648 989.455 L476.648 995.248 L466.926 995.248 L466.926 1057.63 L476.648 1057.63 L476.648 1063.42 L459.472 1063.42 L459.472 989.455 Z" fill="#000000" fill-rule="evenodd" fill-opacity="1" /><path clip-path="url(#clip100)" d="M494.998 1045.6 L508.366 1045.6 L508.366 999.461 L493.824 1002.38 L493.824 994.924 L508.285 992.007 L516.468 992.007 L516.468 1045.6 L529.836 1045.6 L529.836 1052.49 L494.998 1052.49 L494.998 1045.6 Z" fill="#000000" fill-rule="evenodd" fill-opacity="1" /><path clip-path="url(#clip100)" d="M547.215 1042.2 L555.762 1042.2 L555.762 1049.17 L549.118 1062.13 L543.893 1062.13 L547.215 1049.17 L547.215 1042.2 Z" fill="#000000" fill-rule="evenodd" fill-opacity="1" /><path clip-path="url(#clip100)" d="M606.155 1045.6 L634.714 1045.6 L634.714 1052.49 L596.312 1052.49 L596.312 1045.6 Q600.97 1040.78 608.991 1032.68 Q617.052 1024.54 619.118 1022.19 Q623.047 1017.77 624.587 1014.73 Q626.167 1011.65 626.167 1008.7 Q626.167 1003.88 622.764 1000.84 Q619.402 997.8 613.973 997.8 Q610.125 997.8 605.831 999.136 Q601.578 1000.47 596.717 1003.19 L596.717 994.924 Q601.659 992.939 605.953 991.926 Q610.247 990.913 613.811 990.913 Q623.21 990.913 628.8 995.612 Q634.39 1000.31 634.39 1008.17 Q634.39 1011.9 632.972 1015.26 Q631.595 1018.58 627.909 1023.12 Q626.896 1024.29 621.468 1029.92 Q616.039 1035.51 606.155 1045.6 Z" fill="#000000" fill-rule="evenodd" fill-opacity="1" /><path clip-path="url(#clip100)" d="M668.256 989.455 L668.256 1063.42 L651.08 1063.42 L651.08 1057.63 L660.761 1057.63 L660.761 995.248 L651.08 995.248 L651.08 989.455 L668.256 989.455 Z" fill="#000000" fill-rule="evenodd" fill-opacity="1" /><polyline clip-path="url(#clip102)" style="stroke:#0000ff; stroke-linecap:round; stroke-linejoin:round; stroke-width:6; stroke-opacity:1; fill:none" points="194.665,1781.8 546.283,1087.98 "/>
<polyline clip-path="url(#clip102)" style="stroke:#0000ff; stroke-linecap:round; stroke-linejoin:round; stroke-width:6; stroke-opacity:1; fill:none" points="519.342,1107.96 546.283,1087.98 546.101,1121.52 "/>
<polyline clip-path="url(#clip102)" style="stroke:#0000ff; stroke-linecap:round; stroke-linejoin:round; stroke-width:6; stroke-opacity:1; fill:none" points="546.283,1087.98 194.665,1781.8 "/>
<circle clip-path="url(#clip102)" cx="1267.1" cy="1417.54" r="14.4" fill="#0000ff" fill-rule="evenodd" fill-opacity="1" stroke="#000000" stroke-opacity="1" stroke-width="4"/>
<path clip-path="url(#clip100)" d="M1162.71 1336.37 L1179.88 1336.37 L1179.88 1342.16 L1170.16 1342.16 L1170.16 1404.54 L1179.88 1404.54 L1179.88 1410.34 L1162.71 1410.34 L1162.71 1336.37 Z" fill="#000000" fill-rule="evenodd" fill-opacity="1" /><path clip-path="url(#clip100)" d="M1221.61 1366.79 Q1227.48 1368.04 1230.76 1372.01 Q1234.09 1375.98 1234.09 1381.82 Q1234.09 1390.77 1227.93 1395.67 Q1221.77 1400.57 1210.43 1400.57 Q1206.62 1400.57 1202.57 1399.8 Q1198.56 1399.07 1194.27 1397.57 L1194.27 1389.68 Q1197.67 1391.66 1201.72 1392.67 Q1205.77 1393.69 1210.19 1393.69 Q1217.88 1393.69 1221.89 1390.65 Q1225.94 1387.61 1225.94 1381.82 Q1225.94 1376.47 1222.18 1373.47 Q1218.45 1370.43 1211.76 1370.43 L1204.72 1370.43 L1204.72 1363.71 L1212.09 1363.71 Q1218.12 1363.71 1221.33 1361.32 Q1224.53 1358.89 1224.53 1354.35 Q1224.53 1349.69 1221.2 1347.22 Q1217.92 1344.71 1211.76 1344.71 Q1208.4 1344.71 1204.55 1345.44 Q1200.71 1346.17 1196.09 1347.71 L1196.09 1340.42 Q1200.75 1339.12 1204.8 1338.47 Q1208.89 1337.82 1212.49 1337.82 Q1221.81 1337.82 1227.24 1342.08 Q1232.67 1346.29 1232.67 1353.5 Q1232.67 1358.52 1229.79 1362.01 Q1226.92 1365.45 1221.61 1366.79 Z" fill="#000000" fill-rule="evenodd" fill-opacity="1" /><path clip-path="url(#clip100)" d="M1250.45 1389.11 L1259 1389.11 L1259 1396.08 L1252.36 1409.04 L1247.13 1409.04 L1250.45 1396.08 L1250.45 1389.11 Z" fill="#000000" fill-rule="evenodd" fill-opacity="1" /><path clip-path="url(#clip100)" d="M1303.76 1392.51 L1317.13 1392.51 L1317.13 1346.37 L1302.59 1349.29 L1302.59 1341.83 L1317.05 1338.92 L1325.23 1338.92 L1325.23 1392.51 L1338.6 1392.51 L1338.6 1399.4 L1303.76 1399.4 L1303.76 1392.51 Z" fill="#000000" fill-rule="evenodd" fill-opacity="1" /><path clip-path="url(#clip100)" d="M1371.49 1336.37 L1371.49 1410.34 L1354.32 1410.34 L1354.32 1404.54 L1364 1404.54 L1364 1342.16 L1354.32 1342.16 L1354.32 1336.37 L1371.49 1336.37 Z" fill="#000000" fill-rule="evenodd" fill-opacity="1" /><polyline clip-path="url(#clip102)" style="stroke:#ff0000; stroke-linecap:round; stroke-linejoin:round; stroke-width:6; stroke-opacity:1; fill:none" points="194.665,1781.8 1249.52,1434.89 "/>
<polyline clip-path="url(#clip102)" style="stroke:#ff0000; stroke-linecap:round; stroke-linejoin:round; stroke-width:6; stroke-opacity:1; fill:none" points="1216.33,1430.01 1249.52,1434.89 1225.71,1458.51 "/>
<polyline clip-path="url(#clip102)" style="stroke:#ff0000; stroke-linecap:round; stroke-linejoin:round; stroke-width:6; stroke-opacity:1; fill:none" points="1249.52,1434.89 194.665,1781.8 "/>
<circle clip-path="url(#clip102)" cx="1618.72" cy="723.72" r="14.4" fill="#0000ff" fill-rule="evenodd" fill-opacity="1" stroke="#000000" stroke-opacity="1" stroke-width="4"/>
<path clip-path="url(#clip100)" d="M1514.33 642.544 L1531.5 642.544 L1531.5 648.337 L1521.78 648.337 L1521.78 710.721 L1531.5 710.721 L1531.5 716.514 L1514.33 716.514 L1514.33 642.544 Z" fill="#000000" fill-rule="evenodd" fill-opacity="1" /><path clip-path="url(#clip100)" d="M1570.92 652.226 L1550.26 684.511 L1570.92 684.511 L1570.92 652.226 M1568.77 645.096 L1579.06 645.096 L1579.06 684.511 L1587.69 684.511 L1587.69 691.317 L1579.06 691.317 L1579.06 705.576 L1570.92 705.576 L1570.92 691.317 L1543.61 691.317 L1543.61 683.418 L1568.77 645.096 Z" fill="#000000" fill-rule="evenodd" fill-opacity="1" /><path clip-path="url(#clip100)" d="M1602.07 695.287 L1610.62 695.287 L1610.62 702.254 L1603.97 715.217 L1598.75 715.217 L1602.07 702.254 L1602.07 695.287 Z" fill="#000000" fill-rule="evenodd" fill-opacity="1" /><path clip-path="url(#clip100)" d="M1678.75 672.966 Q1684.63 674.222 1687.91 678.192 Q1691.23 682.162 1691.23 687.995 Q1691.23 696.948 1685.07 701.849 Q1678.91 706.751 1667.57 706.751 Q1663.76 706.751 1659.71 705.981 Q1655.7 705.252 1651.41 703.753 L1651.41 695.854 Q1654.81 697.839 1658.86 698.852 Q1662.91 699.864 1667.33 699.864 Q1675.03 699.864 1679.04 696.826 Q1683.09 693.788 1683.09 687.995 Q1683.09 682.648 1679.32 679.65 Q1675.59 676.612 1668.91 676.612 L1661.86 676.612 L1661.86 669.888 L1669.23 669.888 Q1675.27 669.888 1678.47 667.498 Q1681.67 665.067 1681.67 660.53 Q1681.67 655.872 1678.35 653.4 Q1675.07 650.889 1668.91 650.889 Q1665.55 650.889 1661.7 651.618 Q1657.85 652.347 1653.23 653.887 L1653.23 646.595 Q1657.89 645.299 1661.94 644.651 Q1666.03 644.002 1669.64 644.002 Q1678.96 644.002 1684.38 648.256 Q1689.81 652.469 1689.81 659.679 Q1689.81 664.702 1686.94 668.186 Q1684.06 671.63 1678.75 672.966 Z" fill="#000000" fill-rule="evenodd" fill-opacity="1" /><path clip-path="url(#clip100)" d="M1723.11 642.544 L1723.11 716.514 L1705.93 716.514 L1705.93 710.721 L1715.62 710.721 L1715.62 648.337 L1705.93 648.337 L1705.93 642.544 L1723.11 642.544 Z" fill="#000000" fill-rule="evenodd" fill-opacity="1" /><polyline clip-path="url(#clip102)" style="stroke:#ffa500; stroke-linecap:round; stroke-linejoin:round; stroke-width:10; stroke-opacity:1; fill:none" points="194.665,1781.8 1601.14,741.066 "/>
<polyline clip-path="url(#clip102)" style="stroke:#ffa500; stroke-linecap:round; stroke-linejoin:round; stroke-width:10; stroke-opacity:1; fill:none" points="1568.1,746.852 1601.14,741.066 1585.94,770.968 "/>
<polyline clip-path="url(#clip102)" style="stroke:#ffa500; stroke-linecap:round; stroke-linejoin:round; stroke-width:10; stroke-opacity:1; fill:none" points="1601.14,741.066 194.665,1781.8 "/>
<polyline clip-path="url(#clip102)" style="stroke:#ff0000; stroke-linecap:round; stroke-linejoin:round; stroke-width:6; stroke-opacity:0.4; fill:none" stroke-dasharray="24, 15" points="546.283,1087.98 1601.14,741.066 "/>
<polyline clip-path="url(#clip102)" style="stroke:#ff0000; stroke-linecap:round; stroke-linejoin:round; stroke-width:6; stroke-opacity:0.4; fill:none" points="1567.95,736.189 1601.14,741.066 1577.33,764.687 "/>
<polyline clip-path="url(#clip102)" style="stroke:#ff0000; stroke-linecap:round; stroke-linejoin:round; stroke-width:6; stroke-opacity:0.4; fill:none" stroke-dasharray="24, 15" points="1601.14,741.066 546.283,1087.98 "/>
<polyline clip-path="url(#clip102)" style="stroke:#0000ff; stroke-linecap:round; stroke-linejoin:round; stroke-width:6; stroke-opacity:0.4; fill:none" stroke-dasharray="24, 15" points="1249.52,1434.89 1601.14,741.066 "/>
<polyline clip-path="url(#clip102)" style="stroke:#0000ff; stroke-linecap:round; stroke-linejoin:round; stroke-width:6; stroke-opacity:0.4; fill:none" points="1574.2,761.045 1601.14,741.066 1600.96,774.606 "/>
<polyline clip-path="url(#clip102)" style="stroke:#0000ff; stroke-linecap:round; stroke-linejoin:round; stroke-width:6; stroke-opacity:0.4; fill:none" stroke-dasharray="24, 15" points="1601.14,741.066 1249.52,1434.89 "/>
</svg>
