<?xml version="1.0" encoding="utf-8"?>
<svg xmlns="http://www.w3.org/2000/svg" xmlns:xlink="http://www.w3.org/1999/xlink" width="500" height="500" viewBox="0 0 2000 2000">
<defs>
  <clipPath id="clip350">
    <rect x="0" y="0" width="2000" height="2000"/>
  </clipPath>
</defs>
<path clip-path="url(#clip350)" d="M0 2000 L2000 2000 L2000 0 L0 0  Z" fill="#ffffff" fill-rule="evenodd" fill-opacity="1"/>
<defs>
  <clipPath id="clip351">
    <rect x="400" y="200" width="1401" height="1401"/>
  </clipPath>
</defs>
<path clip-path="url(#clip350)" d="M221.427 1781.8 L1952.76 1781.8 L1952.76 47.2441 L221.427 47.2441  Z" fill="#ffffff" fill-rule="evenodd" fill-opacity="1"/>
<defs>
  <clipPath id="clip352">
    <rect x="221" y="47" width="1732" height="1736"/>
  </clipPath>
</defs>
<circle clip-path="url(#clip352)" cx="1094.31" cy="1340.93" r="14.4" fill="#0000ff" fill-rule="evenodd" fill-opacity="0.5" stroke="#000000" stroke-opacity="0.5" stroke-width="4"/>
<path clip-path="url(#clip350)" d="M989.913 1259.76 L1007.09 1259.76 L1007.09 1265.55 L997.367 1265.55 L997.367 1327.93 L1007.09 1327.93 L1007.09 1333.73 L989.913 1333.73 L989.913 1259.76 Z" fill="#000000" fill-rule="evenodd" fill-opacity="1" /><path clip-path="url(#clip350)" d="M1046.5 1269.44 L1025.85 1301.72 L1046.5 1301.72 L1046.5 1269.44 M1044.36 1262.31 L1054.65 1262.31 L1054.65 1301.72 L1063.28 1301.72 L1063.28 1308.53 L1054.65 1308.53 L1054.65 1322.79 L1046.5 1322.79 L1046.5 1308.53 L1019.2 1308.53 L1019.2 1300.63 L1044.36 1262.31 Z" fill="#000000" fill-rule="evenodd" fill-opacity="1" /><path clip-path="url(#clip350)" d="M1077.66 1312.5 L1086.2 1312.5 L1086.2 1319.47 L1079.56 1332.43 L1074.33 1332.43 L1077.66 1319.47 L1077.66 1312.5 Z" fill="#000000" fill-rule="evenodd" fill-opacity="1" /><path clip-path="url(#clip350)" d="M1130.97 1315.9 L1144.33 1315.9 L1144.33 1269.76 L1129.79 1272.68 L1129.79 1265.22 L1144.25 1262.31 L1152.44 1262.31 L1152.44 1315.9 L1165.8 1315.9 L1165.8 1322.79 L1130.97 1322.79 L1130.97 1315.9 Z" fill="#000000" fill-rule="evenodd" fill-opacity="1" /><path clip-path="url(#clip350)" d="M1198.7 1259.76 L1198.7 1333.73 L1181.52 1333.73 L1181.52 1327.93 L1191.2 1327.93 L1191.2 1265.55 L1181.52 1265.55 L1181.52 1259.76 L1198.7 1259.76 Z" fill="#000000" fill-rule="evenodd" fill-opacity="1" /><polyline clip-path="url(#clip352)" style="stroke:#000000; stroke-linecap:round; stroke-linejoin:round; stroke-width:8; stroke-opacity:1; fill:none" points="509.982,1492.71 509.982,480.883 "/>
<polyline clip-path="url(#clip352)" style="stroke:#000000; stroke-linecap:round; stroke-linejoin:round; stroke-width:8; stroke-opacity:1; fill:none" points="509.982,1492.71 1519.92,1492.71 "/>
<polyline clip-path="url(#clip352)" style="stroke:#0000ff; stroke-linecap:round; stroke-linejoin:round; stroke-width:8; stroke-opacity:1; fill:none" points="654.259,1564.98 509.982,408.609 "/>
<polyline clip-path="url(#clip352)" style="stroke:#0000ff; stroke-linecap:round; stroke-linejoin:round; stroke-width:8; stroke-opacity:1; fill:none" points="654.259,1564.98 2097.03,1420.43 "/>
</svg>
