<?xml version="1.0" encoding="utf-8"?>
<svg xmlns="http://www.w3.org/2000/svg" xmlns:xlink="http://www.w3.org/1999/xlink" width="500" height="500" viewBox="0 0 2000 2000">
<defs>
  <clipPath id="clip150">
    <rect x="0" y="0" width="2000" height="2000"/>
  </clipPath>
</defs>
<path clip-path="url(#clip150)" d="M0 2000 L2000 2000 L2000 0 L0 0  Z" fill="#ffffff" fill-rule="evenodd" fill-opacity="1"/>
<defs>
  <clipPath id="clip151">
    <rect x="400" y="200" width="1401" height="1401"/>
  </clipPath>
</defs>
<path clip-path="url(#clip150)" d="M194.665 1781.8 L1952.76 1781.8 L1952.76 47.2441 L194.665 47.2441  Z" fill="#ffffff" fill-rule="evenodd" fill-opacity="1"/>
<defs>
  <clipPath id="clip152">
    <rect x="194" y="47" width="1759" height="1736"/>
  </clipPath>
</defs>
<polyline clip-path="url(#clip150)" style="stroke:#000000; stroke-linecap:round; stroke-linejoin:round; stroke-width:4; stroke-opacity:1; fill:none" points="194.665,1781.8 1952.76,1781.8 "/>
<polyline clip-path="url(#clip150)" style="stroke:#000000; stroke-linecap:round; stroke-linejoin:round; stroke-width:4; stroke-opacity:1; fill:none" points="194.665,47.2441 1952.76,47.2441 "/>
<polyline clip-path="url(#clip150)" style="stroke:#000000; stroke-linecap:round; stroke-linejoin:round; stroke-width:4; stroke-opacity:1; fill:none" points="194.665,1781.8 194.665,1762.9 "/>
<polyline clip-path="url(#clip150)" style="stroke:#000000; stroke-linecap:round; stroke-linejoin:round; stroke-width:4; stroke-opacity:1; fill:none" points="546.283,1781.8 546.283,1762.9 "/>
<polyline clip-path="url(#clip150)" style="stroke:#000000; stroke-linecap:round; stroke-linejoin:round; stroke-width:4; stroke-opacity:1; fill:none" points="897.901,1781.8 897.901,1762.9 "/>
<polyline clip-path="url(#clip150)" style="stroke:#000000; stroke-linecap:round; stroke-linejoin:round; stroke-width:4; stroke-opacity:1; fill:none" points="1249.52,1781.8 1249.52,1762.9 "/>
<polyline clip-path="url(#clip150)" style="stroke:#000000; stroke-linecap:round; stroke-linejoin:round; stroke-width:4; stroke-opacity:1; fill:none" points="1601.14,1781.8 1601.14,1762.9 "/>
<polyline clip-path="url(#clip150)" style="stroke:#000000; stroke-linecap:round; stroke-linejoin:round; stroke-width:4; stroke-opacity:1; fill:none" points="1952.76,1781.8 1952.76,1762.9 "/>
<g clip-path="url(#clip150)">
<text style="fill:#000000; fill-opacity:1; font-family:Arial,Helvetica Neue,Helvetica,sans-serif; font-size:48px; text-anchor:middle;" transform="rotate(0, 194.665, 1840.45)" x="194.665" y="1840.45">0</text>
</g>
<g clip-path="url(#clip150)">
<text style="fill:#000000; fill-opacity:1; font-family:Arial,Helvetica Neue,Helvetica,sans-serif; font-size:48px; text-anchor:middle;" transform="rotate(0, 546.283, 1840.45)" x="546.283" y="1840.45">1</text>
</g>
<g clip-path="url(#clip150)">
<text style="fill:#000000; fill-opacity:1; font-family:Arial,Helvetica Neue,Helvetica,sans-serif; font-size:48px; text-anchor:middle;" transform="rotate(0, 897.901, 1840.45)" x="897.901" y="1840.45">2</text>
</g>
<g clip-path="url(#clip150)">
<text style="fill:#000000; fill-opacity:1; font-family:Arial,Helvetica Neue,Helvetica,sans-serif; font-size:48px; text-anchor:middle;" transform="rotate(0, 1249.52, 1840.45)" x="1249.52" y="1840.45">3</text>
</g>
<g clip-path="url(#clip150)">
<text style="fill:#000000; fill-opacity:1; font-family:Arial,Helvetica Neue,Helvetica,sans-serif; font-size:48px; text-anchor:middle;" transform="rotate(0, 1601.14, 1840.45)" x="1601.14" y="1840.45">4</text>
</g>
<g clip-path="url(#clip150)">
<text style="fill:#000000; fill-opacity:1; font-family:Arial,Helvetica Neue,Helvetica,sans-serif; font-size:48px; text-anchor:middle;" transform="rotate(0, 1952.76, 1840.45)" x="1952.76" y="1840.45">5</text>
</g>
<g clip-path="url(#clip150)">
<text style="fill:#000000; fill-opacity:1; font-family:Arial,Helvetica Neue,Helvetica,sans-serif; font-size:66px; text-anchor:middle;" transform="rotate(0, 1073.71, 1921.66)" x="1073.71" y="1921.66">1st Dim</text>
</g>
<polyline clip-path="url(#clip150)" style="stroke:#000000; stroke-linecap:round; stroke-linejoin:round; stroke-width:4; stroke-opacity:1; fill:none" points="194.665,1781.8 194.665,47.2441 "/>
<polyline clip-path="url(#clip150)" style="stroke:#000000; stroke-linecap:round; stroke-linejoin:round; stroke-width:4; stroke-opacity:1; fill:none" points="1952.76,1781.8 1952.76,47.2441 "/>
<polyline clip-path="url(#clip150)" style="stroke:#000000; stroke-linecap:round; stroke-linejoin:round; stroke-width:4; stroke-opacity:1; fill:none" points="194.665,1781.8 213.562,1781.8 "/>
<polyline clip-path="url(#clip150)" style="stroke:#000000; stroke-linecap:round; stroke-linejoin:round; stroke-width:4; stroke-opacity:1; fill:none" points="194.665,1434.89 213.562,1434.89 "/>
<polyline clip-path="url(#clip150)" style="stroke:#000000; stroke-linecap:round; stroke-linejoin:round; stroke-width:4; stroke-opacity:1; fill:none" points="194.665,1087.98 213.562,1087.98 "/>
<polyline clip-path="url(#clip150)" style="stroke:#000000; stroke-linecap:round; stroke-linejoin:round; stroke-width:4; stroke-opacity:1; fill:none" points="194.665,741.066 213.562,741.066 "/>
<polyline clip-path="url(#clip150)" style="stroke:#000000; stroke-linecap:round; stroke-linejoin:round; stroke-width:4; stroke-opacity:1; fill:none" points="194.665,394.155 213.562,394.155 "/>
<polyline clip-path="url(#clip150)" style="stroke:#000000; stroke-linecap:round; stroke-linejoin:round; stroke-width:4; stroke-opacity:1; fill:none" points="194.665,47.2441 213.562,47.2441 "/>
<g clip-path="url(#clip150)">
<text style="fill:#000000; fill-opacity:1; font-family:Arial,Helvetica Neue,Helvetica,sans-serif; font-size:48px; text-anchor:middle;" transform="rotate(0, 151.283, 1799.3)" x="151.283" y="1799.3">0</text>
</g>
<g clip-path="url(#clip150)">
<text style="fill:#000000; fill-opacity:1; font-family:Arial,Helvetica Neue,Helvetica,sans-serif; font-size:48px; text-anchor:middle;" transform="rotate(0, 151.283, 1452.39)" x="151.283" y="1452.39">1</text>
</g>
<g clip-path="url(#clip150)">
<text style="fill:#000000; fill-opacity:1; font-family:Arial,Helvetica Neue,Helvetica,sans-serif; font-size:48px; text-anchor:middle;" transform="rotate(0, 151.283, 1105.48)" x="151.283" y="1105.48">2</text>
</g>
<g clip-path="url(#clip150)">
<text style="fill:#000000; fill-opacity:1; font-family:Arial,Helvetica Neue,Helvetica,sans-serif; font-size:48px; text-anchor:middle;" transform="rotate(0, 151.283, 758.566)" x="151.283" y="758.566">3</text>
</g>
<g clip-path="url(#clip150)">
<text style="fill:#000000; fill-opacity:1; font-family:Arial,Helvetica Neue,Helvetica,sans-serif; font-size:48px; text-anchor:middle;" transform="rotate(0, 151.283, 411.655)" x="151.283" y="411.655">4</text>
</g>
<g clip-path="url(#clip150)">
<text style="fill:#000000; fill-opacity:1; font-family:Arial,Helvetica Neue,Helvetica,sans-serif; font-size:48px; text-anchor:middle;" transform="rotate(0, 151.283, 64.7441)" x="151.283" y="64.7441">5</text>
</g>
<g clip-path="url(#clip150)">
<text style="fill:#000000; fill-opacity:1; font-family:Arial,Helvetica Neue,Helvetica,sans-serif; font-size:66px; text-anchor:middle;" transform="rotate(-90, 96.3402, 914.521)" x="96.3402" y="914.521">2nd Dim</text>
</g>
<circle clip-path="url(#clip152)" cx="563.864" cy="1070.63" r="14.4" fill="#0000ff" fill-rule="evenodd" fill-opacity="1" stroke="#000000" stroke-opacity="1" stroke-width="4"/>
<path clip-path="url(#clip150)" d="M459.472 989.455 L476.648 989.455 L476.648 995.248 L466.926 995.248 L466.926 1057.63 L476.648 1057.63 L476.648 1063.42 L459.472 1063.42 L459.472 989.455 Z" fill="#000000" fill-rule="evenodd" fill-opacity="1" /><path clip-path="url(#clip150)" d="M494.998 1045.6 L508.366 1045.6 L508.366 999.461 L493.824 1002.38 L493.824 994.924 L508.285 992.007 L516.468 992.007 L516.468 1045.6 L529.836 1045.6 L529.836 1052.49 L494.998 1052.49 L494.998 1045.6 Z" fill="#000000" fill-rule="evenodd" fill-opacity="1" /><path clip-path="url(#clip150)" d="M547.215 1042.2 L555.762 1042.2 L555.762 1049.17 L549.118 1062.13 L543.893 1062.13 L547.215 1049.17 L547.215 1042.2 Z" fill="#000000" fill-rule="evenodd" fill-opacity="1" /><path clip-path="url(#clip150)" d="M606.155 1045.6 L634.714 1045.6 L634.714 1052.49 L596.312 1052.49 L596.312 1045.6 Q600.97 1040.78 608.991 1032.68 Q617.052 1024.54 619.118 1022.19 Q623.047 1017.77 624.587 1014.73 Q626.167 1011.65 626.167 1008.7 Q626.167 1003.88 622.764 1000.84 Q619.402 997.8 613.973 997.8 Q610.125 997.8 605.831 999.136 Q601.578 1000.47 596.717 1003.19 L596.717 994.924 Q601.659 992.939 605.953 991.926 Q610.247 990.913 613.811 990.913 Q623.21 990.913 628.8 995.612 Q634.39 1000.31 634.39 1008.17 Q634.39 1011.9 632.972 1015.26 Q631.595 1018.58 627.909 1023.12 Q626.896 1024.29 621.468 1029.92 Q616.039 1035.51 606.155 1045.6 Z" fill="#000000" fill-rule="evenodd" fill-opacity="1" /><path clip-path="url(#clip150)" d="M668.256 989.455 L668.256 1063.42 L651.08 1063.42 L651.08 1057.63 L660.761 1057.63 L660.761 995.248 L651.08 995.248 L651.08 989.455 L668.256 989.455 Z" fill="#000000" fill-rule="evenodd" fill-opacity="1" /><polyline clip-path="url(#clip152)" style="stroke:#0000ff; stroke-linecap:round; stroke-linejoin:round; stroke-width:6; stroke-opacity:1; fill:none" points="194.665,1781.8 546.283,1087.98 "/>
<polyline clip-path="url(#clip152)" style="stroke:#0000ff; stroke-linecap:round; stroke-linejoin:round; stroke-width:6; stroke-opacity:1; fill:none" points="519.342,1107.96 546.283,1087.98 546.101,1121.52 "/>
<polyline clip-path="url(#clip152)" style="stroke:#0000ff; stroke-linecap:round; stroke-linejoin:round; stroke-width:6; stroke-opacity:1; fill:none" points="546.283,1087.98 194.665,1781.8 "/>
<circle clip-path="url(#clip152)" cx="739.673" cy="723.72" r="14.4" fill="#0000ff" fill-rule="evenodd" fill-opacity="1" stroke="#000000" stroke-opacity="1" stroke-width="4"/>
<path clip-path="url(#clip150)" d="M556.126 642.544 L573.302 642.544 L573.302 648.337 L563.58 648.337 L563.58 710.721 L573.302 710.721 L573.302 716.514 L556.126 716.514 L556.126 642.544 Z" fill="#000000" fill-rule="evenodd" fill-opacity="1" /><path clip-path="url(#clip150)" d="M591.653 698.69 L605.021 698.69 L605.021 652.55 L590.478 655.466 L590.478 648.013 L604.94 645.096 L613.123 645.096 L613.123 698.69 L626.491 698.69 L626.491 705.576 L591.653 705.576 L591.653 698.69 Z" fill="#000000" fill-rule="evenodd" fill-opacity="1" /><path clip-path="url(#clip150)" d="M643.018 695.287 L651.566 695.287 L651.566 705.576 L643.018 705.576 L643.018 695.287 Z" fill="#000000" fill-rule="evenodd" fill-opacity="1" /><path clip-path="url(#clip150)" d="M669.471 645.096 L701.594 645.096 L701.594 651.983 L676.965 651.983 L676.965 666.809 Q678.747 666.201 680.53 665.918 Q682.312 665.594 684.095 665.594 Q694.222 665.594 700.136 671.143 Q706.05 676.693 706.05 686.172 Q706.05 695.935 699.974 701.363 Q693.898 706.751 682.839 706.751 Q679.031 706.751 675.061 706.103 Q671.132 705.455 666.919 704.158 L666.919 695.935 Q670.564 697.92 674.453 698.892 Q678.342 699.864 682.677 699.864 Q689.685 699.864 693.776 696.178 Q697.868 692.492 697.868 686.172 Q697.868 679.853 693.776 676.167 Q689.685 672.48 682.677 672.48 Q679.395 672.48 676.114 673.209 Q672.874 673.939 669.471 675.478 L669.471 645.096 Z" fill="#000000" fill-rule="evenodd" fill-opacity="1" /><path clip-path="url(#clip150)" d="M723.024 695.287 L731.571 695.287 L731.571 702.254 L724.928 715.217 L719.702 715.217 L723.024 702.254 L723.024 695.287 Z" fill="#000000" fill-rule="evenodd" fill-opacity="1" /><path clip-path="url(#clip150)" d="M799.707 672.966 Q805.581 674.222 808.862 678.192 Q812.184 682.162 812.184 687.995 Q812.184 696.948 806.027 701.849 Q799.869 706.751 788.527 706.751 Q784.719 706.751 780.668 705.981 Q776.658 705.252 772.364 703.753 L772.364 695.854 Q775.766 697.839 779.817 698.852 Q783.868 699.864 788.284 699.864 Q795.98 699.864 799.991 696.826 Q804.042 693.788 804.042 687.995 Q804.042 682.648 800.274 679.65 Q796.548 676.612 789.864 676.612 L782.815 676.612 L782.815 669.888 L790.188 669.888 Q796.224 669.888 799.424 667.498 Q802.624 665.067 802.624 660.53 Q802.624 655.872 799.302 653.4 Q796.021 650.889 789.864 650.889 Q786.501 650.889 782.653 651.618 Q778.805 652.347 774.187 653.887 L774.187 646.595 Q778.845 645.299 782.896 644.651 Q786.987 644.002 790.593 644.002 Q799.91 644.002 805.338 648.256 Q810.766 652.469 810.766 659.679 Q810.766 664.702 807.89 668.186 Q805.014 671.63 799.707 672.966 Z" fill="#000000" fill-rule="evenodd" fill-opacity="1" /><path clip-path="url(#clip150)" d="M827.699 695.287 L836.246 695.287 L836.246 705.576 L827.699 705.576 L827.699 695.287 Z" fill="#000000" fill-rule="evenodd" fill-opacity="1" /><path clip-path="url(#clip150)" d="M871.57 650.484 Q865.251 650.484 862.051 656.722 Q858.891 662.92 858.891 675.397 Q858.891 687.833 862.051 694.072 Q865.251 700.269 871.57 700.269 Q877.93 700.269 881.09 694.072 Q884.29 687.833 884.29 675.397 Q884.29 662.92 881.09 656.722 Q877.93 650.484 871.57 650.484 M871.57 644.002 Q881.738 644.002 887.085 652.064 Q892.473 660.084 892.473 675.397 Q892.473 690.669 887.085 698.73 Q881.738 706.751 871.57 706.751 Q861.403 706.751 856.015 698.73 Q850.668 690.669 850.668 675.397 Q850.668 660.084 856.015 652.064 Q861.403 644.002 871.57 644.002 Z" fill="#000000" fill-rule="evenodd" fill-opacity="1" /><path clip-path="url(#clip150)" d="M923.219 642.544 L923.219 716.514 L906.044 716.514 L906.044 710.721 L915.725 710.721 L915.725 648.337 L906.044 648.337 L906.044 642.544 L923.219 642.544 Z" fill="#000000" fill-rule="evenodd" fill-opacity="1" /><polyline clip-path="url(#clip152)" style="stroke:#ff0000; stroke-linecap:round; stroke-linejoin:round; stroke-width:6; stroke-opacity:1; fill:none" points="194.665,1781.8 722.092,741.066 "/>
<polyline clip-path="url(#clip152)" style="stroke:#ff0000; stroke-linecap:round; stroke-linejoin:round; stroke-width:6; stroke-opacity:1; fill:none" points="695.151,761.045 722.092,741.066 721.91,774.606 "/>
<polyline clip-path="url(#clip152)" style="stroke:#ff0000; stroke-linecap:round; stroke-linejoin:round; stroke-width:6; stroke-opacity:1; fill:none" points="722.092,741.066 194.665,1781.8 "/>
</svg>
