<?xml version="1.0" encoding="utf-8"?>
<svg xmlns="http://www.w3.org/2000/svg" xmlns:xlink="http://www.w3.org/1999/xlink" width="500" height="500" viewBox="0 0 2000 2000">
<defs>
  <clipPath id="clip820">
    <rect x="0" y="0" width="2000" height="2000"/>
  </clipPath>
</defs>
<path clip-path="url(#clip820)" d="M0 2000 L2000 2000 L2000 0 L0 0  Z" fill="#ffffff" fill-rule="evenodd" fill-opacity="1"/>
<defs>
  <clipPath id="clip821">
    <rect x="400" y="200" width="1401" height="1401"/>
  </clipPath>
</defs>
<path clip-path="url(#clip820)" d="M221.427 1781.8 L1952.76 1781.8 L1952.76 47.2441 L221.427 47.2441  Z" fill="#ffffff" fill-rule="evenodd" fill-opacity="1"/>
<defs>
  <clipPath id="clip822">
    <rect x="221" y="47" width="1732" height="1736"/>
  </clipPath>
</defs>
<polyline clip-path="url(#clip820)" style="stroke:#000000; stroke-linecap:round; stroke-linejoin:round; stroke-width:4; stroke-opacity:1; fill:none" points="221.427,1781.8 1952.76,1781.8 "/>
<polyline clip-path="url(#clip820)" style="stroke:#000000; stroke-linecap:round; stroke-linejoin:round; stroke-width:4; stroke-opacity:1; fill:none" points="221.427,47.2441 1952.76,47.2441 "/>
<polyline clip-path="url(#clip820)" style="stroke:#000000; stroke-linecap:round; stroke-linejoin:round; stroke-width:4; stroke-opacity:1; fill:none" points="221.427,1781.8 221.427,1762.9 "/>
<polyline clip-path="url(#clip820)" style="stroke:#000000; stroke-linecap:round; stroke-linejoin:round; stroke-width:4; stroke-opacity:1; fill:none" points="567.693,1781.8 567.693,1762.9 "/>
<polyline clip-path="url(#clip820)" style="stroke:#000000; stroke-linecap:round; stroke-linejoin:round; stroke-width:4; stroke-opacity:1; fill:none" points="913.959,1781.8 913.959,1762.9 "/>
<polyline clip-path="url(#clip820)" style="stroke:#000000; stroke-linecap:round; stroke-linejoin:round; stroke-width:4; stroke-opacity:1; fill:none" points="1260.22,1781.8 1260.22,1762.9 "/>
<polyline clip-path="url(#clip820)" style="stroke:#000000; stroke-linecap:round; stroke-linejoin:round; stroke-width:4; stroke-opacity:1; fill:none" points="1606.49,1781.8 1606.49,1762.9 "/>
<polyline clip-path="url(#clip820)" style="stroke:#000000; stroke-linecap:round; stroke-linejoin:round; stroke-width:4; stroke-opacity:1; fill:none" points="1952.76,1781.8 1952.76,1762.9 "/>
<g clip-path="url(#clip820)">
<text style="fill:#000000; fill-opacity:1; font-family:Arial,Helvetica Neue,Helvetica,sans-serif; font-size:48px; text-anchor:middle;" transform="rotate(0, 221.427, 1840.45)" x="221.427" y="1840.45">0</text>
</g>
<g clip-path="url(#clip820)">
<text style="fill:#000000; fill-opacity:1; font-family:Arial,Helvetica Neue,Helvetica,sans-serif; font-size:48px; text-anchor:middle;" transform="rotate(0, 567.693, 1840.45)" x="567.693" y="1840.45">2</text>
</g>
<g clip-path="url(#clip820)">
<text style="fill:#000000; fill-opacity:1; font-family:Arial,Helvetica Neue,Helvetica,sans-serif; font-size:48px; text-anchor:middle;" transform="rotate(0, 913.959, 1840.45)" x="913.959" y="1840.45">4</text>
</g>
<g clip-path="url(#clip820)">
<text style="fill:#000000; fill-opacity:1; font-family:Arial,Helvetica Neue,Helvetica,sans-serif; font-size:48px; text-anchor:middle;" transform="rotate(0, 1260.22, 1840.45)" x="1260.22" y="1840.45">6</text>
</g>
<g clip-path="url(#clip820)">
<text style="fill:#000000; fill-opacity:1; font-family:Arial,Helvetica Neue,Helvetica,sans-serif; font-size:48px; text-anchor:middle;" transform="rotate(0, 1606.49, 1840.45)" x="1606.49" y="1840.45">8</text>
</g>
<g clip-path="url(#clip820)">
<text style="fill:#000000; fill-opacity:1; font-family:Arial,Helvetica Neue,Helvetica,sans-serif; font-size:48px; text-anchor:middle;" transform="rotate(0, 1952.76, 1840.45)" x="1952.76" y="1840.45">10</text>
</g>
<g clip-path="url(#clip820)">
<text style="fill:#000000; fill-opacity:1; font-family:Arial,Helvetica Neue,Helvetica,sans-serif; font-size:66px; text-anchor:middle;" transform="rotate(0, 1087.09, 1921.66)" x="1087.09" y="1921.66">1st Dim</text>
</g>
<polyline clip-path="url(#clip820)" style="stroke:#000000; stroke-linecap:round; stroke-linejoin:round; stroke-width:4; stroke-opacity:1; fill:none" points="221.427,1781.8 221.427,47.2441 "/>
<polyline clip-path="url(#clip820)" style="stroke:#000000; stroke-linecap:round; stroke-linejoin:round; stroke-width:4; stroke-opacity:1; fill:none" points="1952.76,1781.8 1952.76,47.2441 "/>
<polyline clip-path="url(#clip820)" style="stroke:#000000; stroke-linecap:round; stroke-linejoin:round; stroke-width:4; stroke-opacity:1; fill:none" points="221.427,1781.8 240.325,1781.8 "/>
<polyline clip-path="url(#clip820)" style="stroke:#000000; stroke-linecap:round; stroke-linejoin:round; stroke-width:4; stroke-opacity:1; fill:none" points="221.427,1434.89 240.325,1434.89 "/>
<polyline clip-path="url(#clip820)" style="stroke:#000000; stroke-linecap:round; stroke-linejoin:round; stroke-width:4; stroke-opacity:1; fill:none" points="221.427,1087.98 240.325,1087.98 "/>
<polyline clip-path="url(#clip820)" style="stroke:#000000; stroke-linecap:round; stroke-linejoin:round; stroke-width:4; stroke-opacity:1; fill:none" points="221.427,741.066 240.325,741.066 "/>
<polyline clip-path="url(#clip820)" style="stroke:#000000; stroke-linecap:round; stroke-linejoin:round; stroke-width:4; stroke-opacity:1; fill:none" points="221.427,394.155 240.325,394.155 "/>
<polyline clip-path="url(#clip820)" style="stroke:#000000; stroke-linecap:round; stroke-linejoin:round; stroke-width:4; stroke-opacity:1; fill:none" points="221.427,47.2441 240.325,47.2441 "/>
<g clip-path="url(#clip820)">
<text style="fill:#000000; fill-opacity:1; font-family:Arial,Helvetica Neue,Helvetica,sans-serif; font-size:48px; text-anchor:middle;" transform="rotate(0, 178.046, 1799.3)" x="178.046" y="1799.3">0</text>
</g>
<g clip-path="url(#clip820)">
<text style="fill:#000000; fill-opacity:1; font-family:Arial,Helvetica Neue,Helvetica,sans-serif; font-size:48px; text-anchor:middle;" transform="rotate(0, 178.046, 1452.39)" x="178.046" y="1452.39">2</text>
</g>
<g clip-path="url(#clip820)">
<text style="fill:#000000; fill-opacity:1; font-family:Arial,Helvetica Neue,Helvetica,sans-serif; font-size:48px; text-anchor:middle;" transform="rotate(0, 178.046, 1105.48)" x="178.046" y="1105.48">4</text>
</g>
<g clip-path="url(#clip820)">
<text style="fill:#000000; fill-opacity:1; font-family:Arial,Helvetica Neue,Helvetica,sans-serif; font-size:48px; text-anchor:middle;" transform="rotate(0, 178.046, 758.566)" x="178.046" y="758.566">6</text>
</g>
<g clip-path="url(#clip820)">
<text style="fill:#000000; fill-opacity:1; font-family:Arial,Helvetica Neue,Helvetica,sans-serif; font-size:48px; text-anchor:middle;" transform="rotate(0, 178.046, 411.655)" x="178.046" y="411.655">8</text>
</g>
<g clip-path="url(#clip820)">
<text style="fill:#000000; fill-opacity:1; font-family:Arial,Helvetica Neue,Helvetica,sans-serif; font-size:48px; text-anchor:middle;" transform="rotate(0, 164.665, 64.7441)" x="164.665" y="64.7441">10</text>
</g>
<g clip-path="url(#clip820)">
<text style="fill:#000000; fill-opacity:1; font-family:Arial,Helvetica Neue,Helvetica,sans-serif; font-size:66px; text-anchor:middle;" transform="rotate(-90, 96.3402, 914.521)" x="96.3402" y="914.521">2nd Dim</text>
</g>
<circle clip-path="url(#clip822)" cx="922.615" cy="558.937" r="14.4" fill="#0000ff" fill-rule="evenodd" fill-opacity="1" stroke="#000000" stroke-opacity="1" stroke-width="4"/>
<path clip-path="url(#clip820)" d="M818.223 477.761 L835.399 477.761 L835.399 483.554 L825.677 483.554 L825.677 545.938 L835.399 545.938 L835.399 551.731 L818.223 551.731 L818.223 477.761 Z" fill="#000000" fill-rule="evenodd" fill-opacity="1" /><path clip-path="url(#clip820)" d="M874.815 487.443 L854.155 519.729 L874.815 519.729 L874.815 487.443 M872.668 480.313 L882.957 480.313 L882.957 519.729 L891.585 519.729 L891.585 526.534 L882.957 526.534 L882.957 540.793 L874.815 540.793 L874.815 526.534 L847.511 526.534 L847.511 518.635 L872.668 480.313 Z" fill="#000000" fill-rule="evenodd" fill-opacity="1" /><path clip-path="url(#clip820)" d="M905.966 530.504 L914.513 530.504 L914.513 537.472 L907.87 550.435 L902.644 550.435 L905.966 537.472 L905.966 530.504 Z" fill="#000000" fill-rule="evenodd" fill-opacity="1" /><path clip-path="url(#clip820)" d="M955.792 480.313 L994.681 480.313 L994.681 483.797 L972.725 540.793 L964.177 540.793 L984.837 487.2 L955.792 487.2 L955.792 480.313 Z" fill="#000000" fill-rule="evenodd" fill-opacity="1" /><path clip-path="url(#clip820)" d="M1027.01 477.761 L1027.01 551.731 L1009.83 551.731 L1009.83 545.938 L1019.51 545.938 L1019.51 483.554 L1009.83 483.554 L1009.83 477.761 L1027.01 477.761 Z" fill="#000000" fill-rule="evenodd" fill-opacity="1" /><polyline clip-path="url(#clip822)" style="stroke:#0000ff; stroke-linecap:round; stroke-linejoin:round; stroke-width:6; stroke-opacity:1; fill:none" points="221.427,1781.8 913.959,567.61 "/>
<polyline clip-path="url(#clip822)" style="stroke:#0000ff; stroke-linecap:round; stroke-linejoin:round; stroke-width:6; stroke-opacity:1; fill:none" points="886.066,586.238 913.959,567.61 912.125,601.101 "/>
<polyline clip-path="url(#clip822)" style="stroke:#0000ff; stroke-linecap:round; stroke-linejoin:round; stroke-width:6; stroke-opacity:1; fill:none" points="913.959,567.61 221.427,1781.8 "/>
</svg>
