<?xml version="1.0" encoding="utf-8"?>
<svg xmlns="http://www.w3.org/2000/svg" xmlns:xlink="http://www.w3.org/1999/xlink" width="500" height="500" viewBox="0 0 2000 2000">
<defs>
  <clipPath id="clip030">
    <rect x="0" y="0" width="2000" height="2000"/>
  </clipPath>
</defs>
<path clip-path="url(#clip030)" d="M0 2000 L2000 2000 L2000 0 L0 0  Z" fill="#ffffff" fill-rule="evenodd" fill-opacity="1"/>
<defs>
  <clipPath id="clip031">
    <rect x="400" y="200" width="1401" height="1401"/>
  </clipPath>
</defs>
<path clip-path="url(#clip030)" d="M194.665 1781.8 L1952.76 1781.8 L1952.76 47.2441 L194.665 47.2441  Z" fill="#ffffff" fill-rule="evenodd" fill-opacity="1"/>
<defs>
  <clipPath id="clip032">
    <rect x="194" y="47" width="1759" height="1736"/>
  </clipPath>
</defs>
<polyline clip-path="url(#clip030)" style="stroke:#000000; stroke-linecap:round; stroke-linejoin:round; stroke-width:4; stroke-opacity:1; fill:none" points="194.665,1781.8 1952.76,1781.8 "/>
<polyline clip-path="url(#clip030)" style="stroke:#000000; stroke-linecap:round; stroke-linejoin:round; stroke-width:4; stroke-opacity:1; fill:none" points="194.665,47.2441 1952.76,47.2441 "/>
<polyline clip-path="url(#clip030)" style="stroke:#000000; stroke-linecap:round; stroke-linejoin:round; stroke-width:4; stroke-opacity:1; fill:none" points="194.665,1781.8 194.665,1762.9 "/>
<polyline clip-path="url(#clip030)" style="stroke:#000000; stroke-linecap:round; stroke-linejoin:round; stroke-width:4; stroke-opacity:1; fill:none" points="546.283,1781.8 546.283,1762.9 "/>
<polyline clip-path="url(#clip030)" style="stroke:#000000; stroke-linecap:round; stroke-linejoin:round; stroke-width:4; stroke-opacity:1; fill:none" points="897.901,1781.8 897.901,1762.9 "/>
<polyline clip-path="url(#clip030)" style="stroke:#000000; stroke-linecap:round; stroke-linejoin:round; stroke-width:4; stroke-opacity:1; fill:none" points="1249.52,1781.8 1249.52,1762.9 "/>
<polyline clip-path="url(#clip030)" style="stroke:#000000; stroke-linecap:round; stroke-linejoin:round; stroke-width:4; stroke-opacity:1; fill:none" points="1601.14,1781.8 1601.14,1762.9 "/>
<polyline clip-path="url(#clip030)" style="stroke:#000000; stroke-linecap:round; stroke-linejoin:round; stroke-width:4; stroke-opacity:1; fill:none" points="1952.76,1781.8 1952.76,1762.9 "/>
<g clip-path="url(#clip030)">
<text style="fill:#000000; fill-opacity:1; font-family:Arial,Helvetica Neue,Helvetica,sans-serif; font-size:48px; text-anchor:middle;" transform="rotate(0, 194.665, 1840.45)" x="194.665" y="1840.45">0</text>
</g>
<g clip-path="url(#clip030)">
<text style="fill:#000000; fill-opacity:1; font-family:Arial,Helvetica Neue,Helvetica,sans-serif; font-size:48px; text-anchor:middle;" transform="rotate(0, 546.283, 1840.45)" x="546.283" y="1840.45">1</text>
</g>
<g clip-path="url(#clip030)">
<text style="fill:#000000; fill-opacity:1; font-family:Arial,Helvetica Neue,Helvetica,sans-serif; font-size:48px; text-anchor:middle;" transform="rotate(0, 897.901, 1840.45)" x="897.901" y="1840.45">2</text>
</g>
<g clip-path="url(#clip030)">
<text style="fill:#000000; fill-opacity:1; font-family:Arial,Helvetica Neue,Helvetica,sans-serif; font-size:48px; text-anchor:middle;" transform="rotate(0, 1249.52, 1840.45)" x="1249.52" y="1840.45">3</text>
</g>
<g clip-path="url(#clip030)">
<text style="fill:#000000; fill-opacity:1; font-family:Arial,Helvetica Neue,Helvetica,sans-serif; font-size:48px; text-anchor:middle;" transform="rotate(0, 1601.14, 1840.45)" x="1601.14" y="1840.45">4</text>
</g>
<g clip-path="url(#clip030)">
<text style="fill:#000000; fill-opacity:1; font-family:Arial,Helvetica Neue,Helvetica,sans-serif; font-size:48px; text-anchor:middle;" transform="rotate(0, 1952.76, 1840.45)" x="1952.76" y="1840.45">5</text>
</g>
<g clip-path="url(#clip030)">
<text style="fill:#000000; fill-opacity:1; font-family:Arial,Helvetica Neue,Helvetica,sans-serif; font-size:66px; text-anchor:middle;" transform="rotate(0, 1073.71, 1921.66)" x="1073.71" y="1921.66">1st Dim</text>
</g>
<polyline clip-path="url(#clip030)" style="stroke:#000000; stroke-linecap:round; stroke-linejoin:round; stroke-width:4; stroke-opacity:1; fill:none" points="194.665,1781.8 194.665,47.2441 "/>
<polyline clip-path="url(#clip030)" style="stroke:#000000; stroke-linecap:round; stroke-linejoin:round; stroke-width:4; stroke-opacity:1; fill:none" points="1952.76,1781.8 1952.76,47.2441 "/>
<polyline clip-path="url(#clip030)" style="stroke:#000000; stroke-linecap:round; stroke-linejoin:round; stroke-width:4; stroke-opacity:1; fill:none" points="194.665,1781.8 213.562,1781.8 "/>
<polyline clip-path="url(#clip030)" style="stroke:#000000; stroke-linecap:round; stroke-linejoin:round; stroke-width:4; stroke-opacity:1; fill:none" points="194.665,1434.89 213.562,1434.89 "/>
<polyline clip-path="url(#clip030)" style="stroke:#000000; stroke-linecap:round; stroke-linejoin:round; stroke-width:4; stroke-opacity:1; fill:none" points="194.665,1087.98 213.562,1087.98 "/>
<polyline clip-path="url(#clip030)" style="stroke:#000000; stroke-linecap:round; stroke-linejoin:round; stroke-width:4; stroke-opacity:1; fill:none" points="194.665,741.066 213.562,741.066 "/>
<polyline clip-path="url(#clip030)" style="stroke:#000000; stroke-linecap:round; stroke-linejoin:round; stroke-width:4; stroke-opacity:1; fill:none" points="194.665,394.155 213.562,394.155 "/>
<polyline clip-path="url(#clip030)" style="stroke:#000000; stroke-linecap:round; stroke-linejoin:round; stroke-width:4; stroke-opacity:1; fill:none" points="194.665,47.2441 213.562,47.2441 "/>
<g clip-path="url(#clip030)">
<text style="fill:#000000; fill-opacity:1; font-family:Arial,Helvetica Neue,Helvetica,sans-serif; font-size:48px; text-anchor:middle;" transform="rotate(0, 151.283, 1799.3)" x="151.283" y="1799.3">0</text>
</g>
<g clip-path="url(#clip030)">
<text style="fill:#000000; fill-opacity:1; font-family:Arial,Helvetica Neue,Helvetica,sans-serif; font-size:48px; text-anchor:middle;" transform="rotate(0, 151.283, 1452.39)" x="151.283" y="1452.39">1</text>
</g>
<g clip-path="url(#clip030)">
<text style="fill:#000000; fill-opacity:1; font-family:Arial,Helvetica Neue,Helvetica,sans-serif; font-size:48px; text-anchor:middle;" transform="rotate(0, 151.283, 1105.48)" x="151.283" y="1105.48">2</text>
</g>
<g clip-path="url(#clip030)">
<text style="fill:#000000; fill-opacity:1; font-family:Arial,Helvetica Neue,Helvetica,sans-serif; font-size:48px; text-anchor:middle;" transform="rotate(0, 151.283, 758.566)" x="151.283" y="758.566">3</text>
</g>
<g clip-path="url(#clip030)">
<text style="fill:#000000; fill-opacity:1; font-family:Arial,Helvetica Neue,Helvetica,sans-serif; font-size:48px; text-anchor:middle;" transform="rotate(0, 151.283, 411.655)" x="151.283" y="411.655">4</text>
</g>
<g clip-path="url(#clip030)">
<text style="fill:#000000; fill-opacity:1; font-family:Arial,Helvetica Neue,Helvetica,sans-serif; font-size:48px; text-anchor:middle;" transform="rotate(0, 151.283, 64.7441)" x="151.283" y="64.7441">5</text>
</g>
<g clip-path="url(#clip030)">
<text style="fill:#000000; fill-opacity:1; font-family:Arial,Helvetica Neue,Helvetica,sans-serif; font-size:66px; text-anchor:middle;" transform="rotate(-90, 96.3402, 914.521)" x="96.3402" y="914.521">2nd Dim</text>
</g>
<circle clip-path="url(#clip032)" cx="563.864" cy="1070.63" r="14.4" fill="#0000ff" fill-rule="evenodd" fill-opacity="1" stroke="#000000" stroke-opacity="1" stroke-width="4"/>
<path clip-path="url(#clip030)" d="M459.472 989.455 L476.648 989.455 L476.648 995.248 L466.926 995.248 L466.926 1057.63 L476.648 1057.63 L476.648 1063.42 L459.472 1063.42 L459.472 989.455 Z" fill="#000000" fill-rule="evenodd" fill-opacity="1" /><path clip-path="url(#clip030)" d="M494.998 1045.6 L508.366 1045.6 L508.366 999.461 L493.824 1002.38 L493.824 994.924 L508.285 992.007 L516.468 992.007 L516.468 1045.6 L529.836 1045.6 L529.836 1052.49 L494.998 1052.49 L494.998 1045.6 Z" fill="#000000" fill-rule="evenodd" fill-opacity="1" /><path clip-path="url(#clip030)" d="M547.215 1042.2 L555.762 1042.2 L555.762 1049.17 L549.118 1062.13 L543.893 1062.13 L547.215 1049.17 L547.215 1042.2 Z" fill="#000000" fill-rule="evenodd" fill-opacity="1" /><path clip-path="url(#clip030)" d="M606.155 1045.6 L634.714 1045.6 L634.714 1052.49 L596.312 1052.49 L596.312 1045.6 Q600.97 1040.78 608.991 1032.68 Q617.052 1024.54 619.118 1022.19 Q623.047 1017.77 624.587 1014.73 Q626.167 1011.65 626.167 1008.7 Q626.167 1003.88 622.764 1000.84 Q619.402 997.8 613.973 997.8 Q610.125 997.8 605.831 999.136 Q601.578 1000.47 596.717 1003.19 L596.717 994.924 Q601.659 992.939 605.953 991.926 Q610.247 990.913 613.811 990.913 Q623.21 990.913 628.8 995.612 Q634.39 1000.31 634.39 1008.17 Q634.39 1011.9 632.972 1015.26 Q631.595 1018.58 627.909 1023.12 Q626.896 1024.29 621.468 1029.92 Q616.039 1035.51 606.155 1045.6 Z" fill="#000000" fill-rule="evenodd" fill-opacity="1" /><path clip-path="url(#clip030)" d="M668.256 989.455 L668.256 1063.42 L651.08 1063.42 L651.08 1057.63 L660.761 1057.63 L660.761 995.248 L651.08 995.248 L651.08 989.455 L668.256 989.455 Z" fill="#000000" fill-rule="evenodd" fill-opacity="1" /><polyline clip-path="url(#clip032)" style="stroke:#0000ff; stroke-linecap:round; stroke-linejoin:round; stroke-width:6; stroke-opacity:1; fill:none" points="194.665,1781.8 546.283,1087.98 "/>
<polyline clip-path="url(#clip032)" style="stroke:#0000ff; stroke-linecap:round; stroke-linejoin:round; stroke-width:6; stroke-opacity:1; fill:none" points="519.342,1107.96 546.283,1087.98 546.101,1121.52 "/>
<polyline clip-path="url(#clip032)" style="stroke:#0000ff; stroke-linecap:round; stroke-linejoin:round; stroke-width:6; stroke-opacity:1; fill:none" points="546.283,1087.98 194.665,1781.8 "/>
<circle clip-path="url(#clip032)" cx="1267.1" cy="1417.54" r="14.4" fill="#0000ff" fill-rule="evenodd" fill-opacity="1" stroke="#000000" stroke-opacity="1" stroke-width="4"/>
<path clip-path="url(#clip030)" d="M1162.71 1336.37 L1179.88 1336.37 L1179.88 1342.16 L1170.16 1342.16 L1170.16 1404.54 L1179.88 1404.54 L1179.88 1410.34 L1162.71 1410.34 L1162.71 1336.37 Z" fill="#000000" fill-rule="evenodd" fill-opacity="1" /><path clip-path="url(#clip030)" d="M1221.61 1366.79 Q1227.48 1368.04 1230.76 1372.01 Q1234.09 1375.98 1234.09 1381.82 Q1234.09 1390.77 1227.93 1395.67 Q1221.77 1400.57 1210.43 1400.57 Q1206.62 1400.57 1202.57 1399.8 Q1198.56 1399.07 1194.27 1397.57 L1194.27 1389.68 Q1197.67 1391.66 1201.72 1392.67 Q1205.77 1393.69 1210.19 1393.69 Q1217.88 1393.69 1221.89 1390.65 Q1225.94 1387.61 1225.94 1381.82 Q1225.94 1376.47 1222.18 1373.47 Q1218.45 1370.43 1211.76 1370.43 L1204.72 1370.43 L1204.72 1363.71 L1212.09 1363.71 Q1218.12 1363.71 1221.33 1361.32 Q1224.53 1358.89 1224.53 1354.35 Q1224.53 1349.69 1221.2 1347.22 Q1217.92 1344.71 1211.76 1344.71 Q1208.4 1344.71 1204.55 1345.44 Q1200.71 1346.17 1196.09 1347.71 L1196.09 1340.42 Q1200.75 1339.12 1204.8 1338.47 Q1208.89 1337.82 1212.49 1337.82 Q1221.81 1337.82 1227.24 1342.08 Q1232.67 1346.29 1232.67 1353.5 Q1232.67 1358.52 1229.79 1362.01 Q1226.92 1365.45 1221.61 1366.79 Z" fill="#000000" fill-rule="evenodd" fill-opacity="1" /><path clip-path="url(#clip030)" d="M1250.45 1389.11 L1259 1389.11 L1259 1396.08 L1252.36 1409.04 L1247.13 1409.04 L1250.45 1396.08 L1250.45 1389.11 Z" fill="#000000" fill-rule="evenodd" fill-opacity="1" /><path clip-path="url(#clip030)" d="M1303.76 1392.51 L1317.13 1392.51 L1317.13 1346.37 L1302.59 1349.29 L1302.59 1341.83 L1317.05 1338.92 L1325.23 1338.92 L1325.23 1392.51 L1338.6 1392.51 L1338.6 1399.4 L1303.76 1399.4 L1303.76 1392.51 Z" fill="#000000" fill-rule="evenodd" fill-opacity="1" /><path clip-path="url(#clip030)" d="M1371.49 1336.37 L1371.49 1410.34 L1354.32 1410.34 L1354.32 1404.54 L1364 1404.54 L1364 1342.16 L1354.32 1342.16 L1354.32 1336.37 L1371.49 1336.37 Z" fill="#000000" fill-rule="evenodd" fill-opacity="1" /><polyline clip-path="url(#clip032)" style="stroke:#ff0000; stroke-linecap:round; stroke-linejoin:round; stroke-width:6; stroke-opacity:1; fill:none" points="194.665,1781.8 1249.52,1434.89 "/>
<polyline clip-path="url(#clip032)" style="stroke:#ff0000; stroke-linecap:round; stroke-linejoin:round; stroke-width:6; stroke-opacity:1; fill:none" points="1216.33,1430.01 1249.52,1434.89 1225.71,1458.51 "/>
<polyline clip-path="url(#clip032)" style="stroke:#ff0000; stroke-linecap:round; stroke-linejoin:round; stroke-width:6; stroke-opacity:1; fill:none" points="1249.52,1434.89 194.665,1781.8 "/>
<polyline clip-path="url(#clip032)" style="stroke:#008000; stroke-linecap:round; stroke-linejoin:round; stroke-width:6; stroke-opacity:0.5; fill:none" points="563.864,1070.63 1267.1,1417.54 "/>
<polyline clip-path="url(#clip032)" style="stroke:#008000; stroke-linecap:round; stroke-linejoin:round; stroke-width:6; stroke-opacity:0.5; fill:none" points="1246.83,1390.82 1267.1,1417.54 1233.56,1417.72 "/>
<polyline clip-path="url(#clip032)" style="stroke:#008000; stroke-linecap:round; stroke-linejoin:round; stroke-width:6; stroke-opacity:0.5; fill:none" points="1267.1,1417.54 563.864,1070.63 "/>
<path clip-path="url(#clip030)" d="M807.976 1122.07 L844.673 1053.05 Q846.136 1050.3 847.62 1051.09 Q849.104 1051.88 847.93 1054.08 L811.233 1123.1 Q809.77 1125.85 808.286 1125.06 Q806.803 1124.27 807.976 1122.07 Z" fill="#000000" fill-rule="evenodd" fill-opacity="1" /><path clip-path="url(#clip030)" d="M873.156 1122.28 Q869.733 1126.44 867.042 1128.45 Q862.805 1131.44 859.367 1129.61 Q856.978 1128.34 855.88 1126.04 Q854.838 1123.72 855.435 1121.12 Q854.267 1121.66 853.324 1121.94 Q852.418 1122.25 850.796 1122.6 Q849.193 1122.9 847.403 1122.6 Q845.65 1122.32 843.949 1121.42 Q842.646 1120.72 841.587 1119.84 Q840.508 1118.98 839.568 1117.69 Q838.684 1116.39 838.299 1114.93 Q837.95 1113.49 838.217 1111.59 Q838.485 1109.69 839.563 1107.66 Q840.91 1105.13 843.715 1102.21 Q846.556 1099.31 852.144 1094.39 Q855.143 1091.81 856.105 1090 Q856.547 1089.17 856.655 1088.53 Q856.763 1087.89 856.497 1087.51 Q856.287 1087.12 856.089 1086.97 Q855.91 1086.78 855.548 1086.59 Q853.304 1085.4 850.138 1086.64 Q846.971 1087.88 843.169 1091.8 Q842.398 1092.55 842.102 1092.67 Q841.805 1092.79 841.263 1092.51 Q840.377 1091.99 840.762 1091.26 Q840.916 1090.97 841.838 1090.03 Q842.78 1089.04 844.444 1087.74 Q846.164 1086.43 848.077 1085.45 Q850.01 1084.44 852.307 1084.22 Q854.641 1084.02 856.631 1085.08 Q859.346 1086.52 860.068 1089.18 Q860.845 1091.82 859.479 1094.39 Q858.632 1095.98 855.73 1098.39 Q846.036 1106.93 843.669 1111.38 Q840.455 1117.42 845.051 1119.87 Q846.571 1120.68 848.31 1120.81 Q850.085 1120.96 851.488 1120.6 Q852.89 1120.23 854.115 1119.67 Q855.375 1119.14 856.028 1118.69 Q856.717 1118.27 856.83 1118.14 L874.221 1098.8 Q874.9 1098.04 875.606 1097.67 Q876.368 1097.29 876.99 1097.34 Q877.612 1097.39 877.921 1097.51 Q878.249 1097.59 878.502 1097.73 Q879.407 1098.21 879.733 1099.08 Q880.096 1099.97 879.596 1100.91 Q879.5 1101.09 878.821 1101.84 Q878.197 1102.58 877.253 1103.66 Q876.329 1104.7 875.838 1105.27 Q872.255 1109.22 871.896 1109.63 L865.58 1116.53 Q865.222 1116.94 864.051 1118.27 Q862.918 1119.62 862.313 1120.32 Q861.728 1120.98 860.989 1121.93 Q860.306 1122.87 859.998 1123.45 Q859.036 1125.26 859.155 1126.34 Q859.275 1127.43 860.469 1128.06 Q861.591 1128.66 862.864 1128.36 Q864.192 1128.05 865.688 1126.89 Q867.203 1125.7 868.274 1124.65 Q869.346 1123.59 870.911 1121.87 Q871.554 1121.1 871.814 1120.96 Q872.13 1120.8 872.636 1121.07 Q873.541 1121.55 873.156 1122.28 Z" fill="#000000" fill-rule="evenodd" fill-opacity="1" /><path clip-path="url(#clip030)" d="M951.286 1152.31 Q951.49 1152.97 951.163 1153.59 Q950.835 1154.2 950.17 1154.4 Q949.505 1154.61 948.89 1154.28 L902.492 1129.61 Q901.877 1129.28 901.674 1128.62 Q901.47 1127.95 901.798 1127.34 Q902.125 1126.72 902.79 1126.52 Q903.455 1126.32 904.07 1126.64 L950.468 1151.31 Q951.083 1151.64 951.286 1152.31 Z" fill="#000000" fill-rule="evenodd" fill-opacity="1" /><path clip-path="url(#clip030)" d="M1016.81 1176.88 Q1016.31 1177.83 1015.07 1179.54 Q1013.84 1181.25 1011.8 1183.6 Q1009.76 1185.95 1007.35 1188.29 Q1004.98 1190.65 1002.11 1192.74 Q999.25 1194.8 996.447 1196.14 Q993.645 1197.48 990.634 1197.65 Q987.622 1197.81 985.053 1196.44 Q983.858 1195.81 982.797 1195.01 Q981.735 1194.21 980.595 1192.87 Q979.455 1191.52 978.906 1190.02 Q978.376 1188.48 978.576 1186.36 Q978.776 1184.24 979.988 1181.96 Q981.239 1179.61 983.782 1176.92 Q986.38 1174.21 992.305 1169.01 Q995.361 1166.32 996.342 1164.47 Q996.785 1163.64 996.873 1163.04 Q996.981 1162.4 996.715 1162.02 Q996.469 1161.61 996.271 1161.46 Q996.109 1161.33 995.747 1161.14 Q993.757 1160.08 990.633 1161.06 Q987.51 1162.05 983.368 1166.35 Q982.597 1167.1 982.301 1167.22 Q982.004 1167.34 981.462 1167.05 Q980.576 1166.53 980.961 1165.81 Q981.076 1165.59 981.772 1164.89 Q982.487 1164.16 983.651 1163.11 Q984.833 1162.02 986.397 1161.09 Q987.98 1160.12 989.647 1159.43 Q991.351 1158.75 993.258 1158.75 Q995.166 1158.74 996.83 1159.62 Q999.545 1161.07 1000.27 1163.73 Q1001.04 1166.37 999.678 1168.94 Q998.927 1170.35 996.81 1172.15 Q993.096 1175.46 991.35 1177.09 Q989.604 1178.71 987.379 1181.15 Q985.191 1183.61 984.152 1185.56 Q982.574 1188.53 983.025 1191 Q983.477 1193.47 986.227 1194.93 Q988.689 1196.24 991.839 1195.64 Q995.045 1195.02 997.895 1193.24 Q1000.76 1191.43 1003.43 1189.13 Q1006.11 1186.79 1007.79 1184.85 Q1009.52 1182.9 1010.08 1181.85 Q1012.02 1178.19 1010.8 1174.48 Q1010.48 1173.42 1010.45 1172.86 Q1010.43 1172.29 1010.8 1171.6 Q1011.47 1170.33 1013.19 1169.81 Q1014.96 1169.26 1016.3 1169.98 Q1017.53 1170.63 1017.89 1172.4 Q1018.25 1174.17 1016.81 1176.88 Z" fill="#000000" fill-rule="evenodd" fill-opacity="1" /><path clip-path="url(#clip030)" d="M996.559 1222.34 L1033.26 1153.32 Q1034.72 1150.57 1036.2 1151.36 Q1037.69 1152.15 1036.51 1154.35 L999.816 1223.37 Q998.353 1226.12 996.869 1225.33 Q995.385 1224.54 996.559 1222.34 Z" fill="#000000" fill-rule="evenodd" fill-opacity="1" /><path clip-path="url(#clip030)" d="M1011.15 1221.05 L1012.01 1219.43 Q1018.24 1222.74 1023.23 1221.14 Q1024.11 1221.61 1024.16 1221.89 Q1024.2 1222.18 1023.7 1223.11 L1008.23 1252.22 Q1007.4 1253.77 1007.91 1254.65 Q1008.41 1255.54 1011.73 1257.3 L1013.38 1258.18 L1012.53 1259.77 Q1010.79 1258.65 1004.2 1255.15 Q997.612 1251.65 995.733 1250.84 L996.582 1249.25 L998.228 1250.12 Q1001.5 1251.86 1002.52 1251.82 Q1003.57 1251.76 1004.4 1250.19 L1018.69 1223.31 Q1015.25 1223.23 1011.15 1221.05 Z" fill="#000000" fill-rule="evenodd" fill-opacity="1" /></svg>
