<?xml version="1.0" encoding="utf-8"?>
<svg xmlns="http://www.w3.org/2000/svg" xmlns:xlink="http://www.w3.org/1999/xlink" width="500" height="500" viewBox="0 0 2000 2000">
<defs>
  <clipPath id="clip900">
    <rect x="0" y="0" width="2000" height="2000"/>
  </clipPath>
</defs>
<path clip-path="url(#clip900)" d="M0 2000 L2000 2000 L2000 0 L0 0  Z" fill="#ffffff" fill-rule="evenodd" fill-opacity="1"/>
<defs>
  <clipPath id="clip901">
    <rect x="400" y="200" width="1401" height="1401"/>
  </clipPath>
</defs>
<path clip-path="url(#clip900)" d="M248.189 1781.8 L1952.76 1781.8 L1952.76 47.2441 L248.189 47.2441  Z" fill="#ffffff" fill-rule="evenodd" fill-opacity="1"/>
<defs>
  <clipPath id="clip902">
    <rect x="248" y="47" width="1706" height="1736"/>
  </clipPath>
</defs>
<polyline clip-path="url(#clip900)" style="stroke:#000000; stroke-linecap:round; stroke-linejoin:round; stroke-width:4; stroke-opacity:1; fill:none" points="248.189,914.521 1952.76,914.521 "/>
<polyline clip-path="url(#clip900)" style="stroke:#000000; stroke-linecap:round; stroke-linejoin:round; stroke-width:4; stroke-opacity:1; fill:none" points="248.189,933.419 248.189,895.623 "/>
<polyline clip-path="url(#clip900)" style="stroke:#000000; stroke-linecap:round; stroke-linejoin:round; stroke-width:4; stroke-opacity:1; fill:none" points="674.331,933.419 674.331,895.623 "/>
<polyline clip-path="url(#clip900)" style="stroke:#000000; stroke-linecap:round; stroke-linejoin:round; stroke-width:4; stroke-opacity:1; fill:none" points="1526.61,933.419 1526.61,895.623 "/>
<polyline clip-path="url(#clip900)" style="stroke:#000000; stroke-linecap:round; stroke-linejoin:round; stroke-width:4; stroke-opacity:1; fill:none" points="1952.76,933.419 1952.76,895.623 "/>
<g clip-path="url(#clip900)">
<text style="fill:#000000; fill-opacity:1; font-family:Arial,Helvetica Neue,Helvetica,sans-serif; font-size:48px; text-anchor:middle;" transform="rotate(0, 248.189, 973.171)" x="248.189" y="973.171">−10</text>
</g>
<g clip-path="url(#clip900)">
<text style="fill:#000000; fill-opacity:1; font-family:Arial,Helvetica Neue,Helvetica,sans-serif; font-size:48px; text-anchor:middle;" transform="rotate(0, 674.331, 973.171)" x="674.331" y="973.171">−5</text>
</g>
<g clip-path="url(#clip900)">
<text style="fill:#000000; fill-opacity:1; font-family:Arial,Helvetica Neue,Helvetica,sans-serif; font-size:48px; text-anchor:middle;" transform="rotate(0, 1526.61, 973.171)" x="1526.61" y="973.171">5</text>
</g>
<g clip-path="url(#clip900)">
<text style="fill:#000000; fill-opacity:1; font-family:Arial,Helvetica Neue,Helvetica,sans-serif; font-size:48px; text-anchor:middle;" transform="rotate(0, 1952.76, 973.171)" x="1952.76" y="973.171">10</text>
</g>
<g clip-path="url(#clip900)">
<text style="fill:#000000; fill-opacity:1; font-family:Arial,Helvetica Neue,Helvetica,sans-serif; font-size:66px; text-anchor:middle;" transform="rotate(0, 1100.47, 1921.66)" x="1100.47" y="1921.66">1st Dim</text>
</g>
<polyline clip-path="url(#clip900)" style="stroke:#000000; stroke-linecap:round; stroke-linejoin:round; stroke-width:4; stroke-opacity:1; fill:none" points="1100.47,1781.8 1100.47,47.2441 "/>
<polyline clip-path="url(#clip900)" style="stroke:#000000; stroke-linecap:round; stroke-linejoin:round; stroke-width:4; stroke-opacity:1; fill:none" points="1081.57,1781.8 1119.37,1781.8 "/>
<polyline clip-path="url(#clip900)" style="stroke:#000000; stroke-linecap:round; stroke-linejoin:round; stroke-width:4; stroke-opacity:1; fill:none" points="1081.57,1348.16 1119.37,1348.16 "/>
<polyline clip-path="url(#clip900)" style="stroke:#000000; stroke-linecap:round; stroke-linejoin:round; stroke-width:4; stroke-opacity:1; fill:none" points="1081.57,480.883 1119.37,480.883 "/>
<polyline clip-path="url(#clip900)" style="stroke:#000000; stroke-linecap:round; stroke-linejoin:round; stroke-width:4; stroke-opacity:1; fill:none" points="1081.57,47.2441 1119.37,47.2441 "/>
<g clip-path="url(#clip900)">
<text style="fill:#000000; fill-opacity:1; font-family:Arial,Helvetica Neue,Helvetica,sans-serif; font-size:48px; text-anchor:middle;" transform="rotate(0, 1030.33, 1799.3)" x="1030.33" y="1799.3">−10</text>
</g>
<g clip-path="url(#clip900)">
<text style="fill:#000000; fill-opacity:1; font-family:Arial,Helvetica Neue,Helvetica,sans-serif; font-size:48px; text-anchor:middle;" transform="rotate(0, 1043.71, 1365.66)" x="1043.71" y="1365.66">−5</text>
</g>
<g clip-path="url(#clip900)">
<text style="fill:#000000; fill-opacity:1; font-family:Arial,Helvetica Neue,Helvetica,sans-serif; font-size:48px; text-anchor:middle;" transform="rotate(0, 1057.09, 498.383)" x="1057.09" y="498.383">5</text>
</g>
<g clip-path="url(#clip900)">
<text style="fill:#000000; fill-opacity:1; font-family:Arial,Helvetica Neue,Helvetica,sans-serif; font-size:48px; text-anchor:middle;" transform="rotate(0, 1043.71, 64.7441)" x="1043.71" y="64.7441">10</text>
</g>
<g clip-path="url(#clip900)">
<text style="fill:#000000; fill-opacity:1; font-family:Arial,Helvetica Neue,Helvetica,sans-serif; font-size:66px; text-anchor:middle;" transform="rotate(-90, 96.3402, 914.521)" x="96.3402" y="914.521">2nd Dim</text>
</g>
<circle clip-path="url(#clip902)" cx="1445.65" cy="303.091" r="14.4" fill="#0000ff" fill-rule="evenodd" fill-opacity="1" stroke="#000000" stroke-opacity="1" stroke-width="4"/>
<path clip-path="url(#clip900)" d="M1341.26 221.915 L1358.43 221.915 L1358.43 227.708 L1348.71 227.708 L1348.71 290.091 L1358.43 290.091 L1358.43 295.884 L1341.26 295.884 L1341.26 221.915 Z" fill="#000000" fill-rule="evenodd" fill-opacity="1" /><path clip-path="url(#clip900)" d="M1397.85 231.596 L1377.19 263.882 L1397.85 263.882 L1397.85 231.596 M1395.7 224.467 L1405.99 224.467 L1405.99 263.882 L1414.62 263.882 L1414.62 270.688 L1405.99 270.688 L1405.99 284.947 L1397.85 284.947 L1397.85 270.688 L1370.54 270.688 L1370.54 262.788 L1395.7 224.467 Z" fill="#000000" fill-rule="evenodd" fill-opacity="1" /><path clip-path="url(#clip900)" d="M1429 274.657 L1437.55 274.657 L1437.55 281.625 L1430.9 294.588 L1425.68 294.588 L1429 281.625 L1429 274.657 Z" fill="#000000" fill-rule="evenodd" fill-opacity="1" /><path clip-path="url(#clip900)" d="M1478.82 224.467 L1517.71 224.467 L1517.71 227.951 L1495.76 284.947 L1487.21 284.947 L1507.87 231.353 L1478.82 231.353 L1478.82 224.467 Z" fill="#000000" fill-rule="evenodd" fill-opacity="1" /><path clip-path="url(#clip900)" d="M1550.04 221.915 L1550.04 295.884 L1532.86 295.884 L1532.86 290.091 L1542.54 290.091 L1542.54 227.708 L1532.86 227.708 L1532.86 221.915 L1550.04 221.915 Z" fill="#000000" fill-rule="evenodd" fill-opacity="1" /><polyline clip-path="url(#clip902)" style="stroke:#0000ff; stroke-linecap:round; stroke-linejoin:round; stroke-width:6; stroke-opacity:1; fill:none" points="1100.47,914.521 1441.39,307.427 "/>
<polyline clip-path="url(#clip902)" style="stroke:#0000ff; stroke-linecap:round; stroke-linejoin:round; stroke-width:6; stroke-opacity:1; fill:none" points="1413.62,326.241 1441.39,307.427 1439.78,340.93 "/>
<polyline clip-path="url(#clip902)" style="stroke:#0000ff; stroke-linecap:round; stroke-linejoin:round; stroke-width:6; stroke-opacity:1; fill:none" points="1441.39,307.427 1100.47,914.521 "/>
</svg>
