<?xml version="1.0" encoding="utf-8"?>
<svg xmlns="http://www.w3.org/2000/svg" xmlns:xlink="http://www.w3.org/1999/xlink" width="500" height="500" viewBox="0 0 2000 2000">
<defs>
  <clipPath id="clip830">
    <rect x="0" y="0" width="2000" height="2000"/>
  </clipPath>
</defs>
<path clip-path="url(#clip830)" d="M0 2000 L2000 2000 L2000 0 L0 0  Z" fill="#ffffff" fill-rule="evenodd" fill-opacity="1"/>
<defs>
  <clipPath id="clip831">
    <rect x="400" y="200" width="1401" height="1401"/>
  </clipPath>
</defs>
<path clip-path="url(#clip830)" d="M194.665 1781.8 L1952.76 1781.8 L1952.76 47.2441 L194.665 47.2441  Z" fill="#ffffff" fill-rule="evenodd" fill-opacity="1"/>
<defs>
  <clipPath id="clip832">
    <rect x="194" y="47" width="1759" height="1736"/>
  </clipPath>
</defs>
<polyline clip-path="url(#clip830)" style="stroke:#000000; stroke-linecap:round; stroke-linejoin:round; stroke-width:4; stroke-opacity:1; fill:none" points="194.665,1781.8 1952.76,1781.8 "/>
<polyline clip-path="url(#clip830)" style="stroke:#000000; stroke-linecap:round; stroke-linejoin:round; stroke-width:4; stroke-opacity:1; fill:none" points="194.665,47.2441 1952.76,47.2441 "/>
<polyline clip-path="url(#clip830)" style="stroke:#000000; stroke-linecap:round; stroke-linejoin:round; stroke-width:4; stroke-opacity:1; fill:none" points="194.665,1781.8 194.665,1762.9 "/>
<polyline clip-path="url(#clip830)" style="stroke:#000000; stroke-linecap:round; stroke-linejoin:round; stroke-width:4; stroke-opacity:1; fill:none" points="546.283,1781.8 546.283,1762.9 "/>
<polyline clip-path="url(#clip830)" style="stroke:#000000; stroke-linecap:round; stroke-linejoin:round; stroke-width:4; stroke-opacity:1; fill:none" points="897.901,1781.8 897.901,1762.9 "/>
<polyline clip-path="url(#clip830)" style="stroke:#000000; stroke-linecap:round; stroke-linejoin:round; stroke-width:4; stroke-opacity:1; fill:none" points="1249.52,1781.8 1249.52,1762.9 "/>
<polyline clip-path="url(#clip830)" style="stroke:#000000; stroke-linecap:round; stroke-linejoin:round; stroke-width:4; stroke-opacity:1; fill:none" points="1601.14,1781.8 1601.14,1762.9 "/>
<polyline clip-path="url(#clip830)" style="stroke:#000000; stroke-linecap:round; stroke-linejoin:round; stroke-width:4; stroke-opacity:1; fill:none" points="1952.76,1781.8 1952.76,1762.9 "/>
<g clip-path="url(#clip830)">
<text style="fill:#000000; fill-opacity:1; font-family:Arial,Helvetica Neue,Helvetica,sans-serif; font-size:48px; text-anchor:middle;" transform="rotate(0, 194.665, 1840.45)" x="194.665" y="1840.45">0</text>
</g>
<g clip-path="url(#clip830)">
<text style="fill:#000000; fill-opacity:1; font-family:Arial,Helvetica Neue,Helvetica,sans-serif; font-size:48px; text-anchor:middle;" transform="rotate(0, 546.283, 1840.45)" x="546.283" y="1840.45">1</text>
</g>
<g clip-path="url(#clip830)">
<text style="fill:#000000; fill-opacity:1; font-family:Arial,Helvetica Neue,Helvetica,sans-serif; font-size:48px; text-anchor:middle;" transform="rotate(0, 897.901, 1840.45)" x="897.901" y="1840.45">2</text>
</g>
<g clip-path="url(#clip830)">
<text style="fill:#000000; fill-opacity:1; font-family:Arial,Helvetica Neue,Helvetica,sans-serif; font-size:48px; text-anchor:middle;" transform="rotate(0, 1249.52, 1840.45)" x="1249.52" y="1840.45">3</text>
</g>
<g clip-path="url(#clip830)">
<text style="fill:#000000; fill-opacity:1; font-family:Arial,Helvetica Neue,Helvetica,sans-serif; font-size:48px; text-anchor:middle;" transform="rotate(0, 1601.14, 1840.45)" x="1601.14" y="1840.45">4</text>
</g>
<g clip-path="url(#clip830)">
<text style="fill:#000000; fill-opacity:1; font-family:Arial,Helvetica Neue,Helvetica,sans-serif; font-size:48px; text-anchor:middle;" transform="rotate(0, 1952.76, 1840.45)" x="1952.76" y="1840.45">5</text>
</g>
<g clip-path="url(#clip830)">
<text style="fill:#000000; fill-opacity:1; font-family:Arial,Helvetica Neue,Helvetica,sans-serif; font-size:66px; text-anchor:middle;" transform="rotate(0, 1073.71, 1921.66)" x="1073.71" y="1921.66">1st Dim</text>
</g>
<polyline clip-path="url(#clip830)" style="stroke:#000000; stroke-linecap:round; stroke-linejoin:round; stroke-width:4; stroke-opacity:1; fill:none" points="194.665,1781.8 194.665,47.2441 "/>
<polyline clip-path="url(#clip830)" style="stroke:#000000; stroke-linecap:round; stroke-linejoin:round; stroke-width:4; stroke-opacity:1; fill:none" points="1952.76,1781.8 1952.76,47.2441 "/>
<polyline clip-path="url(#clip830)" style="stroke:#000000; stroke-linecap:round; stroke-linejoin:round; stroke-width:4; stroke-opacity:1; fill:none" points="194.665,1781.8 213.562,1781.8 "/>
<polyline clip-path="url(#clip830)" style="stroke:#000000; stroke-linecap:round; stroke-linejoin:round; stroke-width:4; stroke-opacity:1; fill:none" points="194.665,1434.89 213.562,1434.89 "/>
<polyline clip-path="url(#clip830)" style="stroke:#000000; stroke-linecap:round; stroke-linejoin:round; stroke-width:4; stroke-opacity:1; fill:none" points="194.665,1087.98 213.562,1087.98 "/>
<polyline clip-path="url(#clip830)" style="stroke:#000000; stroke-linecap:round; stroke-linejoin:round; stroke-width:4; stroke-opacity:1; fill:none" points="194.665,741.066 213.562,741.066 "/>
<polyline clip-path="url(#clip830)" style="stroke:#000000; stroke-linecap:round; stroke-linejoin:round; stroke-width:4; stroke-opacity:1; fill:none" points="194.665,394.155 213.562,394.155 "/>
<polyline clip-path="url(#clip830)" style="stroke:#000000; stroke-linecap:round; stroke-linejoin:round; stroke-width:4; stroke-opacity:1; fill:none" points="194.665,47.2441 213.562,47.2441 "/>
<g clip-path="url(#clip830)">
<text style="fill:#000000; fill-opacity:1; font-family:Arial,Helvetica Neue,Helvetica,sans-serif; font-size:48px; text-anchor:middle;" transform="rotate(0, 151.283, 1799.3)" x="151.283" y="1799.3">0</text>
</g>
<g clip-path="url(#clip830)">
<text style="fill:#000000; fill-opacity:1; font-family:Arial,Helvetica Neue,Helvetica,sans-serif; font-size:48px; text-anchor:middle;" transform="rotate(0, 151.283, 1452.39)" x="151.283" y="1452.39">1</text>
</g>
<g clip-path="url(#clip830)">
<text style="fill:#000000; fill-opacity:1; font-family:Arial,Helvetica Neue,Helvetica,sans-serif; font-size:48px; text-anchor:middle;" transform="rotate(0, 151.283, 1105.48)" x="151.283" y="1105.48">2</text>
</g>
<g clip-path="url(#clip830)">
<text style="fill:#000000; fill-opacity:1; font-family:Arial,Helvetica Neue,Helvetica,sans-serif; font-size:48px; text-anchor:middle;" transform="rotate(0, 151.283, 758.566)" x="151.283" y="758.566">3</text>
</g>
<g clip-path="url(#clip830)">
<text style="fill:#000000; fill-opacity:1; font-family:Arial,Helvetica Neue,Helvetica,sans-serif; font-size:48px; text-anchor:middle;" transform="rotate(0, 151.283, 411.655)" x="151.283" y="411.655">4</text>
</g>
<g clip-path="url(#clip830)">
<text style="fill:#000000; fill-opacity:1; font-family:Arial,Helvetica Neue,Helvetica,sans-serif; font-size:48px; text-anchor:middle;" transform="rotate(0, 151.283, 64.7441)" x="151.283" y="64.7441">5</text>
</g>
<g clip-path="url(#clip830)">
<text style="fill:#000000; fill-opacity:1; font-family:Arial,Helvetica Neue,Helvetica,sans-serif; font-size:66px; text-anchor:middle;" transform="rotate(-90, 96.3402, 914.521)" x="96.3402" y="914.521">2nd Dim</text>
</g>
<circle clip-path="url(#clip832)" cx="563.864" cy="1070.63" r="14.4" fill="#0000ff" fill-rule="evenodd" fill-opacity="1" stroke="#000000" stroke-opacity="1" stroke-width="4"/>
<path clip-path="url(#clip830)" d="M459.472 989.455 L476.648 989.455 L476.648 995.248 L466.926 995.248 L466.926 1057.63 L476.648 1057.63 L476.648 1063.42 L459.472 1063.42 L459.472 989.455 Z" fill="#000000" fill-rule="evenodd" fill-opacity="1" /><path clip-path="url(#clip830)" d="M494.998 1045.6 L508.366 1045.6 L508.366 999.461 L493.824 1002.38 L493.824 994.924 L508.285 992.007 L516.468 992.007 L516.468 1045.6 L529.836 1045.6 L529.836 1052.49 L494.998 1052.49 L494.998 1045.6 Z" fill="#000000" fill-rule="evenodd" fill-opacity="1" /><path clip-path="url(#clip830)" d="M547.215 1042.2 L555.762 1042.2 L555.762 1049.17 L549.118 1062.13 L543.893 1062.13 L547.215 1049.17 L547.215 1042.2 Z" fill="#000000" fill-rule="evenodd" fill-opacity="1" /><path clip-path="url(#clip830)" d="M606.155 1045.6 L634.714 1045.6 L634.714 1052.49 L596.312 1052.49 L596.312 1045.6 Q600.97 1040.78 608.991 1032.68 Q617.052 1024.54 619.118 1022.19 Q623.047 1017.77 624.587 1014.73 Q626.167 1011.65 626.167 1008.7 Q626.167 1003.88 622.764 1000.84 Q619.402 997.8 613.973 997.8 Q610.125 997.8 605.831 999.136 Q601.578 1000.47 596.717 1003.19 L596.717 994.924 Q601.659 992.939 605.953 991.926 Q610.247 990.913 613.811 990.913 Q623.21 990.913 628.8 995.612 Q634.39 1000.31 634.39 1008.17 Q634.39 1011.9 632.972 1015.26 Q631.595 1018.58 627.909 1023.12 Q626.896 1024.29 621.468 1029.92 Q616.039 1035.51 606.155 1045.6 Z" fill="#000000" fill-rule="evenodd" fill-opacity="1" /><path clip-path="url(#clip830)" d="M668.256 989.455 L668.256 1063.42 L651.08 1063.42 L651.08 1057.63 L660.761 1057.63 L660.761 995.248 L651.08 995.248 L651.08 989.455 L668.256 989.455 Z" fill="#000000" fill-rule="evenodd" fill-opacity="1" /><polyline clip-path="url(#clip832)" style="stroke:#0000ff; stroke-linecap:round; stroke-linejoin:round; stroke-width:6; stroke-opacity:1; fill:none" points="194.665,1781.8 546.283,1087.98 "/>
<polyline clip-path="url(#clip832)" style="stroke:#0000ff; stroke-linecap:round; stroke-linejoin:round; stroke-width:6; stroke-opacity:1; fill:none" points="519.342,1107.96 546.283,1087.98 546.101,1121.52 "/>
<polyline clip-path="url(#clip832)" style="stroke:#0000ff; stroke-linecap:round; stroke-linejoin:round; stroke-width:6; stroke-opacity:1; fill:none" points="546.283,1087.98 194.665,1781.8 "/>
</svg>
