<?xml version="1.0" encoding="utf-8"?>
<svg xmlns="http://www.w3.org/2000/svg" xmlns:xlink="http://www.w3.org/1999/xlink" width="500" height="500" viewBox="0 0 2000 2000">
<defs>
  <clipPath id="clip710">
    <rect x="0" y="0" width="2000" height="2000"/>
  </clipPath>
</defs>
<path clip-path="url(#clip710)" d="M0 2000 L2000 2000 L2000 0 L0 0  Z" fill="#ffffff" fill-rule="evenodd" fill-opacity="1"/>
<defs>
  <clipPath id="clip711">
    <rect x="400" y="200" width="1401" height="1401"/>
  </clipPath>
</defs>
<path clip-path="url(#clip710)" d="M221.427 1781.8 L1952.76 1781.8 L1952.76 47.2441 L221.427 47.2441  Z" fill="#ffffff" fill-rule="evenodd" fill-opacity="1"/>
<defs>
  <clipPath id="clip712">
    <rect x="221" y="47" width="1732" height="1736"/>
  </clipPath>
</defs>
<polyline clip-path="url(#clip710)" style="stroke:#000000; stroke-linecap:round; stroke-linejoin:round; stroke-width:4; stroke-opacity:1; fill:none" points="221.427,1781.8 1952.76,1781.8 "/>
<polyline clip-path="url(#clip710)" style="stroke:#000000; stroke-linecap:round; stroke-linejoin:round; stroke-width:4; stroke-opacity:1; fill:none" points="221.427,47.2441 1952.76,47.2441 "/>
<polyline clip-path="url(#clip710)" style="stroke:#000000; stroke-linecap:round; stroke-linejoin:round; stroke-width:4; stroke-opacity:1; fill:none" points="221.427,1781.8 221.427,1762.9 "/>
<polyline clip-path="url(#clip710)" style="stroke:#000000; stroke-linecap:round; stroke-linejoin:round; stroke-width:4; stroke-opacity:1; fill:none" points="567.693,1781.8 567.693,1762.9 "/>
<polyline clip-path="url(#clip710)" style="stroke:#000000; stroke-linecap:round; stroke-linejoin:round; stroke-width:4; stroke-opacity:1; fill:none" points="913.959,1781.8 913.959,1762.9 "/>
<polyline clip-path="url(#clip710)" style="stroke:#000000; stroke-linecap:round; stroke-linejoin:round; stroke-width:4; stroke-opacity:1; fill:none" points="1260.22,1781.8 1260.22,1762.9 "/>
<polyline clip-path="url(#clip710)" style="stroke:#000000; stroke-linecap:round; stroke-linejoin:round; stroke-width:4; stroke-opacity:1; fill:none" points="1606.49,1781.8 1606.49,1762.9 "/>
<polyline clip-path="url(#clip710)" style="stroke:#000000; stroke-linecap:round; stroke-linejoin:round; stroke-width:4; stroke-opacity:1; fill:none" points="1952.76,1781.8 1952.76,1762.9 "/>
<g clip-path="url(#clip710)">
<text style="fill:#000000; fill-opacity:1; font-family:Arial,Helvetica Neue,Helvetica,sans-serif; font-size:48px; text-anchor:middle;" transform="rotate(0, 221.427, 1840.45)" x="221.427" y="1840.45">0</text>
</g>
<g clip-path="url(#clip710)">
<text style="fill:#000000; fill-opacity:1; font-family:Arial,Helvetica Neue,Helvetica,sans-serif; font-size:48px; text-anchor:middle;" transform="rotate(0, 567.693, 1840.45)" x="567.693" y="1840.45">2</text>
</g>
<g clip-path="url(#clip710)">
<text style="fill:#000000; fill-opacity:1; font-family:Arial,Helvetica Neue,Helvetica,sans-serif; font-size:48px; text-anchor:middle;" transform="rotate(0, 913.959, 1840.45)" x="913.959" y="1840.45">4</text>
</g>
<g clip-path="url(#clip710)">
<text style="fill:#000000; fill-opacity:1; font-family:Arial,Helvetica Neue,Helvetica,sans-serif; font-size:48px; text-anchor:middle;" transform="rotate(0, 1260.22, 1840.45)" x="1260.22" y="1840.45">6</text>
</g>
<g clip-path="url(#clip710)">
<text style="fill:#000000; fill-opacity:1; font-family:Arial,Helvetica Neue,Helvetica,sans-serif; font-size:48px; text-anchor:middle;" transform="rotate(0, 1606.49, 1840.45)" x="1606.49" y="1840.45">8</text>
</g>
<g clip-path="url(#clip710)">
<text style="fill:#000000; fill-opacity:1; font-family:Arial,Helvetica Neue,Helvetica,sans-serif; font-size:48px; text-anchor:middle;" transform="rotate(0, 1952.76, 1840.45)" x="1952.76" y="1840.45">10</text>
</g>
<g clip-path="url(#clip710)">
<text style="fill:#000000; fill-opacity:1; font-family:Arial,Helvetica Neue,Helvetica,sans-serif; font-size:66px; text-anchor:middle;" transform="rotate(0, 1087.09, 1921.66)" x="1087.09" y="1921.66">1st Dim</text>
</g>
<polyline clip-path="url(#clip710)" style="stroke:#000000; stroke-linecap:round; stroke-linejoin:round; stroke-width:4; stroke-opacity:1; fill:none" points="221.427,1781.8 221.427,47.2441 "/>
<polyline clip-path="url(#clip710)" style="stroke:#000000; stroke-linecap:round; stroke-linejoin:round; stroke-width:4; stroke-opacity:1; fill:none" points="1952.76,1781.8 1952.76,47.2441 "/>
<polyline clip-path="url(#clip710)" style="stroke:#000000; stroke-linecap:round; stroke-linejoin:round; stroke-width:4; stroke-opacity:1; fill:none" points="221.427,1781.8 240.325,1781.8 "/>
<polyline clip-path="url(#clip710)" style="stroke:#000000; stroke-linecap:round; stroke-linejoin:round; stroke-width:4; stroke-opacity:1; fill:none" points="221.427,1434.89 240.325,1434.89 "/>
<polyline clip-path="url(#clip710)" style="stroke:#000000; stroke-linecap:round; stroke-linejoin:round; stroke-width:4; stroke-opacity:1; fill:none" points="221.427,1087.98 240.325,1087.98 "/>
<polyline clip-path="url(#clip710)" style="stroke:#000000; stroke-linecap:round; stroke-linejoin:round; stroke-width:4; stroke-opacity:1; fill:none" points="221.427,741.066 240.325,741.066 "/>
<polyline clip-path="url(#clip710)" style="stroke:#000000; stroke-linecap:round; stroke-linejoin:round; stroke-width:4; stroke-opacity:1; fill:none" points="221.427,394.155 240.325,394.155 "/>
<polyline clip-path="url(#clip710)" style="stroke:#000000; stroke-linecap:round; stroke-linejoin:round; stroke-width:4; stroke-opacity:1; fill:none" points="221.427,47.2441 240.325,47.2441 "/>
<g clip-path="url(#clip710)">
<text style="fill:#000000; fill-opacity:1; font-family:Arial,Helvetica Neue,Helvetica,sans-serif; font-size:48px; text-anchor:middle;" transform="rotate(0, 178.046, 1799.3)" x="178.046" y="1799.3">0</text>
</g>
<g clip-path="url(#clip710)">
<text style="fill:#000000; fill-opacity:1; font-family:Arial,Helvetica Neue,Helvetica,sans-serif; font-size:48px; text-anchor:middle;" transform="rotate(0, 178.046, 1452.39)" x="178.046" y="1452.39">2</text>
</g>
<g clip-path="url(#clip710)">
<text style="fill:#000000; fill-opacity:1; font-family:Arial,Helvetica Neue,Helvetica,sans-serif; font-size:48px; text-anchor:middle;" transform="rotate(0, 178.046, 1105.48)" x="178.046" y="1105.48">4</text>
</g>
<g clip-path="url(#clip710)">
<text style="fill:#000000; fill-opacity:1; font-family:Arial,Helvetica Neue,Helvetica,sans-serif; font-size:48px; text-anchor:middle;" transform="rotate(0, 178.046, 758.566)" x="178.046" y="758.566">6</text>
</g>
<g clip-path="url(#clip710)">
<text style="fill:#000000; fill-opacity:1; font-family:Arial,Helvetica Neue,Helvetica,sans-serif; font-size:48px; text-anchor:middle;" transform="rotate(0, 178.046, 411.655)" x="178.046" y="411.655">8</text>
</g>
<g clip-path="url(#clip710)">
<text style="fill:#000000; fill-opacity:1; font-family:Arial,Helvetica Neue,Helvetica,sans-serif; font-size:48px; text-anchor:middle;" transform="rotate(0, 164.665, 64.7441)" x="164.665" y="64.7441">10</text>
</g>
<g clip-path="url(#clip710)">
<text style="fill:#000000; fill-opacity:1; font-family:Arial,Helvetica Neue,Helvetica,sans-serif; font-size:66px; text-anchor:middle;" transform="rotate(-90, 96.3402, 914.521)" x="96.3402" y="914.521">2nd Dim</text>
</g>
<circle clip-path="url(#clip712)" cx="368.59" cy="1530.29" r="14.4" fill="#0000ff" fill-rule="evenodd" fill-opacity="1" stroke="#000000" stroke-opacity="1" stroke-width="4"/>
<path clip-path="url(#clip710)" d="M185.043 1449.11 L202.219 1449.11 L202.219 1454.9 L192.497 1454.9 L192.497 1517.29 L202.219 1517.29 L202.219 1523.08 L185.043 1523.08 L185.043 1449.11 Z" fill="#000000" fill-rule="evenodd" fill-opacity="1" /><path clip-path="url(#clip710)" d="M236.652 1457.05 Q230.333 1457.05 227.132 1463.29 Q223.973 1469.49 223.973 1481.96 Q223.973 1494.4 227.132 1500.64 Q230.333 1506.84 236.652 1506.84 Q243.012 1506.84 246.172 1500.64 Q249.372 1494.4 249.372 1481.96 Q249.372 1469.49 246.172 1463.29 Q243.012 1457.05 236.652 1457.05 M236.652 1450.57 Q246.82 1450.57 252.167 1458.63 Q257.555 1466.65 257.555 1481.96 Q257.555 1497.24 252.167 1505.3 Q246.82 1513.32 236.652 1513.32 Q226.484 1513.32 221.096 1505.3 Q215.749 1497.24 215.749 1481.96 Q215.749 1466.65 221.096 1458.63 Q226.484 1450.57 236.652 1450.57 Z" fill="#000000" fill-rule="evenodd" fill-opacity="1" /><path clip-path="url(#clip710)" d="M271.935 1501.85 L280.483 1501.85 L280.483 1512.14 L271.935 1512.14 L271.935 1501.85 Z" fill="#000000" fill-rule="evenodd" fill-opacity="1" /><path clip-path="url(#clip710)" d="M315.807 1483.42 Q309.973 1483.42 306.611 1486.54 Q303.289 1489.66 303.289 1495.13 Q303.289 1500.6 306.611 1503.72 Q309.973 1506.84 315.807 1506.84 Q321.64 1506.84 325.002 1503.72 Q328.364 1500.56 328.364 1495.13 Q328.364 1489.66 325.002 1486.54 Q321.68 1483.42 315.807 1483.42 M307.624 1479.94 Q302.358 1478.64 299.4 1475.04 Q296.484 1471.43 296.484 1466.25 Q296.484 1459 301.628 1454.78 Q306.814 1450.57 315.807 1450.57 Q324.84 1450.57 329.985 1454.78 Q335.129 1459 335.129 1466.25 Q335.129 1471.43 332.172 1475.04 Q329.256 1478.64 324.03 1479.94 Q329.944 1481.32 333.226 1485.33 Q336.547 1489.34 336.547 1495.13 Q336.547 1503.92 331.16 1508.62 Q325.812 1513.32 315.807 1513.32 Q305.801 1513.32 300.413 1508.62 Q295.066 1503.92 295.066 1495.13 Q295.066 1489.34 298.388 1485.33 Q301.709 1481.32 307.624 1479.94 M304.626 1467.02 Q304.626 1471.72 307.543 1474.35 Q310.5 1476.98 315.807 1476.98 Q321.073 1476.98 324.03 1474.35 Q327.028 1471.72 327.028 1467.02 Q327.028 1462.32 324.03 1459.68 Q321.073 1457.05 315.807 1457.05 Q310.5 1457.05 307.543 1459.68 Q304.626 1462.32 304.626 1467.02 Z" fill="#000000" fill-rule="evenodd" fill-opacity="1" /><path clip-path="url(#clip710)" d="M351.941 1501.85 L360.488 1501.85 L360.488 1508.82 L353.845 1521.78 L348.619 1521.78 L351.941 1508.82 L351.941 1501.85 Z" fill="#000000" fill-rule="evenodd" fill-opacity="1" /><path clip-path="url(#clip710)" d="M405.251 1505.26 L418.619 1505.26 L418.619 1459.12 L404.076 1462.03 L404.076 1454.58 L418.538 1451.66 L426.72 1451.66 L426.72 1505.26 L440.088 1505.26 L440.088 1512.14 L405.251 1512.14 L405.251 1505.26 Z" fill="#000000" fill-rule="evenodd" fill-opacity="1" /><path clip-path="url(#clip710)" d="M456.616 1501.85 L465.163 1501.85 L465.163 1512.14 L456.616 1512.14 L456.616 1501.85 Z" fill="#000000" fill-rule="evenodd" fill-opacity="1" /><path clip-path="url(#clip710)" d="M505.47 1458.79 L484.81 1491.08 L505.47 1491.08 L505.47 1458.79 M503.323 1451.66 L513.612 1451.66 L513.612 1491.08 L522.241 1491.08 L522.241 1497.88 L513.612 1497.88 L513.612 1512.14 L505.47 1512.14 L505.47 1497.88 L478.167 1497.88 L478.167 1489.99 L503.323 1451.66 Z" fill="#000000" fill-rule="evenodd" fill-opacity="1" /><path clip-path="url(#clip710)" d="M552.136 1449.11 L552.136 1523.08 L534.961 1523.08 L534.961 1517.29 L544.642 1517.29 L544.642 1454.9 L534.961 1454.9 L534.961 1449.11 L552.136 1449.11 Z" fill="#000000" fill-rule="evenodd" fill-opacity="1" /><polyline clip-path="url(#clip712)" style="stroke:#0000ff; stroke-linecap:round; stroke-linejoin:round; stroke-width:6; stroke-opacity:1; fill:none" points="221.427,1781.8 359.933,1538.96 "/>
<polyline clip-path="url(#clip712)" style="stroke:#0000ff; stroke-linecap:round; stroke-linejoin:round; stroke-width:6; stroke-opacity:1; fill:none" points="332.04,1557.59 359.933,1538.96 358.1,1572.45 "/>
<polyline clip-path="url(#clip712)" style="stroke:#0000ff; stroke-linecap:round; stroke-linejoin:round; stroke-width:6; stroke-opacity:1; fill:none" points="359.933,1538.96 221.427,1781.8 "/>
</svg>
