<?xml version="1.0" encoding="utf-8"?>
<svg xmlns="http://www.w3.org/2000/svg" xmlns:xlink="http://www.w3.org/1999/xlink" width="500" height="500" viewBox="0 0 2000 2000">
<defs>
  <clipPath id="clip070">
    <rect x="0" y="0" width="2000" height="2000"/>
  </clipPath>
</defs>
<path clip-path="url(#clip070)" d="M0 2000 L2000 2000 L2000 0 L0 0  Z" fill="#ffffff" fill-rule="evenodd" fill-opacity="1"/>
<defs>
  <clipPath id="clip071">
    <rect x="400" y="200" width="1401" height="1401"/>
  </clipPath>
</defs>
<path clip-path="url(#clip070)" d="M194.665 1781.8 L1952.76 1781.8 L1952.76 47.2441 L194.665 47.2441  Z" fill="#ffffff" fill-rule="evenodd" fill-opacity="1"/>
<defs>
  <clipPath id="clip072">
    <rect x="194" y="47" width="1759" height="1736"/>
  </clipPath>
</defs>
<polyline clip-path="url(#clip070)" style="stroke:#000000; stroke-linecap:round; stroke-linejoin:round; stroke-width:4; stroke-opacity:1; fill:none" points="194.665,1781.8 1952.76,1781.8 "/>
<polyline clip-path="url(#clip070)" style="stroke:#000000; stroke-linecap:round; stroke-linejoin:round; stroke-width:4; stroke-opacity:1; fill:none" points="194.665,47.2441 1952.76,47.2441 "/>
<polyline clip-path="url(#clip070)" style="stroke:#000000; stroke-linecap:round; stroke-linejoin:round; stroke-width:4; stroke-opacity:1; fill:none" points="194.665,1781.8 194.665,1762.9 "/>
<polyline clip-path="url(#clip070)" style="stroke:#000000; stroke-linecap:round; stroke-linejoin:round; stroke-width:4; stroke-opacity:1; fill:none" points="546.283,1781.8 546.283,1762.9 "/>
<polyline clip-path="url(#clip070)" style="stroke:#000000; stroke-linecap:round; stroke-linejoin:round; stroke-width:4; stroke-opacity:1; fill:none" points="897.901,1781.8 897.901,1762.9 "/>
<polyline clip-path="url(#clip070)" style="stroke:#000000; stroke-linecap:round; stroke-linejoin:round; stroke-width:4; stroke-opacity:1; fill:none" points="1249.52,1781.8 1249.52,1762.9 "/>
<polyline clip-path="url(#clip070)" style="stroke:#000000; stroke-linecap:round; stroke-linejoin:round; stroke-width:4; stroke-opacity:1; fill:none" points="1601.14,1781.8 1601.14,1762.9 "/>
<polyline clip-path="url(#clip070)" style="stroke:#000000; stroke-linecap:round; stroke-linejoin:round; stroke-width:4; stroke-opacity:1; fill:none" points="1952.76,1781.8 1952.76,1762.9 "/>
<g clip-path="url(#clip070)">
<text style="fill:#000000; fill-opacity:1; font-family:Arial,Helvetica Neue,Helvetica,sans-serif; font-size:48px; text-anchor:middle;" transform="rotate(0, 194.665, 1840.45)" x="194.665" y="1840.45">0</text>
</g>
<g clip-path="url(#clip070)">
<text style="fill:#000000; fill-opacity:1; font-family:Arial,Helvetica Neue,Helvetica,sans-serif; font-size:48px; text-anchor:middle;" transform="rotate(0, 546.283, 1840.45)" x="546.283" y="1840.45">1</text>
</g>
<g clip-path="url(#clip070)">
<text style="fill:#000000; fill-opacity:1; font-family:Arial,Helvetica Neue,Helvetica,sans-serif; font-size:48px; text-anchor:middle;" transform="rotate(0, 897.901, 1840.45)" x="897.901" y="1840.45">2</text>
</g>
<g clip-path="url(#clip070)">
<text style="fill:#000000; fill-opacity:1; font-family:Arial,Helvetica Neue,Helvetica,sans-serif; font-size:48px; text-anchor:middle;" transform="rotate(0, 1249.52, 1840.45)" x="1249.52" y="1840.45">3</text>
</g>
<g clip-path="url(#clip070)">
<text style="fill:#000000; fill-opacity:1; font-family:Arial,Helvetica Neue,Helvetica,sans-serif; font-size:48px; text-anchor:middle;" transform="rotate(0, 1601.14, 1840.45)" x="1601.14" y="1840.45">4</text>
</g>
<g clip-path="url(#clip070)">
<text style="fill:#000000; fill-opacity:1; font-family:Arial,Helvetica Neue,Helvetica,sans-serif; font-size:48px; text-anchor:middle;" transform="rotate(0, 1952.76, 1840.45)" x="1952.76" y="1840.45">5</text>
</g>
<g clip-path="url(#clip070)">
<text style="fill:#000000; fill-opacity:1; font-family:Arial,Helvetica Neue,Helvetica,sans-serif; font-size:66px; text-anchor:middle;" transform="rotate(0, 1073.71, 1921.66)" x="1073.71" y="1921.66">1st Dim</text>
</g>
<polyline clip-path="url(#clip070)" style="stroke:#000000; stroke-linecap:round; stroke-linejoin:round; stroke-width:4; stroke-opacity:1; fill:none" points="194.665,1781.8 194.665,47.2441 "/>
<polyline clip-path="url(#clip070)" style="stroke:#000000; stroke-linecap:round; stroke-linejoin:round; stroke-width:4; stroke-opacity:1; fill:none" points="1952.76,1781.8 1952.76,47.2441 "/>
<polyline clip-path="url(#clip070)" style="stroke:#000000; stroke-linecap:round; stroke-linejoin:round; stroke-width:4; stroke-opacity:1; fill:none" points="194.665,1781.8 213.562,1781.8 "/>
<polyline clip-path="url(#clip070)" style="stroke:#000000; stroke-linecap:round; stroke-linejoin:round; stroke-width:4; stroke-opacity:1; fill:none" points="194.665,1434.89 213.562,1434.89 "/>
<polyline clip-path="url(#clip070)" style="stroke:#000000; stroke-linecap:round; stroke-linejoin:round; stroke-width:4; stroke-opacity:1; fill:none" points="194.665,1087.98 213.562,1087.98 "/>
<polyline clip-path="url(#clip070)" style="stroke:#000000; stroke-linecap:round; stroke-linejoin:round; stroke-width:4; stroke-opacity:1; fill:none" points="194.665,741.066 213.562,741.066 "/>
<polyline clip-path="url(#clip070)" style="stroke:#000000; stroke-linecap:round; stroke-linejoin:round; stroke-width:4; stroke-opacity:1; fill:none" points="194.665,394.155 213.562,394.155 "/>
<polyline clip-path="url(#clip070)" style="stroke:#000000; stroke-linecap:round; stroke-linejoin:round; stroke-width:4; stroke-opacity:1; fill:none" points="194.665,47.2441 213.562,47.2441 "/>
<g clip-path="url(#clip070)">
<text style="fill:#000000; fill-opacity:1; font-family:Arial,Helvetica Neue,Helvetica,sans-serif; font-size:48px; text-anchor:middle;" transform="rotate(0, 151.283, 1799.3)" x="151.283" y="1799.3">0</text>
</g>
<g clip-path="url(#clip070)">
<text style="fill:#000000; fill-opacity:1; font-family:Arial,Helvetica Neue,Helvetica,sans-serif; font-size:48px; text-anchor:middle;" transform="rotate(0, 151.283, 1452.39)" x="151.283" y="1452.39">1</text>
</g>
<g clip-path="url(#clip070)">
<text style="fill:#000000; fill-opacity:1; font-family:Arial,Helvetica Neue,Helvetica,sans-serif; font-size:48px; text-anchor:middle;" transform="rotate(0, 151.283, 1105.48)" x="151.283" y="1105.48">2</text>
</g>
<g clip-path="url(#clip070)">
<text style="fill:#000000; fill-opacity:1; font-family:Arial,Helvetica Neue,Helvetica,sans-serif; font-size:48px; text-anchor:middle;" transform="rotate(0, 151.283, 758.566)" x="151.283" y="758.566">3</text>
</g>
<g clip-path="url(#clip070)">
<text style="fill:#000000; fill-opacity:1; font-family:Arial,Helvetica Neue,Helvetica,sans-serif; font-size:48px; text-anchor:middle;" transform="rotate(0, 151.283, 411.655)" x="151.283" y="411.655">4</text>
</g>
<g clip-path="url(#clip070)">
<text style="fill:#000000; fill-opacity:1; font-family:Arial,Helvetica Neue,Helvetica,sans-serif; font-size:48px; text-anchor:middle;" transform="rotate(0, 151.283, 64.7441)" x="151.283" y="64.7441">5</text>
</g>
<g clip-path="url(#clip070)">
<text style="fill:#000000; fill-opacity:1; font-family:Arial,Helvetica Neue,Helvetica,sans-serif; font-size:66px; text-anchor:middle;" transform="rotate(-90, 96.3402, 914.521)" x="96.3402" y="914.521">2nd Dim</text>
</g>
<circle clip-path="url(#clip072)" cx="563.864" cy="1070.63" r="14.4" fill="#0000ff" fill-rule="evenodd" fill-opacity="1" stroke="#000000" stroke-opacity="1" stroke-width="4"/>
<path clip-path="url(#clip070)" d="M459.472 989.455 L476.648 989.455 L476.648 995.248 L466.926 995.248 L466.926 1057.63 L476.648 1057.63 L476.648 1063.42 L459.472 1063.42 L459.472 989.455 Z" fill="#000000" fill-rule="evenodd" fill-opacity="1" /><path clip-path="url(#clip070)" d="M494.998 1045.6 L508.366 1045.6 L508.366 999.461 L493.824 1002.38 L493.824 994.924 L508.285 992.007 L516.468 992.007 L516.468 1045.6 L529.836 1045.6 L529.836 1052.49 L494.998 1052.49 L494.998 1045.6 Z" fill="#000000" fill-rule="evenodd" fill-opacity="1" /><path clip-path="url(#clip070)" d="M547.215 1042.2 L555.762 1042.2 L555.762 1049.17 L549.118 1062.13 L543.893 1062.13 L547.215 1049.17 L547.215 1042.2 Z" fill="#000000" fill-rule="evenodd" fill-opacity="1" /><path clip-path="url(#clip070)" d="M606.155 1045.6 L634.714 1045.6 L634.714 1052.49 L596.312 1052.49 L596.312 1045.6 Q600.97 1040.78 608.991 1032.68 Q617.052 1024.54 619.118 1022.19 Q623.047 1017.77 624.587 1014.73 Q626.167 1011.65 626.167 1008.7 Q626.167 1003.88 622.764 1000.84 Q619.402 997.8 613.973 997.8 Q610.125 997.8 605.831 999.136 Q601.578 1000.47 596.717 1003.19 L596.717 994.924 Q601.659 992.939 605.953 991.926 Q610.247 990.913 613.811 990.913 Q623.21 990.913 628.8 995.612 Q634.39 1000.31 634.39 1008.17 Q634.39 1011.9 632.972 1015.26 Q631.595 1018.58 627.909 1023.12 Q626.896 1024.29 621.468 1029.92 Q616.039 1035.51 606.155 1045.6 Z" fill="#000000" fill-rule="evenodd" fill-opacity="1" /><path clip-path="url(#clip070)" d="M668.256 989.455 L668.256 1063.42 L651.08 1063.42 L651.08 1057.63 L660.761 1057.63 L660.761 995.248 L651.08 995.248 L651.08 989.455 L668.256 989.455 Z" fill="#000000" fill-rule="evenodd" fill-opacity="1" /><polyline clip-path="url(#clip072)" style="stroke:#0000ff; stroke-linecap:round; stroke-linejoin:round; stroke-width:6; stroke-opacity:1; fill:none" points="194.665,1781.8 546.283,1087.98 "/>
<polyline clip-path="url(#clip072)" style="stroke:#0000ff; stroke-linecap:round; stroke-linejoin:round; stroke-width:6; stroke-opacity:1; fill:none" points="519.342,1107.96 546.283,1087.98 546.101,1121.52 "/>
<polyline clip-path="url(#clip072)" style="stroke:#0000ff; stroke-linecap:round; stroke-linejoin:round; stroke-width:6; stroke-opacity:1; fill:none" points="546.283,1087.98 194.665,1781.8 "/>
<circle clip-path="url(#clip072)" cx="1267.1" cy="1417.54" r="14.4" fill="#0000ff" fill-rule="evenodd" fill-opacity="1" stroke="#000000" stroke-opacity="1" stroke-width="4"/>
<path clip-path="url(#clip070)" d="M1162.71 1336.37 L1179.88 1336.37 L1179.88 1342.16 L1170.16 1342.16 L1170.16 1404.54 L1179.88 1404.54 L1179.88 1410.34 L1162.71 1410.34 L1162.71 1336.37 Z" fill="#000000" fill-rule="evenodd" fill-opacity="1" /><path clip-path="url(#clip070)" d="M1221.61 1366.79 Q1227.48 1368.04 1230.76 1372.01 Q1234.09 1375.98 1234.09 1381.82 Q1234.09 1390.77 1227.93 1395.67 Q1221.77 1400.57 1210.43 1400.57 Q1206.62 1400.57 1202.57 1399.8 Q1198.56 1399.07 1194.27 1397.57 L1194.27 1389.68 Q1197.67 1391.66 1201.72 1392.67 Q1205.77 1393.69 1210.19 1393.69 Q1217.88 1393.69 1221.89 1390.65 Q1225.94 1387.61 1225.94 1381.82 Q1225.94 1376.47 1222.18 1373.47 Q1218.45 1370.43 1211.76 1370.43 L1204.72 1370.43 L1204.72 1363.71 L1212.09 1363.71 Q1218.12 1363.71 1221.33 1361.32 Q1224.53 1358.89 1224.53 1354.35 Q1224.53 1349.69 1221.2 1347.22 Q1217.92 1344.71 1211.76 1344.71 Q1208.4 1344.71 1204.55 1345.44 Q1200.71 1346.17 1196.09 1347.71 L1196.09 1340.42 Q1200.75 1339.12 1204.8 1338.47 Q1208.89 1337.82 1212.49 1337.82 Q1221.81 1337.82 1227.24 1342.08 Q1232.67 1346.29 1232.67 1353.5 Q1232.67 1358.52 1229.79 1362.01 Q1226.92 1365.45 1221.61 1366.79 Z" fill="#000000" fill-rule="evenodd" fill-opacity="1" /><path clip-path="url(#clip070)" d="M1250.45 1389.11 L1259 1389.11 L1259 1396.08 L1252.36 1409.04 L1247.13 1409.04 L1250.45 1396.08 L1250.45 1389.11 Z" fill="#000000" fill-rule="evenodd" fill-opacity="1" /><path clip-path="url(#clip070)" d="M1303.76 1392.51 L1317.13 1392.51 L1317.13 1346.37 L1302.59 1349.29 L1302.59 1341.83 L1317.05 1338.92 L1325.23 1338.92 L1325.23 1392.51 L1338.6 1392.51 L1338.6 1399.4 L1303.76 1399.4 L1303.76 1392.51 Z" fill="#000000" fill-rule="evenodd" fill-opacity="1" /><path clip-path="url(#clip070)" d="M1371.49 1336.37 L1371.49 1410.34 L1354.32 1410.34 L1354.32 1404.54 L1364 1404.54 L1364 1342.16 L1354.32 1342.16 L1354.32 1336.37 L1371.49 1336.37 Z" fill="#000000" fill-rule="evenodd" fill-opacity="1" /><polyline clip-path="url(#clip072)" style="stroke:#ff0000; stroke-linecap:round; stroke-linejoin:round; stroke-width:6; stroke-opacity:1; fill:none" points="194.665,1781.8 1249.52,1434.89 "/>
<polyline clip-path="url(#clip072)" style="stroke:#ff0000; stroke-linecap:round; stroke-linejoin:round; stroke-width:6; stroke-opacity:1; fill:none" points="1216.33,1430.01 1249.52,1434.89 1225.71,1458.51 "/>
<polyline clip-path="url(#clip072)" style="stroke:#ff0000; stroke-linecap:round; stroke-linejoin:round; stroke-width:6; stroke-opacity:1; fill:none" points="1249.52,1434.89 194.665,1781.8 "/>
<polyline clip-path="url(#clip072)" style="stroke:#008000; stroke-linecap:round; stroke-linejoin:round; stroke-width:6; stroke-opacity:0.5; fill:none" points="563.864,1070.63 1267.1,1417.54 "/>
<polyline clip-path="url(#clip072)" style="stroke:#008000; stroke-linecap:round; stroke-linejoin:round; stroke-width:6; stroke-opacity:0.5; fill:none" points="1246.83,1390.82 1267.1,1417.54 1233.56,1417.72 "/>
<polyline clip-path="url(#clip072)" style="stroke:#008000; stroke-linecap:round; stroke-linejoin:round; stroke-width:6; stroke-opacity:0.5; fill:none" points="1267.1,1417.54 563.864,1070.63 "/>
<path clip-path="url(#clip070)" d="M806.194 1121.12 L842.891 1052.1 Q844.353 1049.35 845.837 1050.14 Q847.321 1050.93 846.147 1053.14 L809.45 1122.15 Q807.988 1124.9 806.504 1124.11 Q805.02 1123.33 806.194 1121.12 Z" fill="#000000" fill-rule="evenodd" fill-opacity="1" /><path clip-path="url(#clip070)" d="M871.374 1121.33 Q867.95 1125.5 865.26 1127.5 Q861.022 1130.49 857.584 1128.67 Q855.195 1127.4 854.098 1125.09 Q853.056 1122.78 853.653 1120.17 Q852.484 1120.71 851.542 1121 Q850.635 1121.3 849.013 1121.65 Q847.41 1121.96 845.621 1121.66 Q843.867 1121.37 842.166 1120.47 Q840.864 1119.78 839.804 1118.89 Q838.725 1118.04 837.786 1116.75 Q836.901 1115.44 836.516 1113.98 Q836.167 1112.54 836.435 1110.64 Q836.702 1108.74 837.78 1106.72 Q839.127 1104.18 841.932 1101.26 Q844.774 1098.36 850.361 1093.44 Q853.36 1090.86 854.322 1089.05 Q854.765 1088.22 854.873 1087.58 Q854.98 1086.94 854.715 1086.57 Q854.504 1086.18 854.306 1086.02 Q854.128 1085.84 853.766 1085.64 Q851.522 1084.45 848.355 1085.69 Q845.189 1086.93 841.386 1090.85 Q840.616 1091.6 840.319 1091.73 Q840.023 1091.85 839.48 1091.56 Q838.594 1091.04 838.979 1090.32 Q839.133 1090.03 840.056 1089.08 Q840.997 1088.09 842.662 1086.8 Q844.381 1085.48 846.295 1084.5 Q848.227 1083.49 850.525 1083.27 Q852.858 1083.07 854.849 1084.13 Q857.563 1085.57 858.285 1088.23 Q859.062 1090.87 857.696 1093.44 Q856.849 1095.04 853.947 1097.44 Q844.253 1105.98 841.886 1110.43 Q838.672 1116.48 843.269 1118.92 Q844.789 1119.73 846.527 1119.86 Q848.302 1120.02 849.705 1119.65 Q851.108 1119.28 852.332 1118.72 Q853.592 1118.19 854.245 1117.75 Q854.934 1117.32 855.047 1117.2 L872.439 1097.85 Q873.118 1097.09 873.824 1096.73 Q874.585 1096.34 875.207 1096.39 Q875.829 1096.45 876.138 1096.56 Q876.466 1096.65 876.719 1096.78 Q877.624 1097.26 877.951 1098.13 Q878.314 1099.02 877.813 1099.96 Q877.717 1100.14 877.038 1100.9 Q876.414 1101.63 875.471 1102.71 Q874.546 1103.75 874.055 1104.32 Q870.472 1108.27 870.113 1108.68 L863.798 1115.58 Q863.439 1116 862.269 1117.32 Q861.135 1118.67 860.531 1119.37 Q859.946 1120.03 859.207 1120.99 Q858.523 1121.92 858.215 1122.5 Q857.253 1124.31 857.372 1125.4 Q857.492 1126.48 858.686 1127.12 Q859.808 1127.71 861.081 1127.42 Q862.409 1127.1 863.905 1125.95 Q865.42 1124.75 866.492 1123.7 Q867.563 1122.64 869.128 1120.92 Q869.771 1120.15 870.031 1120.01 Q870.347 1119.85 870.854 1120.12 Q871.758 1120.6 871.374 1121.33 Z" fill="#000000" fill-rule="evenodd" fill-opacity="1" /><path clip-path="url(#clip070)" d="M949.504 1151.36 Q949.707 1152.02 949.38 1152.64 Q949.053 1153.25 948.388 1153.46 Q947.722 1153.66 947.107 1153.33 L900.71 1128.66 Q900.095 1128.34 899.891 1127.67 Q899.688 1127.01 900.015 1126.39 Q900.342 1125.78 901.007 1125.57 Q901.673 1125.37 902.288 1125.7 L948.685 1150.37 Q949.3 1150.69 949.504 1151.36 Z" fill="#000000" fill-rule="evenodd" fill-opacity="1" /><path clip-path="url(#clip070)" d="M1015.02 1175.94 Q1014.52 1176.88 1013.29 1178.59 Q1012.05 1180.3 1010.02 1182.65 Q1007.98 1185 1005.57 1187.34 Q1003.2 1189.7 1000.32 1191.8 Q997.467 1193.85 994.665 1195.19 Q991.862 1196.53 988.851 1196.7 Q985.84 1196.86 983.27 1195.49 Q982.076 1194.86 981.014 1194.06 Q979.952 1193.27 978.812 1191.92 Q977.673 1190.57 977.123 1189.07 Q976.593 1187.53 976.793 1185.41 Q976.993 1183.29 978.205 1181.01 Q979.456 1178.66 981.999 1175.97 Q984.597 1173.27 990.522 1168.06 Q993.578 1165.37 994.56 1163.52 Q995.002 1162.69 995.091 1162.09 Q995.198 1161.45 994.933 1161.08 Q994.686 1160.67 994.488 1160.51 Q994.327 1160.38 993.965 1160.19 Q991.974 1159.13 988.851 1160.12 Q985.727 1161.1 981.585 1165.4 Q980.815 1166.15 980.518 1166.27 Q980.222 1166.39 979.679 1166.1 Q978.793 1165.59 979.178 1164.86 Q979.294 1164.64 979.99 1163.95 Q980.705 1163.21 981.868 1162.16 Q983.051 1161.07 984.614 1160.14 Q986.197 1159.17 987.865 1158.48 Q989.569 1157.81 991.476 1157.8 Q993.383 1157.79 995.048 1158.68 Q997.762 1160.12 998.484 1162.78 Q999.261 1165.42 997.895 1167.99 Q997.145 1169.4 995.028 1171.2 Q991.314 1174.52 989.568 1176.14 Q987.822 1177.77 985.597 1180.21 Q983.408 1182.66 982.369 1184.62 Q980.791 1187.58 981.243 1190.05 Q981.694 1192.52 984.445 1193.98 Q986.906 1195.29 990.057 1194.69 Q993.263 1194.08 996.113 1192.3 Q998.982 1190.48 1001.64 1188.18 Q1004.32 1185.85 1006 1183.91 Q1007.74 1181.95 1008.3 1180.9 Q1010.24 1177.25 1009.02 1173.53 Q1008.69 1172.48 1008.67 1171.91 Q1008.65 1171.34 1009.01 1170.65 Q1009.69 1169.38 1011.41 1168.86 Q1013.18 1168.32 1014.52 1169.03 Q1015.75 1169.68 1016.11 1171.45 Q1016.47 1173.22 1015.02 1175.94 Z" fill="#000000" fill-rule="evenodd" fill-opacity="1" /><path clip-path="url(#clip070)" d="M994.777 1221.39 L1031.47 1152.37 Q1032.94 1149.62 1034.42 1150.41 Q1035.9 1151.2 1034.73 1153.41 L998.033 1222.42 Q996.571 1225.17 995.087 1224.39 Q993.603 1223.6 994.777 1221.39 Z" fill="#000000" fill-rule="evenodd" fill-opacity="1" /><path clip-path="url(#clip070)" d="M993.621 1249.72 Q994.119 1248.78 994.344 1248.54 Q994.593 1248.32 995.227 1248.1 L1011.08 1242.3 Q1019.79 1239.07 1022.63 1233.72 Q1024.48 1230.25 1023.97 1226.8 Q1023.5 1223.36 1020.18 1221.59 Q1017.9 1220.38 1015.23 1220.75 Q1012.56 1221.12 1010.36 1223.13 Q1010.54 1223.16 1011.07 1223.45 Q1012.36 1224.13 1012.64 1225.32 Q1012.94 1226.52 1012.36 1227.61 Q1011.62 1229.01 1010.35 1229.2 Q1009.11 1229.39 1008.22 1228.92 Q1007.87 1228.73 1007.43 1228.4 Q1007.01 1228.08 1006.65 1226.98 Q1006.31 1225.86 1007 1224.56 Q1008.92 1220.94 1013.19 1219.51 Q1017.49 1218.09 1021.7 1220.32 Q1026.46 1222.86 1028.07 1227.35 Q1029.71 1231.83 1027.37 1236.24 Q1026.55 1237.79 1025.31 1238.95 Q1024.12 1240.1 1022.9 1240.85 Q1021.72 1241.62 1019.11 1242.48 Q1016.51 1243.34 1014.51 1243.86 Q1012.51 1244.39 1008.09 1245.42 L999.752 1247.85 L1009.1 1252.82 Q1013.66 1255.24 1014.23 1255.02 Q1015.13 1254.56 1017.82 1251.02 L1019.14 1251.72 L1012.87 1259.96 L993.621 1249.72 Z" fill="#000000" fill-rule="evenodd" fill-opacity="1" /></svg>
