<?xml version="1.0" encoding="utf-8"?>
<svg xmlns="http://www.w3.org/2000/svg" xmlns:xlink="http://www.w3.org/1999/xlink" width="500" height="500" viewBox="0 0 2000 2000">
<defs>
  <clipPath id="clip310">
    <rect x="0" y="0" width="2000" height="2000"/>
  </clipPath>
</defs>
<path clip-path="url(#clip310)" d="M0 2000 L2000 2000 L2000 0 L0 0  Z" fill="#ffffff" fill-rule="evenodd" fill-opacity="1"/>
<defs>
  <clipPath id="clip311">
    <rect x="400" y="200" width="1401" height="1401"/>
  </clipPath>
</defs>
<path clip-path="url(#clip310)" d="M194.665 1781.8 L1952.76 1781.8 L1952.76 47.2441 L194.665 47.2441  Z" fill="#ffffff" fill-rule="evenodd" fill-opacity="1"/>
<defs>
  <clipPath id="clip312">
    <rect x="194" y="47" width="1759" height="1736"/>
  </clipPath>
</defs>
<polyline clip-path="url(#clip310)" style="stroke:#000000; stroke-linecap:round; stroke-linejoin:round; stroke-width:4; stroke-opacity:1; fill:none" points="194.665,1781.8 1952.76,1781.8 "/>
<polyline clip-path="url(#clip310)" style="stroke:#000000; stroke-linecap:round; stroke-linejoin:round; stroke-width:4; stroke-opacity:1; fill:none" points="194.665,47.2441 1952.76,47.2441 "/>
<polyline clip-path="url(#clip310)" style="stroke:#000000; stroke-linecap:round; stroke-linejoin:round; stroke-width:4; stroke-opacity:1; fill:none" points="194.665,1781.8 194.665,1762.9 "/>
<polyline clip-path="url(#clip310)" style="stroke:#000000; stroke-linecap:round; stroke-linejoin:round; stroke-width:4; stroke-opacity:1; fill:none" points="546.283,1781.8 546.283,1762.9 "/>
<polyline clip-path="url(#clip310)" style="stroke:#000000; stroke-linecap:round; stroke-linejoin:round; stroke-width:4; stroke-opacity:1; fill:none" points="897.901,1781.8 897.901,1762.9 "/>
<polyline clip-path="url(#clip310)" style="stroke:#000000; stroke-linecap:round; stroke-linejoin:round; stroke-width:4; stroke-opacity:1; fill:none" points="1249.52,1781.8 1249.52,1762.9 "/>
<polyline clip-path="url(#clip310)" style="stroke:#000000; stroke-linecap:round; stroke-linejoin:round; stroke-width:4; stroke-opacity:1; fill:none" points="1601.14,1781.8 1601.14,1762.9 "/>
<polyline clip-path="url(#clip310)" style="stroke:#000000; stroke-linecap:round; stroke-linejoin:round; stroke-width:4; stroke-opacity:1; fill:none" points="1952.76,1781.8 1952.76,1762.9 "/>
<g clip-path="url(#clip310)">
<text style="fill:#000000; fill-opacity:1; font-family:Arial,Helvetica Neue,Helvetica,sans-serif; font-size:48px; text-anchor:middle;" transform="rotate(0, 194.665, 1840.45)" x="194.665" y="1840.45">0</text>
</g>
<g clip-path="url(#clip310)">
<text style="fill:#000000; fill-opacity:1; font-family:Arial,Helvetica Neue,Helvetica,sans-serif; font-size:48px; text-anchor:middle;" transform="rotate(0, 546.283, 1840.45)" x="546.283" y="1840.45">1</text>
</g>
<g clip-path="url(#clip310)">
<text style="fill:#000000; fill-opacity:1; font-family:Arial,Helvetica Neue,Helvetica,sans-serif; font-size:48px; text-anchor:middle;" transform="rotate(0, 897.901, 1840.45)" x="897.901" y="1840.45">2</text>
</g>
<g clip-path="url(#clip310)">
<text style="fill:#000000; fill-opacity:1; font-family:Arial,Helvetica Neue,Helvetica,sans-serif; font-size:48px; text-anchor:middle;" transform="rotate(0, 1249.52, 1840.45)" x="1249.52" y="1840.45">3</text>
</g>
<g clip-path="url(#clip310)">
<text style="fill:#000000; fill-opacity:1; font-family:Arial,Helvetica Neue,Helvetica,sans-serif; font-size:48px; text-anchor:middle;" transform="rotate(0, 1601.14, 1840.45)" x="1601.14" y="1840.45">4</text>
</g>
<g clip-path="url(#clip310)">
<text style="fill:#000000; fill-opacity:1; font-family:Arial,Helvetica Neue,Helvetica,sans-serif; font-size:48px; text-anchor:middle;" transform="rotate(0, 1952.76, 1840.45)" x="1952.76" y="1840.45">5</text>
</g>
<g clip-path="url(#clip310)">
<text style="fill:#000000; fill-opacity:1; font-family:Arial,Helvetica Neue,Helvetica,sans-serif; font-size:66px; text-anchor:middle;" transform="rotate(0, 1073.71, 1921.66)" x="1073.71" y="1921.66">1st Dim</text>
</g>
<polyline clip-path="url(#clip310)" style="stroke:#000000; stroke-linecap:round; stroke-linejoin:round; stroke-width:4; stroke-opacity:1; fill:none" points="194.665,1781.8 194.665,47.2441 "/>
<polyline clip-path="url(#clip310)" style="stroke:#000000; stroke-linecap:round; stroke-linejoin:round; stroke-width:4; stroke-opacity:1; fill:none" points="1952.76,1781.8 1952.76,47.2441 "/>
<polyline clip-path="url(#clip310)" style="stroke:#000000; stroke-linecap:round; stroke-linejoin:round; stroke-width:4; stroke-opacity:1; fill:none" points="194.665,1781.8 213.562,1781.8 "/>
<polyline clip-path="url(#clip310)" style="stroke:#000000; stroke-linecap:round; stroke-linejoin:round; stroke-width:4; stroke-opacity:1; fill:none" points="194.665,1434.89 213.562,1434.89 "/>
<polyline clip-path="url(#clip310)" style="stroke:#000000; stroke-linecap:round; stroke-linejoin:round; stroke-width:4; stroke-opacity:1; fill:none" points="194.665,1087.98 213.562,1087.98 "/>
<polyline clip-path="url(#clip310)" style="stroke:#000000; stroke-linecap:round; stroke-linejoin:round; stroke-width:4; stroke-opacity:1; fill:none" points="194.665,741.066 213.562,741.066 "/>
<polyline clip-path="url(#clip310)" style="stroke:#000000; stroke-linecap:round; stroke-linejoin:round; stroke-width:4; stroke-opacity:1; fill:none" points="194.665,394.155 213.562,394.155 "/>
<polyline clip-path="url(#clip310)" style="stroke:#000000; stroke-linecap:round; stroke-linejoin:round; stroke-width:4; stroke-opacity:1; fill:none" points="194.665,47.2441 213.562,47.2441 "/>
<g clip-path="url(#clip310)">
<text style="fill:#000000; fill-opacity:1; font-family:Arial,Helvetica Neue,Helvetica,sans-serif; font-size:48px; text-anchor:middle;" transform="rotate(0, 151.283, 1799.3)" x="151.283" y="1799.3">0</text>
</g>
<g clip-path="url(#clip310)">
<text style="fill:#000000; fill-opacity:1; font-family:Arial,Helvetica Neue,Helvetica,sans-serif; font-size:48px; text-anchor:middle;" transform="rotate(0, 151.283, 1452.39)" x="151.283" y="1452.39">1</text>
</g>
<g clip-path="url(#clip310)">
<text style="fill:#000000; fill-opacity:1; font-family:Arial,Helvetica Neue,Helvetica,sans-serif; font-size:48px; text-anchor:middle;" transform="rotate(0, 151.283, 1105.48)" x="151.283" y="1105.48">2</text>
</g>
<g clip-path="url(#clip310)">
<text style="fill:#000000; fill-opacity:1; font-family:Arial,Helvetica Neue,Helvetica,sans-serif; font-size:48px; text-anchor:middle;" transform="rotate(0, 151.283, 758.566)" x="151.283" y="758.566">3</text>
</g>
<g clip-path="url(#clip310)">
<text style="fill:#000000; fill-opacity:1; font-family:Arial,Helvetica Neue,Helvetica,sans-serif; font-size:48px; text-anchor:middle;" transform="rotate(0, 151.283, 411.655)" x="151.283" y="411.655">4</text>
</g>
<g clip-path="url(#clip310)">
<text style="fill:#000000; fill-opacity:1; font-family:Arial,Helvetica Neue,Helvetica,sans-serif; font-size:48px; text-anchor:middle;" transform="rotate(0, 151.283, 64.7441)" x="151.283" y="64.7441">5</text>
</g>
<g clip-path="url(#clip310)">
<text style="fill:#000000; fill-opacity:1; font-family:Arial,Helvetica Neue,Helvetica,sans-serif; font-size:66px; text-anchor:middle;" transform="rotate(-90, 96.3402, 914.521)" x="96.3402" y="914.521">2nd Dim</text>
</g>
<circle clip-path="url(#clip312)" cx="1618.72" cy="1417.54" r="14.4" fill="#0000ff" fill-rule="evenodd" fill-opacity="0.2" stroke="#000000" stroke-opacity="0.2" stroke-width="4"/>
<path clip-path="url(#clip310)" d="M1514.33 1336.37 L1531.5 1336.37 L1531.5 1342.16 L1521.78 1342.16 L1521.78 1404.54 L1531.5 1404.54 L1531.5 1410.34 L1514.33 1410.34 L1514.33 1336.37 Z" fill="#000000" fill-rule="evenodd" fill-opacity="1" /><path clip-path="url(#clip310)" d="M1570.92 1346.05 L1550.26 1378.33 L1570.92 1378.33 L1570.92 1346.05 M1568.77 1338.92 L1579.06 1338.92 L1579.06 1378.33 L1587.69 1378.33 L1587.69 1385.14 L1579.06 1385.14 L1579.06 1399.4 L1570.92 1399.4 L1570.92 1385.14 L1543.61 1385.14 L1543.61 1377.24 L1568.77 1338.92 Z" fill="#000000" fill-rule="evenodd" fill-opacity="1" /><path clip-path="url(#clip310)" d="M1602.07 1389.11 L1610.62 1389.11 L1610.62 1396.08 L1603.97 1409.04 L1598.75 1409.04 L1602.07 1396.08 L1602.07 1389.11 Z" fill="#000000" fill-rule="evenodd" fill-opacity="1" /><path clip-path="url(#clip310)" d="M1655.38 1392.51 L1668.75 1392.51 L1668.75 1346.37 L1654.2 1349.29 L1654.2 1341.83 L1668.67 1338.92 L1676.85 1338.92 L1676.85 1392.51 L1690.22 1392.51 L1690.22 1399.4 L1655.38 1399.4 L1655.38 1392.51 Z" fill="#000000" fill-rule="evenodd" fill-opacity="1" /><path clip-path="url(#clip310)" d="M1723.11 1336.37 L1723.11 1410.34 L1705.93 1410.34 L1705.93 1404.54 L1715.62 1404.54 L1715.62 1342.16 L1705.93 1342.16 L1705.93 1336.37 L1723.11 1336.37 Z" fill="#000000" fill-rule="evenodd" fill-opacity="1" /><polyline clip-path="url(#clip312)" style="stroke:#0000ff; stroke-linecap:round; stroke-linejoin:round; stroke-width:6; stroke-opacity:0.2; fill:none" points="194.665,1781.8 1601.14,1434.89 "/>
<polyline clip-path="url(#clip312)" style="stroke:#0000ff; stroke-linecap:round; stroke-linejoin:round; stroke-width:6; stroke-opacity:0.2; fill:none" points="1568.42,1427.51 1601.14,1434.89 1575.6,1456.64 "/>
<polyline clip-path="url(#clip312)" style="stroke:#0000ff; stroke-linecap:round; stroke-linejoin:round; stroke-width:6; stroke-opacity:0.2; fill:none" points="1601.14,1434.89 194.665,1781.8 "/>
<circle clip-path="url(#clip312)" cx="563.864" cy="723.72" r="14.4" fill="#0000ff" fill-rule="evenodd" fill-opacity="1" stroke="#000000" stroke-opacity="1" stroke-width="4"/>
<path clip-path="url(#clip310)" d="M459.472 642.544 L476.648 642.544 L476.648 648.337 L466.926 648.337 L466.926 710.721 L476.648 710.721 L476.648 716.514 L459.472 716.514 L459.472 642.544 Z" fill="#000000" fill-rule="evenodd" fill-opacity="1" /><path clip-path="url(#clip310)" d="M494.998 698.69 L508.366 698.69 L508.366 652.55 L493.824 655.466 L493.824 648.013 L508.285 645.096 L516.468 645.096 L516.468 698.69 L529.836 698.69 L529.836 705.576 L494.998 705.576 L494.998 698.69 Z" fill="#000000" fill-rule="evenodd" fill-opacity="1" /><path clip-path="url(#clip310)" d="M547.215 695.287 L555.762 695.287 L555.762 702.254 L549.118 715.217 L543.893 715.217 L547.215 702.254 L547.215 695.287 Z" fill="#000000" fill-rule="evenodd" fill-opacity="1" /><path clip-path="url(#clip310)" d="M623.898 672.966 Q629.772 674.222 633.053 678.192 Q636.375 682.162 636.375 687.995 Q636.375 696.948 630.218 701.849 Q624.06 706.751 612.718 706.751 Q608.91 706.751 604.859 705.981 Q600.849 705.252 596.555 703.753 L596.555 695.854 Q599.957 697.839 604.008 698.852 Q608.059 699.864 612.475 699.864 Q620.171 699.864 624.182 696.826 Q628.233 693.788 628.233 687.995 Q628.233 682.648 624.465 679.65 Q620.738 676.612 614.054 676.612 L607.006 676.612 L607.006 669.888 L614.379 669.888 Q620.414 669.888 623.615 667.498 Q626.815 665.067 626.815 660.53 Q626.815 655.872 623.493 653.4 Q620.212 650.889 614.054 650.889 Q610.692 650.889 606.844 651.618 Q602.996 652.347 598.377 653.887 L598.377 646.595 Q603.036 645.299 607.087 644.651 Q611.178 644.002 614.784 644.002 Q624.101 644.002 629.529 648.256 Q634.957 652.469 634.957 659.679 Q634.957 664.702 632.081 668.186 Q629.205 671.63 623.898 672.966 Z" fill="#000000" fill-rule="evenodd" fill-opacity="1" /><path clip-path="url(#clip310)" d="M668.256 642.544 L668.256 716.514 L651.08 716.514 L651.08 710.721 L660.761 710.721 L660.761 648.337 L651.08 648.337 L651.08 642.544 L668.256 642.544 Z" fill="#000000" fill-rule="evenodd" fill-opacity="1" /><polyline clip-path="url(#clip312)" style="stroke:#0000ff; stroke-linecap:round; stroke-linejoin:round; stroke-width:6; stroke-opacity:1; fill:none" points="194.665,1781.8 546.283,741.066 "/>
<polyline clip-path="url(#clip312)" style="stroke:#0000ff; stroke-linecap:round; stroke-linejoin:round; stroke-width:6; stroke-opacity:1; fill:none" points="522.47,764.686 546.283,741.066 550.891,774.289 "/>
<polyline clip-path="url(#clip312)" style="stroke:#0000ff; stroke-linecap:round; stroke-linejoin:round; stroke-width:6; stroke-opacity:1; fill:none" points="546.283,741.066 194.665,1781.8 "/>
<path clip-path="url(#clip310)" d="M263.201 1615.92 L279.858 1567.55 L286.369 1569.79 L279.38 1590.09 L330.053 1607.54 L327.376 1615.31 L276.702 1597.86 L269.712 1618.16 L263.201 1615.92 Z" fill="#000000" fill-rule="evenodd" fill-opacity="1" /><path clip-path="url(#clip310)" d="M307.789 1554.24 Q306.69 1555.19 305.896 1556.5 Q305.076 1557.76 304.496 1559.45 Q302.439 1565.42 305.238 1569.99 Q308.011 1574.5 315.289 1577 L337.887 1584.78 L335.447 1591.87 L292.549 1577.1 L294.989 1570.01 L301.653 1572.31 Q298.511 1568.74 297.861 1564.53 Q297.173 1560.31 298.927 1555.22 Q299.177 1554.49 299.596 1553.65 Q299.975 1552.79 300.536 1551.79 L307.789 1554.24 Z" fill="#000000" fill-rule="evenodd" fill-opacity="1" /><path clip-path="url(#clip310)" d="M331.793 1532.43 Q328.852 1540.97 329.671 1544.94 Q330.49 1548.91 335.202 1550.53 Q338.955 1551.82 342.021 1550.13 Q345.061 1548.4 346.525 1544.14 Q348.543 1538.28 345.62 1533.34 Q342.671 1528.34 335.777 1525.96 L334.207 1525.42 L331.793 1532.43 M333.722 1517.37 L358.197 1525.8 L355.771 1532.85 L349.259 1530.6 Q352.335 1534.36 352.972 1538.61 Q353.571 1542.84 351.777 1548.05 Q349.509 1554.64 344.487 1557.28 Q339.44 1559.87 333.235 1557.73 Q325.995 1555.24 323.98 1549.15 Q321.978 1543.02 325.288 1533.4 L328.691 1523.52 L328.002 1523.29 Q323.137 1521.61 319.387 1523.92 Q315.611 1526.17 313.619 1531.96 Q312.353 1535.63 312.034 1539.42 Q311.715 1543.21 312.369 1547.04 L305.858 1544.79 Q305.696 1540.41 306.221 1536.52 Q306.708 1532.62 307.895 1529.17 Q311.1 1519.86 317.508 1516.93 Q323.917 1514 333.722 1517.37 Z" fill="#000000" fill-rule="evenodd" fill-opacity="1" /><path clip-path="url(#clip310)" d="M349.582 1466.71 L375.474 1475.62 L373.048 1482.67 L347.385 1473.84 Q341.295 1471.74 337.452 1473.07 Q333.608 1474.4 331.973 1479.15 Q330.008 1484.86 332.512 1489.41 Q335.017 1493.95 341.298 1496.12 L365.543 1504.47 L363.103 1511.55 L320.205 1496.78 L322.645 1489.69 L329.31 1491.99 Q326.311 1488.13 325.57 1484.06 Q324.842 1479.95 326.385 1475.47 Q328.93 1468.08 334.832 1465.87 Q340.696 1463.65 349.582 1466.71 Z" fill="#000000" fill-rule="evenodd" fill-opacity="1" /><path clip-path="url(#clip310)" d="M348.097 1419.88 L354.761 1422.18 Q352.2 1424.64 350.326 1427.59 Q348.453 1430.55 347.266 1433.99 Q345.459 1439.24 346.158 1442.44 Q346.869 1445.6 350.087 1446.7 Q352.538 1447.55 354.602 1446.16 Q356.627 1444.76 359.842 1439.52 L361.21 1437.29 Q365.403 1430.34 369.434 1428.22 Q373.44 1426.04 378.687 1427.85 Q384.662 1429.9 386.512 1435.85 Q388.375 1441.76 385.527 1450.04 Q384.34 1453.48 382.358 1457 Q380.427 1460.49 377.663 1464.17 L370.385 1461.66 Q373.76 1458.45 376.1 1455.02 Q378.402 1451.57 379.681 1447.85 Q381.395 1442.87 380.633 1439.61 Q379.833 1436.34 376.73 1435.27 Q373.858 1434.28 371.653 1435.71 Q369.462 1437.09 365.789 1443.16 L364.371 1445.41 Q360.737 1451.48 356.9 1453.42 Q353.025 1455.34 348.046 1453.63 Q341.994 1451.54 340.177 1446.12 Q338.36 1440.69 341.077 1432.8 Q342.422 1428.9 344.184 1425.65 Q345.945 1422.4 348.097 1419.88 Z" fill="#000000" fill-rule="evenodd" fill-opacity="1" /><path clip-path="url(#clip310)" d="M342.266 1378.46 L348.127 1380.48 L345.805 1387.22 Q344.5 1391.01 345.517 1393.03 Q346.548 1395.02 350.532 1396.39 L354.324 1397.69 L358.32 1386.09 L363.797 1387.97 L359.801 1399.58 L397.222 1412.46 L394.782 1419.55 L357.361 1406.66 L355.04 1413.41 L349.563 1411.52 L351.884 1404.78 L348.896 1403.75 Q341.734 1401.28 339.625 1396.83 Q337.479 1392.36 339.972 1385.12 L342.266 1378.46 Z" fill="#000000" fill-rule="evenodd" fill-opacity="1" /><path clip-path="url(#clip310)" d="M371.662 1363.39 Q369.71 1369.06 373.019 1373.88 Q376.289 1378.69 383.988 1381.34 Q391.687 1383.99 397.251 1382.27 Q402.79 1380.49 404.755 1374.78 Q406.693 1369.15 403.385 1364.33 Q400.076 1359.51 392.415 1356.87 Q384.793 1354.24 379.216 1356.01 Q373.6 1357.76 371.662 1363.39 M365.687 1361.33 Q368.852 1352.14 376.634 1348.95 Q384.416 1345.76 394.987 1349.4 Q405.52 1353.03 409.727 1360.34 Q413.895 1367.65 410.73 1376.84 Q407.551 1386.07 399.77 1389.26 Q391.962 1392.4 381.429 1388.77 Q370.858 1385.13 366.677 1377.87 Q362.508 1370.56 365.687 1361.33 Z" fill="#000000" fill-rule="evenodd" fill-opacity="1" /><path clip-path="url(#clip310)" d="M392.669 1307.73 Q391.571 1308.68 390.777 1309.99 Q389.957 1311.25 389.377 1312.94 Q387.32 1318.91 390.119 1323.47 Q392.892 1327.99 400.17 1330.49 L422.768 1338.27 L420.328 1345.36 L377.43 1330.59 L379.87 1323.5 L386.534 1325.8 Q383.392 1322.23 382.742 1318.02 Q382.054 1313.8 383.808 1308.71 Q384.058 1307.98 384.476 1307.14 Q384.856 1306.28 385.417 1305.28 L392.669 1307.73 Z" fill="#000000" fill-rule="evenodd" fill-opacity="1" /><path clip-path="url(#clip310)" d="M407.887 1268.88 Q404.048 1264.61 403.054 1260.15 Q402.06 1255.7 403.775 1250.72 Q406.083 1244.01 412.047 1242 Q417.973 1239.97 426.629 1242.95 L452.521 1251.86 L450.081 1258.95 L424.419 1250.11 Q418.252 1247.99 414.513 1249.14 Q410.774 1250.3 409.231 1254.78 Q407.345 1260.26 409.889 1264.69 Q412.433 1269.12 418.714 1271.28 L442.96 1279.63 L440.52 1286.72 L414.857 1277.88 Q408.652 1275.75 404.951 1276.91 Q401.212 1278.07 399.643 1282.63 Q397.783 1288.03 400.365 1292.47 Q402.909 1296.9 409.153 1299.05 L433.398 1307.4 L430.958 1314.49 L388.06 1299.72 L390.5 1292.63 L397.164 1294.92 Q394.05 1291.15 393.334 1287.14 Q392.617 1283.12 394.213 1278.49 Q395.822 1273.81 399.318 1271.37 Q402.827 1268.9 407.887 1268.88 Z" fill="#000000" fill-rule="evenodd" fill-opacity="1" /><path clip-path="url(#clip310)" d="M446.785 1193.12 L450.232 1194.31 L439.075 1226.71 Q446.51 1228.76 451.686 1226.17 Q456.836 1223.53 459.249 1216.52 Q460.647 1212.46 460.957 1208.33 Q461.28 1204.15 460.581 1199.71 L467.246 1202.01 Q467.549 1206.35 467.02 1210.63 Q466.491 1214.9 465.079 1219 Q461.545 1229.26 453.499 1233.22 Q445.467 1237.14 435.278 1233.63 Q424.745 1230 420.531 1222.21 Q416.291 1214.37 419.614 1204.72 Q422.595 1196.06 429.915 1192.97 Q437.209 1189.82 446.785 1193.12 M442.29 1199.46 Q436.48 1197.54 431.938 1199.53 Q427.409 1201.49 425.616 1206.7 Q423.585 1212.59 425.69 1217.3 Q427.809 1221.98 433.676 1224.6 L442.29 1199.46 Z" fill="#000000" fill-rule="evenodd" fill-opacity="1" /><path clip-path="url(#clip310)" d="M447.312 1148.79 L424.101 1140.8 L426.527 1133.75 L486.125 1154.27 L483.699 1161.32 L477.264 1159.1 Q480.329 1162.64 481.032 1166.7 Q481.71 1170.7 480.075 1175.45 Q477.397 1183.23 469.504 1185.99 Q461.625 1188.72 451.513 1185.24 Q441.401 1181.76 436.871 1174.75 Q432.354 1167.72 435.032 1159.94 Q436.667 1155.19 439.704 1152.47 Q442.717 1149.69 447.312 1148.79 M454.019 1177.96 Q461.794 1180.64 467.332 1178.99 Q472.844 1177.29 474.77 1171.7 Q476.695 1166.1 473.398 1161.37 Q470.063 1156.62 462.288 1153.94 Q454.512 1151.27 449 1152.97 Q443.449 1154.66 441.524 1160.25 Q439.598 1165.84 442.933 1170.59 Q446.243 1175.28 454.019 1177.96 Z" fill="#000000" fill-rule="evenodd" fill-opacity="1" /><path clip-path="url(#clip310)" d="M504.892 1099.77 L440.19 1101.91 L442.973 1093.83 L497.357 1092.29 L455.462 1057.55 L458.232 1049.51 L507.913 1090.99 L504.892 1099.77 Z" fill="#000000" fill-rule="evenodd" fill-opacity="1" /><path clip-path="url(#clip310)" d="M505.513 1022.56 L508.96 1023.75 L497.803 1056.15 Q505.238 1058.2 510.414 1055.61 Q515.564 1052.97 517.978 1045.96 Q519.376 1041.9 519.685 1037.77 Q520.008 1033.59 519.309 1029.15 L525.974 1031.45 Q526.277 1035.79 525.748 1040.07 Q525.219 1044.34 523.808 1048.44 Q520.273 1058.71 512.227 1062.66 Q504.195 1066.58 494.007 1063.07 Q483.474 1059.44 479.259 1051.65 Q475.019 1043.81 478.342 1034.16 Q481.323 1025.5 488.643 1022.41 Q495.937 1019.26 505.513 1022.56 M501.018 1028.9 Q495.208 1026.98 490.666 1028.97 Q486.138 1030.93 484.344 1036.14 Q482.313 1042.04 484.419 1046.75 Q486.538 1051.42 492.405 1054.04 L501.018 1028.9 Z" fill="#000000" fill-rule="evenodd" fill-opacity="1" /><path clip-path="url(#clip310)" d="M502.086 973.911 L508.673 976.18 Q505.998 978.6 504.152 981.349 Q502.28 984.046 501.225 987.111 Q498.864 993.967 501.925 999.262 Q504.948 1004.54 512.8 1007.25 Q520.651 1009.95 526.324 1007.66 Q531.957 1005.36 534.318 998.505 Q535.373 995.441 535.598 992.177 Q535.797 988.861 535.178 985.306 L541.69 987.548 Q542.053 990.972 541.648 994.389 Q541.256 997.767 540.029 1001.33 Q536.693 1011.02 528.638 1014.63 Q520.583 1018.24 510.241 1014.68 Q499.746 1011.06 495.711 1003.25 Q491.689 995.395 495.145 985.36 Q496.266 982.104 498.023 979.239 Q499.743 976.361 502.086 973.911 Z" fill="#000000" fill-rule="evenodd" fill-opacity="1" /><path clip-path="url(#clip310)" d="M494.879 949.923 L507.059 954.117 L512.058 939.6 L517.535 941.486 L512.536 956.002 L535.824 964.021 Q541.071 965.828 543.053 964.925 Q545.048 963.984 546.565 959.579 L549.057 952.34 L554.956 954.371 L552.463 961.61 Q549.654 969.769 545.56 971.829 Q541.428 973.877 533.384 971.107 L510.096 963.088 L508.316 968.259 L502.839 966.373 L504.619 961.202 L492.439 957.008 L494.879 949.923 Z" fill="#000000" fill-rule="evenodd" fill-opacity="1" /><path clip-path="url(#clip310)" d="M525.914 915.409 Q523.962 921.078 527.271 925.902 Q530.541 930.712 538.24 933.363 Q545.939 936.014 551.503 934.288 Q557.042 932.511 559.007 926.804 Q560.946 921.174 557.637 916.35 Q554.328 911.526 546.668 908.888 Q539.045 906.264 533.468 908.028 Q527.853 909.779 525.914 915.409 M519.939 913.352 Q523.104 904.159 530.886 900.969 Q538.668 897.779 549.239 901.419 Q559.772 905.046 563.979 912.364 Q568.147 919.669 564.982 928.861 Q561.804 938.092 554.022 941.282 Q546.215 944.421 535.682 940.794 Q525.11 937.154 520.929 929.887 Q516.76 922.583 519.939 913.352 Z" fill="#000000" fill-rule="evenodd" fill-opacity="1" /><path clip-path="url(#clip310)" d="M546.922 859.749 Q545.823 860.699 545.029 862.011 Q544.209 863.271 543.629 864.956 Q541.572 870.931 544.371 875.494 Q547.145 880.005 554.422 882.511 L577.02 890.292 L574.58 897.378 L531.682 882.607 L534.122 875.521 L540.786 877.816 Q537.645 874.249 536.994 870.04 Q536.306 865.819 538.06 860.725 Q538.31 859.997 538.729 859.156 Q539.109 858.301 539.669 857.295 L546.922 859.749 Z" fill="#000000" fill-rule="evenodd" fill-opacity="1" /></svg>
