<?xml version="1.0" encoding="utf-8"?>
<svg xmlns="http://www.w3.org/2000/svg" xmlns:xlink="http://www.w3.org/1999/xlink" width="500" height="500" viewBox="0 0 2000 2000">
<defs>
  <clipPath id="clip540">
    <rect x="0" y="0" width="2000" height="2000"/>
  </clipPath>
</defs>
<path clip-path="url(#clip540)" d="M0 2000 L2000 2000 L2000 0 L0 0  Z" fill="#ffffff" fill-rule="evenodd" fill-opacity="1"/>
<defs>
  <clipPath id="clip541">
    <rect x="400" y="200" width="1401" height="1401"/>
  </clipPath>
</defs>
<path clip-path="url(#clip540)" d="M221.427 1781.8 L1952.76 1781.8 L1952.76 47.2441 L221.427 47.2441  Z" fill="#ffffff" fill-rule="evenodd" fill-opacity="1"/>
<defs>
  <clipPath id="clip542">
    <rect x="221" y="47" width="1732" height="1736"/>
  </clipPath>
</defs>
<polyline clip-path="url(#clip540)" style="stroke:#000000; stroke-linecap:round; stroke-linejoin:round; stroke-width:4; stroke-opacity:1; fill:none" points="221.427,1781.8 1952.76,1781.8 "/>
<polyline clip-path="url(#clip540)" style="stroke:#000000; stroke-linecap:round; stroke-linejoin:round; stroke-width:4; stroke-opacity:1; fill:none" points="221.427,47.2441 1952.76,47.2441 "/>
<polyline clip-path="url(#clip540)" style="stroke:#000000; stroke-linecap:round; stroke-linejoin:round; stroke-width:4; stroke-opacity:1; fill:none" points="221.427,1781.8 221.427,1762.9 "/>
<polyline clip-path="url(#clip540)" style="stroke:#000000; stroke-linecap:round; stroke-linejoin:round; stroke-width:4; stroke-opacity:1; fill:none" points="567.693,1781.8 567.693,1762.9 "/>
<polyline clip-path="url(#clip540)" style="stroke:#000000; stroke-linecap:round; stroke-linejoin:round; stroke-width:4; stroke-opacity:1; fill:none" points="913.959,1781.8 913.959,1762.9 "/>
<polyline clip-path="url(#clip540)" style="stroke:#000000; stroke-linecap:round; stroke-linejoin:round; stroke-width:4; stroke-opacity:1; fill:none" points="1260.22,1781.8 1260.22,1762.9 "/>
<polyline clip-path="url(#clip540)" style="stroke:#000000; stroke-linecap:round; stroke-linejoin:round; stroke-width:4; stroke-opacity:1; fill:none" points="1606.49,1781.8 1606.49,1762.9 "/>
<polyline clip-path="url(#clip540)" style="stroke:#000000; stroke-linecap:round; stroke-linejoin:round; stroke-width:4; stroke-opacity:1; fill:none" points="1952.76,1781.8 1952.76,1762.9 "/>
<g clip-path="url(#clip540)">
<text style="fill:#000000; fill-opacity:1; font-family:Arial,Helvetica Neue,Helvetica,sans-serif; font-size:48px; text-anchor:middle;" transform="rotate(0, 221.427, 1840.45)" x="221.427" y="1840.45">0</text>
</g>
<g clip-path="url(#clip540)">
<text style="fill:#000000; fill-opacity:1; font-family:Arial,Helvetica Neue,Helvetica,sans-serif; font-size:48px; text-anchor:middle;" transform="rotate(0, 567.693, 1840.45)" x="567.693" y="1840.45">2</text>
</g>
<g clip-path="url(#clip540)">
<text style="fill:#000000; fill-opacity:1; font-family:Arial,Helvetica Neue,Helvetica,sans-serif; font-size:48px; text-anchor:middle;" transform="rotate(0, 913.959, 1840.45)" x="913.959" y="1840.45">4</text>
</g>
<g clip-path="url(#clip540)">
<text style="fill:#000000; fill-opacity:1; font-family:Arial,Helvetica Neue,Helvetica,sans-serif; font-size:48px; text-anchor:middle;" transform="rotate(0, 1260.22, 1840.45)" x="1260.22" y="1840.45">6</text>
</g>
<g clip-path="url(#clip540)">
<text style="fill:#000000; fill-opacity:1; font-family:Arial,Helvetica Neue,Helvetica,sans-serif; font-size:48px; text-anchor:middle;" transform="rotate(0, 1606.49, 1840.45)" x="1606.49" y="1840.45">8</text>
</g>
<g clip-path="url(#clip540)">
<text style="fill:#000000; fill-opacity:1; font-family:Arial,Helvetica Neue,Helvetica,sans-serif; font-size:48px; text-anchor:middle;" transform="rotate(0, 1952.76, 1840.45)" x="1952.76" y="1840.45">10</text>
</g>
<g clip-path="url(#clip540)">
<text style="fill:#000000; fill-opacity:1; font-family:Arial,Helvetica Neue,Helvetica,sans-serif; font-size:66px; text-anchor:middle;" transform="rotate(0, 1087.09, 1921.66)" x="1087.09" y="1921.66">1st Dim</text>
</g>
<polyline clip-path="url(#clip540)" style="stroke:#000000; stroke-linecap:round; stroke-linejoin:round; stroke-width:4; stroke-opacity:1; fill:none" points="221.427,1781.8 221.427,47.2441 "/>
<polyline clip-path="url(#clip540)" style="stroke:#000000; stroke-linecap:round; stroke-linejoin:round; stroke-width:4; stroke-opacity:1; fill:none" points="1952.76,1781.8 1952.76,47.2441 "/>
<polyline clip-path="url(#clip540)" style="stroke:#000000; stroke-linecap:round; stroke-linejoin:round; stroke-width:4; stroke-opacity:1; fill:none" points="221.427,1781.8 240.325,1781.8 "/>
<polyline clip-path="url(#clip540)" style="stroke:#000000; stroke-linecap:round; stroke-linejoin:round; stroke-width:4; stroke-opacity:1; fill:none" points="221.427,1434.89 240.325,1434.89 "/>
<polyline clip-path="url(#clip540)" style="stroke:#000000; stroke-linecap:round; stroke-linejoin:round; stroke-width:4; stroke-opacity:1; fill:none" points="221.427,1087.98 240.325,1087.98 "/>
<polyline clip-path="url(#clip540)" style="stroke:#000000; stroke-linecap:round; stroke-linejoin:round; stroke-width:4; stroke-opacity:1; fill:none" points="221.427,741.066 240.325,741.066 "/>
<polyline clip-path="url(#clip540)" style="stroke:#000000; stroke-linecap:round; stroke-linejoin:round; stroke-width:4; stroke-opacity:1; fill:none" points="221.427,394.155 240.325,394.155 "/>
<polyline clip-path="url(#clip540)" style="stroke:#000000; stroke-linecap:round; stroke-linejoin:round; stroke-width:4; stroke-opacity:1; fill:none" points="221.427,47.2441 240.325,47.2441 "/>
<g clip-path="url(#clip540)">
<text style="fill:#000000; fill-opacity:1; font-family:Arial,Helvetica Neue,Helvetica,sans-serif; font-size:48px; text-anchor:middle;" transform="rotate(0, 178.046, 1799.3)" x="178.046" y="1799.3">0</text>
</g>
<g clip-path="url(#clip540)">
<text style="fill:#000000; fill-opacity:1; font-family:Arial,Helvetica Neue,Helvetica,sans-serif; font-size:48px; text-anchor:middle;" transform="rotate(0, 178.046, 1452.39)" x="178.046" y="1452.39">2</text>
</g>
<g clip-path="url(#clip540)">
<text style="fill:#000000; fill-opacity:1; font-family:Arial,Helvetica Neue,Helvetica,sans-serif; font-size:48px; text-anchor:middle;" transform="rotate(0, 178.046, 1105.48)" x="178.046" y="1105.48">4</text>
</g>
<g clip-path="url(#clip540)">
<text style="fill:#000000; fill-opacity:1; font-family:Arial,Helvetica Neue,Helvetica,sans-serif; font-size:48px; text-anchor:middle;" transform="rotate(0, 178.046, 758.566)" x="178.046" y="758.566">6</text>
</g>
<g clip-path="url(#clip540)">
<text style="fill:#000000; fill-opacity:1; font-family:Arial,Helvetica Neue,Helvetica,sans-serif; font-size:48px; text-anchor:middle;" transform="rotate(0, 178.046, 411.655)" x="178.046" y="411.655">8</text>
</g>
<g clip-path="url(#clip540)">
<text style="fill:#000000; fill-opacity:1; font-family:Arial,Helvetica Neue,Helvetica,sans-serif; font-size:48px; text-anchor:middle;" transform="rotate(0, 164.665, 64.7441)" x="164.665" y="64.7441">10</text>
</g>
<g clip-path="url(#clip540)">
<text style="fill:#000000; fill-opacity:1; font-family:Arial,Helvetica Neue,Helvetica,sans-serif; font-size:66px; text-anchor:middle;" transform="rotate(-90, 96.3402, 914.521)" x="96.3402" y="914.521">2nd Dim</text>
</g>
<circle clip-path="url(#clip542)" cx="749.482" cy="1079.3" r="14.4" fill="#0000ff" fill-rule="evenodd" fill-opacity="1" stroke="#000000" stroke-opacity="1" stroke-width="4"/>
<path clip-path="url(#clip540)" d="M645.09 998.128 L662.266 998.128 L662.266 1003.92 L652.544 1003.92 L652.544 1066.3 L662.266 1066.3 L662.266 1072.1 L645.09 1072.1 L645.09 998.128 Z" fill="#000000" fill-rule="evenodd" fill-opacity="1" /><path clip-path="url(#clip540)" d="M703.991 1028.55 Q709.864 1029.81 713.146 1033.78 Q716.467 1037.75 716.467 1043.58 Q716.467 1052.53 710.31 1057.43 Q704.153 1062.33 692.81 1062.33 Q689.002 1062.33 684.951 1061.56 Q680.941 1060.84 676.647 1059.34 L676.647 1051.44 Q680.05 1053.42 684.101 1054.44 Q688.152 1055.45 692.567 1055.45 Q700.264 1055.45 704.274 1052.41 Q708.325 1049.37 708.325 1043.58 Q708.325 1038.23 704.558 1035.23 Q700.831 1032.2 694.147 1032.2 L687.098 1032.2 L687.098 1025.47 L694.471 1025.47 Q700.507 1025.47 703.707 1023.08 Q706.907 1020.65 706.907 1016.11 Q706.907 1011.46 703.586 1008.98 Q700.304 1006.47 694.147 1006.47 Q690.785 1006.47 686.936 1007.2 Q683.088 1007.93 678.47 1009.47 L678.47 1002.18 Q683.128 1000.88 687.179 1000.23 Q691.271 999.586 694.876 999.586 Q704.193 999.586 709.621 1003.84 Q715.05 1008.05 715.05 1015.26 Q715.05 1020.29 712.173 1023.77 Q709.297 1027.21 703.991 1028.55 Z" fill="#000000" fill-rule="evenodd" fill-opacity="1" /><path clip-path="url(#clip540)" d="M732.833 1050.87 L741.38 1050.87 L741.38 1057.84 L734.737 1070.8 L729.511 1070.8 L732.833 1057.84 L732.833 1050.87 Z" fill="#000000" fill-rule="evenodd" fill-opacity="1" /><path clip-path="url(#clip540)" d="M807.208 1007.81 L786.548 1040.09 L807.208 1040.09 L807.208 1007.81 M805.061 1000.68 L815.35 1000.68 L815.35 1040.09 L823.978 1040.09 L823.978 1046.9 L815.35 1046.9 L815.35 1061.16 L807.208 1061.16 L807.208 1046.9 L779.905 1046.9 L779.905 1039 L805.061 1000.68 Z" fill="#000000" fill-rule="evenodd" fill-opacity="1" /><path clip-path="url(#clip540)" d="M853.874 998.128 L853.874 1072.1 L836.698 1072.1 L836.698 1066.3 L846.38 1066.3 L846.38 1003.92 L836.698 1003.92 L836.698 998.128 L853.874 998.128 Z" fill="#000000" fill-rule="evenodd" fill-opacity="1" /><polyline clip-path="url(#clip542)" style="stroke:#0000ff; stroke-linecap:round; stroke-linejoin:round; stroke-width:6; stroke-opacity:1; fill:none" points="221.427,1781.8 740.826,1087.98 "/>
<polyline clip-path="url(#clip542)" style="stroke:#0000ff; stroke-linecap:round; stroke-linejoin:round; stroke-width:6; stroke-opacity:1; fill:none" points="710.839,1103 740.826,1087.98 734.855,1120.98 "/>
<polyline clip-path="url(#clip542)" style="stroke:#0000ff; stroke-linecap:round; stroke-linejoin:round; stroke-width:6; stroke-opacity:1; fill:none" points="740.826,1087.98 221.427,1781.8 "/>
<polyline clip-path="url(#clip542)" style="stroke:#000000; stroke-linecap:round; stroke-linejoin:round; stroke-width:12; stroke-opacity:1; fill:none" points="740.826,1781.8 740.826,1087.98 "/>
<polyline clip-path="url(#clip542)" style="stroke:#000000; stroke-linecap:round; stroke-linejoin:round; stroke-width:20; stroke-opacity:1; fill:none" points="740.826,1781.8 221.427,1781.8 "/>
<path clip-path="url(#clip540)" d="M346.682 1444.57 L341.472 1430.29 L357.015 1437.79 L359.857 1439.14 Q359.298 1438.55 358.46 1437.39 Q357.614 1436.18 357.377 1435.91 L330 1401.37 Q329.819 1401.15 329.518 1400.79 Q329.211 1400.38 329.113 1400.22 Q329.015 1400.06 328.798 1399.77 Q328.582 1399.47 328.54 1399.35 Q328.47 1399.21 328.338 1398.98 Q328.205 1398.75 328.233 1398.59 Q328.262 1398.44 328.255 1398.22 Q328.249 1397.99 328.347 1397.8 Q328.467 1397.59 328.587 1397.37 Q328.706 1397.15 328.917 1396.87 L332.692 1391.86 Q334.021 1390.1 335.169 1390.96 Q336.316 1391.83 335.03 1393.53 L331.339 1398.43 L366.822 1443.29 Q367.339 1443.95 367.486 1444.28 Q367.653 1444.58 367.582 1445.14 Q367.51 1445.7 366.983 1446.4 L366.561 1446.96 L345.578 1436.9 L348.302 1444.35 L346.682 1444.57 Z" fill="#000000" fill-rule="evenodd" fill-opacity="1" /><path clip-path="url(#clip540)" d="M334.912 1393.72 L448.365 1243.17 L445.984 1241.37 L332.531 1391.93  Z" fill="#000000" fill-rule="evenodd" fill-opacity="1"/>
<path clip-path="url(#clip540)" d="M387.131 1363.6 Q385.577 1365.66 384.984 1366.86 Q384.358 1368.03 384.398 1368.52 Q384.405 1368.99 384.789 1369.64 L400.266 1398.75 Q400.903 1399.95 400.836 1400.72 Q400.736 1401.47 400.02 1402.41 Q399.576 1403 399.264 1403.28 Q399.009 1403.55 398.246 1403.75 Q397.508 1403.91 396.427 1403.71 L362.365 1396.47 L359.133 1400.76 L355.99 1398.39 L361.959 1390.88 L368.028 1382.41 L371.171 1384.78 L368.433 1388.41 L393.146 1393.69 L382.256 1373.27 L381.684 1372.33 Q381.324 1372.06 380.396 1372.95 Q379.435 1373.81 378.547 1374.99 L375.404 1372.62 L380.189 1366.68 Q382.31 1363.87 383.989 1361.23 L387.131 1363.6 Z" fill="#000000" fill-rule="evenodd" fill-opacity="1" /><path clip-path="url(#clip540)" d="M415.446 1341.35 Q417.283 1341.09 418.723 1342.18 Q420.164 1343.26 420.454 1345.13 Q420.713 1346.96 419.627 1348.4 Q418.542 1349.84 416.68 1350.13 Q414.811 1350.37 413.37 1349.28 Q411.93 1348.2 411.672 1346.36 Q411.405 1344.47 412.491 1343.02 Q413.576 1341.58 415.446 1341.35 Z" fill="#000000" fill-rule="evenodd" fill-opacity="1" /><path clip-path="url(#clip540)" d="M459.433 1267.65 Q457.879 1269.72 457.286 1270.91 Q456.66 1272.08 456.7 1272.57 Q456.707 1273.04 457.091 1273.69 L472.568 1302.8 Q473.204 1304 473.137 1304.77 Q473.037 1305.52 472.322 1306.47 Q471.878 1307.06 471.566 1307.33 Q471.311 1307.6 470.548 1307.8 Q469.81 1307.96 468.728 1307.76 L434.666 1300.52 L431.434 1304.81 L428.292 1302.44 L434.261 1294.93 L440.33 1286.47 L443.472 1288.83 L440.734 1292.47 L465.447 1297.75 L454.557 1277.32 L453.986 1276.38 Q453.626 1276.11 452.697 1277 Q451.736 1277.87 450.848 1279.05 L447.706 1276.68 L452.49 1270.74 Q454.612 1267.92 456.29 1265.29 L459.433 1267.65 Z" fill="#000000" fill-rule="evenodd" fill-opacity="1" /><path clip-path="url(#clip540)" d="M789.375 1411.78 L768.715 1444.06 L789.375 1444.06 L789.375 1411.78 M787.228 1404.65 L797.517 1404.65 L797.517 1444.06 L806.146 1444.06 L806.146 1450.87 L797.517 1450.87 L797.517 1465.13 L789.375 1465.13 L789.375 1450.87 L762.072 1450.87 L762.072 1442.97 L787.228 1404.65 Z" fill="#000000" fill-rule="evenodd" fill-opacity="1" /><path clip-path="url(#clip540)" d="M488.56 1692.7 Q494.434 1693.96 497.715 1697.93 Q501.036 1701.9 501.036 1707.73 Q501.036 1716.68 494.879 1721.58 Q488.722 1726.49 477.379 1726.49 Q473.571 1726.49 469.52 1725.72 Q465.51 1724.99 461.216 1723.49 L461.216 1715.59 Q464.619 1717.57 468.67 1718.59 Q472.721 1719.6 477.136 1719.6 Q484.833 1719.6 488.843 1716.56 Q492.894 1713.52 492.894 1707.73 Q492.894 1702.38 489.127 1699.38 Q485.4 1696.35 478.716 1696.35 L471.667 1696.35 L471.667 1689.62 L479.04 1689.62 Q485.076 1689.62 488.276 1687.23 Q491.476 1684.8 491.476 1680.26 Q491.476 1675.61 488.155 1673.13 Q484.873 1670.62 478.716 1670.62 Q475.354 1670.62 471.505 1671.35 Q467.657 1672.08 463.039 1673.62 L463.039 1666.33 Q467.698 1665.03 471.748 1664.38 Q475.84 1663.74 479.445 1663.74 Q488.762 1663.74 494.19 1667.99 Q499.619 1672.2 499.619 1679.41 Q499.619 1684.44 496.743 1687.92 Q493.866 1691.36 488.56 1692.7 Z" fill="#000000" fill-rule="evenodd" fill-opacity="1" /></svg>
