<?xml version="1.0" encoding="utf-8"?>
<svg xmlns="http://www.w3.org/2000/svg" xmlns:xlink="http://www.w3.org/1999/xlink" width="500" height="500" viewBox="0 0 2000 2000">
<defs>
  <clipPath id="clip940">
    <rect x="0" y="0" width="2000" height="2000"/>
  </clipPath>
</defs>
<path clip-path="url(#clip940)" d="M0 2000 L2000 2000 L2000 0 L0 0  Z" fill="#ffffff" fill-rule="evenodd" fill-opacity="1"/>
<defs>
  <clipPath id="clip941">
    <rect x="400" y="200" width="1401" height="1401"/>
  </clipPath>
</defs>
<path clip-path="url(#clip940)" d="M248.189 1781.8 L1952.76 1781.8 L1952.76 47.2441 L248.189 47.2441  Z" fill="#ffffff" fill-rule="evenodd" fill-opacity="1"/>
<defs>
  <clipPath id="clip942">
    <rect x="248" y="47" width="1706" height="1736"/>
  </clipPath>
</defs>
<polyline clip-path="url(#clip940)" style="stroke:#000000; stroke-linecap:round; stroke-linejoin:round; stroke-width:4; stroke-opacity:1; fill:none" points="248.189,914.521 1952.76,914.521 "/>
<polyline clip-path="url(#clip940)" style="stroke:#000000; stroke-linecap:round; stroke-linejoin:round; stroke-width:4; stroke-opacity:1; fill:none" points="248.189,933.419 248.189,895.623 "/>
<polyline clip-path="url(#clip940)" style="stroke:#000000; stroke-linecap:round; stroke-linejoin:round; stroke-width:4; stroke-opacity:1; fill:none" points="674.331,933.419 674.331,895.623 "/>
<polyline clip-path="url(#clip940)" style="stroke:#000000; stroke-linecap:round; stroke-linejoin:round; stroke-width:4; stroke-opacity:1; fill:none" points="1526.61,933.419 1526.61,895.623 "/>
<polyline clip-path="url(#clip940)" style="stroke:#000000; stroke-linecap:round; stroke-linejoin:round; stroke-width:4; stroke-opacity:1; fill:none" points="1952.76,933.419 1952.76,895.623 "/>
<g clip-path="url(#clip940)">
<text style="fill:#000000; fill-opacity:1; font-family:Arial,Helvetica Neue,Helvetica,sans-serif; font-size:48px; text-anchor:middle;" transform="rotate(0, 248.189, 973.171)" x="248.189" y="973.171">−10</text>
</g>
<g clip-path="url(#clip940)">
<text style="fill:#000000; fill-opacity:1; font-family:Arial,Helvetica Neue,Helvetica,sans-serif; font-size:48px; text-anchor:middle;" transform="rotate(0, 674.331, 973.171)" x="674.331" y="973.171">−5</text>
</g>
<g clip-path="url(#clip940)">
<text style="fill:#000000; fill-opacity:1; font-family:Arial,Helvetica Neue,Helvetica,sans-serif; font-size:48px; text-anchor:middle;" transform="rotate(0, 1526.61, 973.171)" x="1526.61" y="973.171">5</text>
</g>
<g clip-path="url(#clip940)">
<text style="fill:#000000; fill-opacity:1; font-family:Arial,Helvetica Neue,Helvetica,sans-serif; font-size:48px; text-anchor:middle;" transform="rotate(0, 1952.76, 973.171)" x="1952.76" y="973.171">10</text>
</g>
<g clip-path="url(#clip940)">
<text style="fill:#000000; fill-opacity:1; font-family:Arial,Helvetica Neue,Helvetica,sans-serif; font-size:66px; text-anchor:middle;" transform="rotate(0, 1100.47, 1921.66)" x="1100.47" y="1921.66">1st Dim</text>
</g>
<polyline clip-path="url(#clip940)" style="stroke:#000000; stroke-linecap:round; stroke-linejoin:round; stroke-width:4; stroke-opacity:1; fill:none" points="1100.47,1781.8 1100.47,47.2441 "/>
<polyline clip-path="url(#clip940)" style="stroke:#000000; stroke-linecap:round; stroke-linejoin:round; stroke-width:4; stroke-opacity:1; fill:none" points="1081.57,1781.8 1119.37,1781.8 "/>
<polyline clip-path="url(#clip940)" style="stroke:#000000; stroke-linecap:round; stroke-linejoin:round; stroke-width:4; stroke-opacity:1; fill:none" points="1081.57,1348.16 1119.37,1348.16 "/>
<polyline clip-path="url(#clip940)" style="stroke:#000000; stroke-linecap:round; stroke-linejoin:round; stroke-width:4; stroke-opacity:1; fill:none" points="1081.57,480.883 1119.37,480.883 "/>
<polyline clip-path="url(#clip940)" style="stroke:#000000; stroke-linecap:round; stroke-linejoin:round; stroke-width:4; stroke-opacity:1; fill:none" points="1081.57,47.2441 1119.37,47.2441 "/>
<g clip-path="url(#clip940)">
<text style="fill:#000000; fill-opacity:1; font-family:Arial,Helvetica Neue,Helvetica,sans-serif; font-size:48px; text-anchor:middle;" transform="rotate(0, 1030.33, 1799.3)" x="1030.33" y="1799.3">−10</text>
</g>
<g clip-path="url(#clip940)">
<text style="fill:#000000; fill-opacity:1; font-family:Arial,Helvetica Neue,Helvetica,sans-serif; font-size:48px; text-anchor:middle;" transform="rotate(0, 1043.71, 1365.66)" x="1043.71" y="1365.66">−5</text>
</g>
<g clip-path="url(#clip940)">
<text style="fill:#000000; fill-opacity:1; font-family:Arial,Helvetica Neue,Helvetica,sans-serif; font-size:48px; text-anchor:middle;" transform="rotate(0, 1057.09, 498.383)" x="1057.09" y="498.383">5</text>
</g>
<g clip-path="url(#clip940)">
<text style="fill:#000000; fill-opacity:1; font-family:Arial,Helvetica Neue,Helvetica,sans-serif; font-size:48px; text-anchor:middle;" transform="rotate(0, 1043.71, 64.7441)" x="1043.71" y="64.7441">10</text>
</g>
<g clip-path="url(#clip940)">
<text style="fill:#000000; fill-opacity:1; font-family:Arial,Helvetica Neue,Helvetica,sans-serif; font-size:66px; text-anchor:middle;" transform="rotate(-90, 96.3402, 914.521)" x="96.3402" y="914.521">2nd Dim</text>
</g>
<circle clip-path="url(#clip942)" cx="755.298" cy="1525.95" r="14.4" fill="#0000ff" fill-rule="evenodd" fill-opacity="1" stroke="#000000" stroke-opacity="1" stroke-width="4"/>
<path clip-path="url(#clip940)" d="M620.97 1444.78 L638.146 1444.78 L638.146 1450.57 L628.424 1450.57 L628.424 1512.95 L638.146 1512.95 L638.146 1518.74 L620.97 1518.74 L620.97 1444.78 Z" fill="#000000" fill-rule="evenodd" fill-opacity="1" /><path clip-path="url(#clip940)" d="M650.258 1481.76 L672.092 1481.76 L672.092 1488.4 L650.258 1488.4 L650.258 1481.76 Z" fill="#000000" fill-rule="evenodd" fill-opacity="1" /><path clip-path="url(#clip940)" d="M707.497 1454.46 L686.838 1486.74 L707.497 1486.74 L707.497 1454.46 M705.35 1447.33 L715.64 1447.33 L715.64 1486.74 L724.268 1486.74 L724.268 1493.55 L715.64 1493.55 L715.64 1507.81 L707.497 1507.81 L707.497 1493.55 L680.194 1493.55 L680.194 1485.65 L705.35 1447.33 Z" fill="#000000" fill-rule="evenodd" fill-opacity="1" /><path clip-path="url(#clip940)" d="M738.649 1497.52 L747.196 1497.52 L747.196 1504.49 L740.553 1517.45 L735.327 1517.45 L738.649 1504.49 L738.649 1497.52 Z" fill="#000000" fill-rule="evenodd" fill-opacity="1" /><path clip-path="url(#clip940)" d="M785.72 1481.76 L807.555 1481.76 L807.555 1488.4 L785.72 1488.4 L785.72 1481.76 Z" fill="#000000" fill-rule="evenodd" fill-opacity="1" /><path clip-path="url(#clip940)" d="M818.411 1447.33 L857.3 1447.33 L857.3 1450.81 L835.344 1507.81 L826.796 1507.81 L847.456 1454.21 L818.411 1454.21 L818.411 1447.33 Z" fill="#000000" fill-rule="evenodd" fill-opacity="1" /><path clip-path="url(#clip940)" d="M889.626 1444.78 L889.626 1518.74 L872.45 1518.74 L872.45 1512.95 L882.132 1512.95 L882.132 1450.57 L872.45 1450.57 L872.45 1444.78 L889.626 1444.78 Z" fill="#000000" fill-rule="evenodd" fill-opacity="1" /><polyline clip-path="url(#clip942)" style="stroke:#0000ff; stroke-linecap:round; stroke-linejoin:round; stroke-width:6; stroke-opacity:1; fill:none" points="1100.47,914.521 759.559,1521.61 "/>
<polyline clip-path="url(#clip942)" style="stroke:#0000ff; stroke-linecap:round; stroke-linejoin:round; stroke-width:6; stroke-opacity:1; fill:none" points="787.327,1502.8 759.559,1521.61 761.169,1488.11 "/>
<polyline clip-path="url(#clip942)" style="stroke:#0000ff; stroke-linecap:round; stroke-linejoin:round; stroke-width:6; stroke-opacity:1; fill:none" points="759.559,1521.61 1100.47,914.521 "/>
</svg>
